SplineFontDB: 3.2
FontName: NeoNipponPersonalUse-Regular
FullName: Neo Nippon - Personal Use Reg
FamilyName: Neo Nippon - Personal Use
Weight: Book
Copyright: Copyright (c) 2025 by Dikas Studio. All rights reserved.
Version: 1.000
ItalicAngle: 0
UnderlinePosition: -125
UnderlineWidth: 50
Ascent: 800
Descent: 200
InvalidEm: 0
sfntRevision: 0x00010000
LayerCount: 2
Layer: 0 1 "Back" 1
Layer: 1 1 "Fore" 0
XUID: [1021 565 -115038069 7563482]
StyleMap: 0x0040
FSType: 0
OS2Version: 4
OS2_WeightWidthSlopeOnly: 0
OS2_UseTypoMetrics: 1
CreationTime: 1737602631
ModificationTime: 1773528476
PfmFamily: 81
TTFWeight: 400
TTFWidth: 5
LineGap: 100
VLineGap: 0
Panose: 0 0 0 0 0 0 0 0 0 0
OS2TypoAscent: 631
OS2TypoAOffset: 0
OS2TypoDescent: -250
OS2TypoDOffset: 0
OS2TypoLinegap: 100
OS2WinAscent: 750
OS2WinAOffset: 0
OS2WinDescent: 250
OS2WinDOffset: 0
HheadAscent: 631
HheadAOffset: 0
HheadDescent: -250
HheadDOffset: 0
OS2SubXSize: 650
OS2SubYSize: 600
OS2SubXOff: 0
OS2SubYOff: 75
OS2SupXSize: 650
OS2SupYSize: 600
OS2SupXOff: 0
OS2SupYOff: 350
OS2StrikeYSize: 50
OS2StrikeYPos: 300
OS2CapHeight: 631
OS2XHeight: 397
OS2Vendor: 'PYRS'
OS2CodePages: 20000001.00000000
OS2UnicodeRanges: 800000af.5000004a.00000000.00000000
Lookup: 1 0 0 "'aalt' Access All Alternates lookup 0" { "'aalt' Access All Alternates lookup 0 subtable"  } ['aalt' ('DFLT' <'dflt' > 'grek' <'dflt' > 'latn' <'dflt' > ) ]
Lookup: 1 0 0 "'sups' Superscript lookup 1" { "'sups' Superscript lookup 1 subtable" ("superior") } ['sups' ('DFLT' <'dflt' > 'grek' <'dflt' > 'latn' <'dflt' > ) ]
Lookup: 4 0 0 "'frac' Diagonal Fractions lookup 2" { "'frac' Diagonal Fractions lookup 2 subtable"  } ['frac' ('DFLT' <'dflt' > 'grek' <'dflt' > 'latn' <'dflt' > ) ]
Lookup: 6 0 0 "'ordn' Ordinals lookup 3" { "'ordn' Ordinals lookup 3 contextual 0"  "'ordn' Ordinals lookup 3 contextual 1"  } ['ordn' ('DFLT' <'dflt' > 'grek' <'dflt' > 'latn' <'dflt' > ) ]

StartChar: exclam
Encoding: 33 33 4
Width: 154
GlyphClass: 2
Flags: W
LayerCount: 2
Fore
SplineSet
122 631 m 1,0,-1
 122 129 l 1,1,-1
 32 129 l 1,2,-1
 32 631 l 1,3,-1
 122 631 l 1,0,-1
32 90 m 1,4,-1
 122 90 l 1,5,-1
 122 0 l 1,6,-1
 32 0 l 1,7,-1
 32 90 l 1,4,-1
EndSplineSet
EndChar

StartChar: quotedbl
Encoding: 34 34 5
Width: 284
GlyphClass: 2
Flags: W
LayerCount: 2
Fore
SplineSet
32 631 m 1,0,-1
 122 631 l 1,1,-1
 122 416 l 1,2,-1
 32 416 l 1,3,-1
 32 631 l 1,0,-1
252 631 m 1,4,-1
 252 416 l 1,5,-1
 161 416 l 1,6,-1
 161 631 l 1,7,-1
 252 631 l 1,4,-1
EndSplineSet
EndChar

StartChar: numbersign
Encoding: 35 35 6
Width: 799
GlyphClass: 2
Flags: W
LayerCount: 2
Fore
SplineSet
88 400 m 1,0,-1
 112 487 l 1,1,-1
 767 487 l 1,2,-1
 743 400 l 1,3,-1
 88 400 l 1,0,-1
228 0 m 1,4,-1
 138 0 l 1,5,-1
 316 631 l 1,6,-1
 406 631 l 1,7,-1
 228 0 l 1,4,-1
686 142 m 1,8,-1
 32 142 l 1,9,-1
 56 229 l 1,10,-1
 711 229 l 1,11,-1
 686 142 l 1,8,-1
674 631 m 1,12,-1
 496 0 l 1,13,-1
 406 0 l 1,14,-1
 584 631 l 1,15,-1
 674 631 l 1,12,-1
EndSplineSet
EndChar

StartChar: ampersand
Encoding: 38 38 9
Width: 695
GlyphClass: 2
Flags: W
LayerCount: 2
Fore
SplineSet
123 239 m 2,0,-1
 123 134 l 2,1,2
 123 115 123 115 124.5 104.5 c 128,-1,3
 126 94 126 94 131.5 88.5 c 128,-1,4
 137 83 137 83 147.5 81.5 c 128,-1,5
 158 80 158 80 177 80 c 2,6,-1
 480 80 l 1,7,-1
 480 293 l 1,8,-1
 177 293 l 2,9,10
 158 293 158 293 147.5 291.5 c 128,-1,11
 137 290 137 290 131.5 284.5 c 128,-1,12
 126 279 126 279 124.5 268.5 c 128,-1,13
 123 258 123 258 123 239 c 2,0,-1
32 402 m 2,14,-1
 32 515 l 2,15,16
 32 539 32 539 41 560 c 128,-1,17
 50 581 50 581 66 597 c 128,-1,18
 82 613 82 613 103 622 c 128,-1,19
 124 631 124 631 148 631 c 2,20,-1
 479 631 l 1,21,-1
 479 551 l 1,22,-1
 177 551 l 2,23,24
 158 551 158 551 147.5 549.5 c 128,-1,25
 137 548 137 548 131.5 542.5 c 128,-1,26
 126 537 126 537 124.5 526.5 c 128,-1,27
 123 516 123 516 123 497 c 2,28,-1
 123 426 l 2,29,30
 123 407 123 407 124.5 396.5 c 128,-1,31
 126 386 126 386 131.5 381 c 128,-1,32
 137 376 137 376 147.5 374.5 c 128,-1,33
 158 373 158 373 177 373 c 2,34,-1
 480 373 l 1,35,-1
 480 459 l 1,36,-1
 571 459 l 1,37,-1
 571 373 l 1,38,-1
 663 373 l 1,39,-1
 663 293 l 1,40,-1
 571 293 l 1,41,-1
 571 80 l 1,42,-1
 663 80 l 1,43,-1
 663 0 l 1,44,-1
 148 0 l 2,45,46
 124 0 124 0 103 9 c 128,-1,47
 82 18 82 18 66 34 c 128,-1,48
 50 50 50 50 41 71 c 128,-1,49
 32 92 32 92 32 116 c 2,50,-1
 32 264 l 2,51,52
 32 308 32 308 62 333 c 1,53,54
 32 358 32 358 32 402 c 2,14,-1
EndSplineSet
EndChar

StartChar: quotesingle
Encoding: 39 39 10
Width: 154
GlyphClass: 2
Flags: W
LayerCount: 2
Fore
SplineSet
122 631 m 1,0,-1
 122 416 l 1,1,-1
 32 416 l 1,2,-1
 32 631 l 1,3,-1
 122 631 l 1,0,-1
EndSplineSet
EndChar

StartChar: parenleft
Encoding: 40 40 11
Width: 209
GlyphClass: 2
Flags: W
LayerCount: 2
Fore
SplineSet
177 653 m 1,0,1
 158 653 158 653 147.5 651.5 c 128,-1,2
 137 650 137 650 132 644.5 c 128,-1,3
 127 639 127 639 125.5 628.5 c 128,-1,4
 124 618 124 618 124 599 c 2,5,-1
 124 32 l 2,6,7
 124 13 124 13 125.5 2.5 c 128,-1,8
 127 -8 127 -8 132 -13.5 c 128,-1,9
 137 -19 137 -19 147.5 -20.5 c 128,-1,10
 158 -22 158 -22 177 -22 c 1,11,-1
 176 -102 l 1,12,-1
 148 -102 l 2,13,14
 124 -102 124 -102 103 -93 c 128,-1,15
 82 -84 82 -84 66 -68 c 128,-1,16
 50 -52 50 -52 41 -30.5 c 128,-1,17
 32 -9 32 -9 32 15 c 2,18,-1
 32 617 l 2,19,20
 32 641 32 641 41 662 c 128,-1,21
 50 683 50 683 66 699 c 128,-1,22
 82 715 82 715 103 724 c 128,-1,23
 124 733 124 733 148 733 c 2,24,-1
 177 733 l 1,25,-1
 177 653 l 1,0,1
EndSplineSet
EndChar

StartChar: asterisk
Encoding: 42 42 13
Width: 462
GlyphClass: 2
Flags: W
LayerCount: 2
Fore
SplineSet
290 475 m 1,0,-1
 430 370 l 1,1,-1
 387 313 l 1,2,-1
 266 403 l 1,3,-1
 265 253 l 1,4,-1
 194 253 l 1,5,-1
 195 403 l 1,6,-1
 75 313 l 1,7,-1
 32 370 l 1,8,-1
 171 475 l 1,9,-1
 32 579 l 1,10,-1
 75 636 l 1,11,-1
 195 546 l 1,12,-1
 196 697 l 1,13,-1
 268 696 l 1,14,-1
 267 547 l 1,15,-1
 387 636 l 1,16,-1
 430 579 l 1,17,-1
 290 475 l 1,0,-1
EndSplineSet
EndChar

StartChar: plus
Encoding: 43 43 14
Width: 461
GlyphClass: 2
Flags: W
LayerCount: 2
Fore
SplineSet
429 356 m 1,0,-1
 429 276 l 1,1,-1
 275 276 l 1,2,-1
 275 117 l 1,3,-1
 185 117 l 1,4,-1
 185 276 l 1,5,-1
 32 276 l 1,6,-1
 32 356 l 1,7,-1
 185 356 l 1,8,-1
 185 514 l 1,9,-1
 275 514 l 1,10,-1
 275 356 l 1,11,-1
 429 356 l 1,0,-1
EndSplineSet
EndChar

StartChar: comma
Encoding: 44 44 15
Width: 182
GlyphClass: 2
Flags: W
LayerCount: 2
Fore
SplineSet
150 118 m 1,0,-1
 150 1 l 1,1,2
 142 -20 142 -20 134 -39 c 0,3,4
 127 -56 127 -56 119.5 -74 c 128,-1,5
 112 -92 112 -92 104 -104 c 1,6,-1
 45 -104 l 1,7,8
 60 -62 60 -62 76 0 c 1,9,-1
 32 0 l 1,10,-1
 32 118 l 1,11,-1
 150 118 l 1,0,-1
EndSplineSet
EndChar

StartChar: hyphen
Encoding: 45 45 16
Width: 461
GlyphClass: 2
Flags: W
LayerCount: 2
Fore
SplineSet
429 356 m 1,0,-1
 429 276 l 1,1,-1
 32 276 l 1,2,-1
 32 356 l 1,3,-1
 429 356 l 1,0,-1
EndSplineSet
EndChar

StartChar: period
Encoding: 46 46 17
Width: 182
GlyphClass: 2
Flags: W
LayerCount: 2
Fore
SplineSet
150 118 m 1,0,-1
 150 0 l 1,1,-1
 32 0 l 1,2,-1
 32 118 l 1,3,-1
 150 118 l 1,0,-1
EndSplineSet
EndChar

StartChar: slash
Encoding: 47 47 18
Width: 564
GlyphClass: 2
Flags: W
LayerCount: 2
Fore
SplineSet
532 733 m 1,0,-1
 127 -102 l 1,1,-1
 32 -102 l 1,2,-1
 436 733 l 1,3,-1
 532 733 l 1,0,-1
EndSplineSet
EndChar

StartChar: zero
Encoding: 48 48 19
Width: 695
GlyphClass: 2
Flags: W
LayerCount: 2
Fore
SplineSet
547 631 m 2,0,1
 571 631 571 631 592 622 c 128,-1,2
 613 613 613 613 629 597 c 128,-1,3
 645 581 645 581 654 560 c 128,-1,4
 663 539 663 539 663 515 c 2,5,-1
 663 0 l 1,6,-1
 240 0 l 2,7,8
 216 0 216 0 195 9 c 128,-1,9
 174 18 174 18 158 34 c 128,-1,10
 142 50 142 50 133 71 c 128,-1,11
 124 92 124 92 124 116 c 2,12,-1
 124 551 l 1,13,-1
 32 551 l 1,14,-1
 32 631 l 1,15,-1
 547 631 l 2,0,1
572 498 m 2,16,17
 572 516 572 516 570.5 527 c 128,-1,18
 569 538 569 538 563.5 543 c 128,-1,19
 558 548 558 548 547.5 549.5 c 128,-1,20
 537 551 537 551 518 551 c 2,21,-1
 215 551 l 1,22,-1
 215 133 l 2,23,24
 215 114 215 114 216.5 103.5 c 128,-1,25
 218 93 218 93 223.5 88 c 128,-1,26
 229 83 229 83 239.5 81.5 c 128,-1,27
 250 80 250 80 269 80 c 2,28,-1
 572 80 l 1,29,-1
 572 498 l 2,16,17
EndSplineSet
EndChar

StartChar: one
Encoding: 49 49 20
Width: 410
GlyphClass: 2
Flags: W
LayerCount: 2
Fore
SplineSet
378 631 m 1,0,-1
 378 0 l 1,1,-1
 287 0 l 1,2,-1
 287 551 l 1,3,-1
 32 551 l 1,4,-1
 32 631 l 1,5,-1
 378 631 l 1,0,-1
EndSplineSet
Substitution2: "'sups' Superscript lookup 1 subtable" onesuperior
Substitution2: "'aalt' Access All Alternates lookup 0 subtable" onesuperior
EndChar

StartChar: two
Encoding: 50 50 21
Width: 695
GlyphClass: 2
Flags: W
LayerCount: 2
Fore
SplineSet
215 225 m 1,0,-1
 215 80 l 1,1,-1
 662 80 l 1,2,-1
 662 0 l 1,3,-1
 33 0 l 1,4,-1
 33 80 l 1,5,-1
 124 80 l 1,6,-1
 124 225 l 1,7,-1
 33 225 l 1,8,-1
 33 305 l 1,9,-1
 572 305 l 1,10,-1
 572 498 l 2,11,12
 572 516 572 516 570.5 527 c 128,-1,13
 569 538 569 538 563.5 543 c 128,-1,14
 558 548 558 548 547.5 549.5 c 128,-1,15
 537 551 537 551 518 551 c 2,16,-1
 32 551 l 1,17,-1
 32 631 l 1,18,-1
 547 631 l 2,19,20
 571 631 571 631 592 622 c 128,-1,21
 613 613 613 613 629 597 c 128,-1,22
 645 581 645 581 654 560 c 128,-1,23
 663 539 663 539 663 515 c 2,24,-1
 662 225 l 1,25,-1
 215 225 l 1,0,-1
EndSplineSet
Substitution2: "'sups' Superscript lookup 1 subtable" twosuperior
Substitution2: "'aalt' Access All Alternates lookup 0 subtable" twosuperior
EndChar

StartChar: three
Encoding: 51 51 22
Width: 695
GlyphClass: 2
Flags: W
LayerCount: 2
Fore
SplineSet
571 225 m 1,0,-1
 571 80 l 1,1,-1
 663 80 l 1,2,-1
 663 0 l 1,3,-1
 33 0 l 1,4,-1
 33 80 l 1,5,-1
 479 80 l 1,6,-1
 479 225 l 1,7,-1
 216 225 l 1,8,-1
 216 305 l 1,9,-1
 479 305 l 1,10,-1
 479 498 l 2,11,12
 479 517 479 517 478 527.5 c 128,-1,13
 477 538 477 538 471.5 543.5 c 128,-1,14
 466 549 466 549 455.5 550 c 128,-1,15
 445 551 445 551 426 551 c 2,16,-1
 32 551 l 1,17,-1
 32 631 l 1,18,-1
 455 631 l 2,19,20
 479 631 479 631 500 622 c 128,-1,21
 521 613 521 613 537 597 c 128,-1,22
 553 581 553 581 562 560 c 128,-1,23
 571 539 571 539 571 515 c 2,24,-1
 571 305 l 1,25,-1
 663 305 l 1,26,-1
 663 225 l 1,27,-1
 571 225 l 1,0,-1
EndSplineSet
Substitution2: "'sups' Superscript lookup 1 subtable" threesuperior
Substitution2: "'aalt' Access All Alternates lookup 0 subtable" threesuperior
EndChar

StartChar: four
Encoding: 52 52 23
Width: 695
GlyphClass: 2
Flags: W
LayerCount: 2
Fore
SplineSet
663 305 m 1,0,-1
 663 225 l 1,1,-1
 572 225 l 1,2,-1
 572 0 l 1,3,-1
 480 0 l 1,4,-1
 480 225 l 1,5,-1
 148 225 l 2,6,7
 124 225 124 225 103 234 c 128,-1,8
 82 243 82 243 66 259 c 128,-1,9
 50 275 50 275 41 296 c 128,-1,10
 32 317 32 317 32 341 c 2,11,-1
 32 631 l 1,12,-1
 124 631 l 1,13,-1
 124 358 l 2,14,15
 124 339 124 339 125.5 328.5 c 128,-1,16
 127 318 127 318 132 313 c 128,-1,17
 137 308 137 308 147.5 306.5 c 128,-1,18
 158 305 158 305 177 305 c 2,19,-1
 480 305 l 1,20,-1
 480 631 l 1,21,-1
 572 631 l 1,22,-1
 572 305 l 1,23,-1
 663 305 l 1,0,-1
EndSplineSet
EndChar

StartChar: five
Encoding: 53 53 24
Width: 695
GlyphClass: 2
Flags: W
LayerCount: 2
Fore
SplineSet
547 400 m 2,0,1
 571 400 571 400 592 391 c 128,-1,2
 613 382 613 382 629 366 c 128,-1,3
 645 350 645 350 654 329 c 128,-1,4
 663 308 663 308 663 284 c 2,5,-1
 663 0 l 1,6,-1
 32 0 l 1,7,-1
 32 80 l 1,8,-1
 572 80 l 1,9,-1
 572 266 l 2,10,11
 572 285 572 285 570.5 295.5 c 128,-1,12
 569 306 569 306 563.5 311.5 c 128,-1,13
 558 317 558 317 547.5 318.5 c 128,-1,14
 537 320 537 320 518 320 c 2,15,-1
 32 320 l 1,16,-1
 32 400 l 1,17,-1
 124 400 l 1,18,-1
 124 551 l 1,19,-1
 32 551 l 1,20,-1
 32 631 l 1,21,-1
 653 631 l 1,22,-1
 653 551 l 1,23,-1
 215 551 l 1,24,-1
 215 400 l 1,25,-1
 547 400 l 2,0,1
EndSplineSet
EndChar

StartChar: six
Encoding: 54 54 25
Width: 694
GlyphClass: 2
Flags: W
LayerCount: 2
Fore
SplineSet
662 0 m 1,0,-1
 239 0 l 2,1,2
 215 0 215 0 194 9 c 128,-1,3
 173 18 173 18 157 34 c 128,-1,4
 141 50 141 50 132 71 c 128,-1,5
 123 92 123 92 123 116 c 2,6,-1
 123 320 l 1,7,-1
 32 320 l 1,8,-1
 32 400 l 1,9,-1
 123 400 l 1,10,-1
 123 551 l 1,11,-1
 32 551 l 1,12,-1
 32 631 l 1,13,-1
 651 631 l 1,14,-1
 651 551 l 1,15,-1
 214 551 l 1,16,-1
 214 400 l 1,17,-1
 546 400 l 2,18,19
 570 400 570 400 591 391 c 128,-1,20
 612 382 612 382 627.5 366 c 128,-1,21
 643 350 643 350 652.5 329 c 128,-1,22
 662 308 662 308 662 284 c 2,23,-1
 662 0 l 1,0,-1
571 266 m 2,24,25
 571 285 571 285 569.5 295.5 c 128,-1,26
 568 306 568 306 562.5 311.5 c 128,-1,27
 557 317 557 317 546.5 318.5 c 128,-1,28
 536 320 536 320 517 320 c 2,29,-1
 214 320 l 1,30,-1
 214 133 l 2,31,32
 214 114 214 114 215.5 103.5 c 128,-1,33
 217 93 217 93 222.5 88 c 128,-1,34
 228 83 228 83 238.5 81.5 c 128,-1,35
 249 80 249 80 268 80 c 2,36,-1
 571 80 l 1,37,-1
 571 266 l 2,24,25
EndSplineSet
EndChar

StartChar: seven
Encoding: 55 55 26
Width: 695
GlyphClass: 2
Flags: W
LayerCount: 2
Fore
SplineSet
123 439 m 1,0,-1
 32 439 l 1,1,-1
 32 631 l 1,2,-1
 663 631 l 1,3,-1
 663 551 l 1,4,-1
 548 551 l 1,5,-1
 328 0 l 1,6,-1
 227 0 l 1,7,-1
 447 551 l 1,8,-1
 123 551 l 1,9,-1
 123 439 l 1,0,-1
EndSplineSet
EndChar

StartChar: eight
Encoding: 56 56 27
Width: 695
GlyphClass: 2
Flags: W
LayerCount: 2
Fore
SplineSet
547 631 m 2,0,1
 571 631 571 631 592 622 c 128,-1,2
 613 613 613 613 629 597 c 128,-1,3
 645 581 645 581 654 560 c 128,-1,4
 663 539 663 539 663 515 c 2,5,-1
 663 0 l 1,6,-1
 240 0 l 2,7,8
 216 0 216 0 195 9 c 128,-1,9
 174 18 174 18 158 34 c 128,-1,10
 142 50 142 50 133 71 c 128,-1,11
 124 92 124 92 124 116 c 2,12,-1
 124 281 l 1,13,-1
 33 281 l 1,14,-1
 33 361 l 1,15,-1
 124 361 l 1,16,-1
 124 551 l 1,17,-1
 32 551 l 1,18,-1
 32 631 l 1,19,-1
 547 631 l 2,0,1
572 281 m 1,20,-1
 215 281 l 1,21,-1
 215 145 l 2,22,23
 215 126 215 126 216.5 115.5 c 128,-1,24
 218 105 218 105 223.5 100 c 128,-1,25
 229 95 229 95 239.5 93.5 c 128,-1,26
 250 92 250 92 269 92 c 2,27,-1
 572 92 l 1,28,-1
 572 281 l 1,20,-1
572 498 m 2,29,30
 572 517 572 517 570.5 527.5 c 128,-1,31
 569 538 569 538 563.5 543.5 c 128,-1,32
 558 549 558 549 547.5 550 c 128,-1,33
 537 551 537 551 518 551 c 2,34,-1
 215 551 l 1,35,-1
 215 361 l 1,36,-1
 572 361 l 1,37,-1
 572 498 l 2,29,30
EndSplineSet
EndChar

StartChar: nine
Encoding: 57 57 28
Width: 694
GlyphClass: 2
Flags: W
LayerCount: 2
Fore
SplineSet
662 81 m 1,0,-1
 662 0 l 1,1,-1
 53 0 l 1,2,-1
 53 81 l 1,3,-1
 480 81 l 1,4,-1
 480 231 l 1,5,-1
 149 231 l 2,6,7
 125 231 125 231 104 240 c 128,-1,8
 83 249 83 249 67 265 c 128,-1,9
 51 281 51 281 42 302 c 128,-1,10
 33 323 33 323 33 347 c 2,11,-1
 32 631 l 1,12,-1
 456 631 l 2,13,14
 480 631 480 631 501 622 c 128,-1,15
 522 613 522 613 538 597 c 128,-1,16
 554 581 554 581 563 560 c 128,-1,17
 572 539 572 539 572 515 c 2,18,-1
 572 311 l 1,19,-1
 662 311 l 1,20,-1
 662 231 l 1,21,-1
 572 231 l 1,22,-1
 572 81 l 1,23,-1
 662 81 l 1,0,-1
480 498 m 2,24,25
 480 517 480 517 478.5 527.5 c 128,-1,26
 477 538 477 538 471.5 543.5 c 128,-1,27
 466 549 466 549 455.5 550 c 128,-1,28
 445 551 445 551 426 551 c 2,29,-1
 124 551 l 1,30,-1
 124 365 l 2,31,32
 124 346 124 346 125.5 335.5 c 128,-1,33
 127 325 127 325 132 319.5 c 128,-1,34
 137 314 137 314 147.5 312.5 c 128,-1,35
 158 311 158 311 177 311 c 2,36,-1
 480 311 l 1,37,-1
 480 498 l 2,24,25
EndSplineSet
EndChar

StartChar: colon
Encoding: 58 58 29
Width: 182
GlyphClass: 2
Flags: W
LayerCount: 2
Fore
SplineSet
32 120 m 1,0,-1
 150 120 l 1,1,-1
 150 2 l 1,2,-1
 32 2 l 1,3,-1
 32 120 l 1,0,-1
150 435 m 1,4,-1
 150 316 l 1,5,-1
 32 316 l 1,6,-1
 32 435 l 1,7,-1
 150 435 l 1,4,-1
EndSplineSet
EndChar

StartChar: semicolon
Encoding: 59 59 30
Width: 182
GlyphClass: 2
Flags: W
LayerCount: 2
Fore
SplineSet
150 435 m 1,0,-1
 150 316 l 1,1,-1
 32 316 l 1,2,-1
 32 435 l 1,3,-1
 150 435 l 1,0,-1
32 120 m 1,4,-1
 150 120 l 1,5,-1
 150 3 l 1,6,7
 142 -18 142 -18 134 -37 c 0,8,9
 127 -54 127 -54 119.5 -72 c 128,-1,10
 112 -90 112 -90 104 -102 c 1,11,-1
 45 -102 l 1,12,13
 60 -60 60 -60 76 2 c 1,14,-1
 32 2 l 1,15,-1
 32 120 l 1,4,-1
EndSplineSet
EndChar

StartChar: less
Encoding: 60 60 31
Width: 335
GlyphClass: 2
Flags: W
LayerCount: 2
Fore
SplineSet
303 412 m 1,0,-1
 57 295 l 1,1,-1
 57 331 l 1,2,-1
 303 214 l 1,3,-1
 303 141 l 1,4,-1
 33 269 l 1,5,-1
 33 358 l 1,6,-1
 303 485 l 1,7,-1
 303 412 l 1,0,-1
EndSplineSet
EndChar

StartChar: equal
Encoding: 61 61 32
Width: 461
GlyphClass: 2
Flags: W
LayerCount: 2
Fore
SplineSet
429 406 m 1,0,-1
 429 326 l 1,1,-1
 32 326 l 1,2,-1
 32 406 l 1,3,-1
 429 406 l 1,0,-1
32 272 m 1,4,-1
 429 272 l 1,5,-1
 429 192 l 1,6,-1
 32 192 l 1,7,-1
 32 272 l 1,4,-1
EndSplineSet
EndChar

StartChar: question
Encoding: 63 63 34
Width: 469
GlyphClass: 2
Flags: W
LayerCount: 2
Fore
SplineSet
145 90 m 1,0,-1
 236 90 l 1,1,-1
 236 0 l 1,2,-1
 145 0 l 1,3,-1
 145 90 l 1,0,-1
437 631 m 1,4,-1
 437 317 l 1,5,-1
 236 317 l 1,6,-1
 236 129 l 1,7,-1
 145 129 l 1,8,-1
 145 397 l 1,9,-1
 346 397 l 1,10,-1
 346 551 l 1,11,-1
 32 551 l 1,12,-1
 32 631 l 1,13,-1
 437 631 l 1,4,-1
EndSplineSet
EndChar

StartChar: at
Encoding: 64 64 35
Width: 815
GlyphClass: 2
Flags: W
LayerCount: 2
Fore
SplineSet
667 177 m 1,0,-1
 667 556 l 1,1,-1
 117 556 l 1,2,-1
 117 29 l 1,3,-1
 783 29 l 1,4,-1
 783 -46 l 1,5,-1
 32 -46 l 1,6,-1
 32 631 l 1,7,-1
 752 631 l 1,8,-1
 752 97 l 1,9,-1
 265 97 l 2,10,11
 241 97 241 97 220 106 c 128,-1,12
 199 115 199 115 183 131 c 128,-1,13
 167 147 167 147 158 168 c 128,-1,14
 149 189 149 189 149 213 c 2,15,-1
 149 325 l 1,16,-1
 475 325 l 1,17,-1
 475 388 l 1,18,-1
 159 388 l 1,19,-1
 159 468 l 1,20,-1
 636 468 l 1,21,-1
 636 388 l 1,22,-1
 567 388 l 1,23,-1
 567 177 l 1,24,-1
 667 177 l 1,0,-1
475 177 m 1,25,-1
 475 245 l 1,26,-1
 241 245 l 1,27,-1
 241 229 l 2,28,29
 241 210 241 210 242.5 199.5 c 128,-1,30
 244 189 244 189 249 184 c 128,-1,31
 254 179 254 179 264.5 178 c 128,-1,32
 275 177 275 177 294 177 c 2,33,-1
 475 177 l 1,25,-1
EndSplineSet
EndChar

StartChar: A
Encoding: 65 65 36
Width: 695
GlyphClass: 2
Flags: WO
LayerCount: 2
Fore
SplineSet
687.995097764 515 m 2,0,-1
 687.995097764 -3.5527136788e-15 l 2,1,2
 687.995097764 -10.3602412958 687.995097764 -10.3602412958 680.67766953 -17.6776695297 c 128,-1,3
 673.360241296 -24.9950977635 673.360241296 -24.9950977635 663 -24.9950977635 c 2,4,-1
 572 -24.9950977635 l 2,5,6
 561.639758704 -24.9950977635 561.639758704 -24.9950977635 554.32233047 -17.6776695297 c 128,-1,7
 547.004902236 -10.3602412958 547.004902236 -10.3602412958 547.004902236 3.5527136788e-15 c 2,8,-1
 547.004902236 292.004902236 l 1,9,-1
 239.995097764 292.004902236 l 1,10,-1
 239.995097764 -3.5527136788e-15 l 2,11,12
 239.995097764 -10.3602412958 239.995097764 -10.3602412958 232.500117229 -17.6776711696 c 128,-1,13
 225.005136694 -24.9951010433 225.005136694 -24.9951010433 215 -24.9950977635 c 2,14,-1
 124 -24.9950977635 l 2,15,16
 113.639758704 -24.9950977635 113.639758704 -24.9950977635 106.32232883 -17.5001172287 c 128,-1,17
 99.0048989567 -10.0051366939 99.0048989567 -10.0051366939 99.0049022365 3.5527136788e-15 c 2,18,-1
 99.0049022365 292.004902236 l 1,19,-1
 32 292.004902236 l 2,20,21
 21.6397587042 292.004902236 21.6397587042 292.004902236 14.3223304703 299.32233047 c 128,-1,22
 7.00490223649 306.639758704 7.00490223649 306.639758704 7.00490223649 317 c 2,23,-1
 7.00490223649 397 l 2,24,25
 7.00490223649 407.360241296 7.00490223649 407.360241296 14.4998827713 414.67767117 c 128,-1,26
 21.9948633061 421.995101043 21.9948633061 421.995101043 32 421.995097764 c 2,27,-1
 99.0049022365 421.995097764 l 1,28,-1
 99.0049022365 526.004902236 l 1,29,-1
 32 526.004902236 l 2,30,31
 21.6397587042 526.004902236 21.6397587042 526.004902236 14.3223304703 533.32233047 c 128,-1,32
 7.00490223649 540.639758704 7.00490223649 540.639758704 7.00490223649 551 c 2,33,-1
 7.00490223649 631 l 2,34,35
 7.00490223649 641.360241296 7.00490223649 641.360241296 14.3223304703 648.67766953 c 128,-1,36
 21.6397587042 655.995097764 21.6397587042 655.995097764 32 655.995097764 c 2,37,-1
 547 655.995097764 l 2,38,39
 576.153343913 655.995097764 576.153343913 655.995097764 601.709379123 645.042511245 c 128,-1,40
 627.265414333 634.089924726 627.265414333 634.089924726 646.67766953 614.67766953 c 128,-1,41
 666.089924726 595.265414333 666.089924726 595.265414333 677.042511245 569.709379123 c 128,-1,42
 687.995097764 544.153343913 687.995097764 544.153343913 687.995097764 515 c 2,0,-1
547.004902236 498 m 2,43,44
 547.004902236 518.082499448 547.004902236 518.082499448 545.562217141 525.071761789 c 1,45,46
 537.282858432 526.004902236 537.282858432 526.004902236 518 526.004902236 c 2,47,-1
 239.995097764 526.004902236 l 1,48,-1
 239.995097764 421.995097764 l 1,49,-1
 547.004902236 421.995097764 l 1,50,-1
 547.004902236 498 l 2,43,44
EndSplineSet
Substitution2: "Single Substitution lookup 7 subtable" ordfeminine
Substitution2: "'ss01' Style Set 1 lookup 5 subtable" uniE001
AlternateSubs2: "'salt' Stylistic Alternatives lookup 4 subtable" uniE001
Substitution2: "'aalt' Access All Alternates lookup 0 subtable" uniE001
EndChar

StartChar: B
Encoding: 66 66 37
Width: 695
GlyphClass: 2
Flags: W
LayerCount: 2
Fore
SplineSet
687.995097764 116 m 2,0,1
 687.995097764 86.8466560874 687.995097764 86.8466560874 677.042511245 61.2906208771 c 128,-1,2
 666.089924726 35.7345856668 666.089924726 35.7345856668 646.67766953 16.3223304703 c 128,-1,3
 627.265414333 -3.08992472611 627.265414333 -3.08992472611 601.709379123 -14.0425112448 c 128,-1,4
 576.153343913 -24.9950977635 576.153343913 -24.9950977635 547 -24.9950977635 c 2,5,-1
 32 -24.9950977635 l 2,6,7
 21.6397587042 -24.9950977635 21.6397587042 -24.9950977635 14.3223288304 -17.5001172287 c 128,-1,8
 7.00489895668 -10.0051366939 7.00489895668 -10.0051366939 7.00490223649 3.5527136788e-15 c 2,9,-1
 7.00490223649 80 l 2,10,11
 7.00490223649 90.3602412958 7.00490223649 90.3602412958 14.4998827713 97.6776711696 c 128,-1,12
 21.9948633061 104.995101043 21.9948633061 104.995101043 32 104.995097764 c 2,13,-1
 99.0049022365 104.995097764 l 1,14,-1
 99.0049022365 292.004902236 l 1,15,-1
 32 292.004902236 l 2,16,17
 21.6397587042 292.004902236 21.6397587042 292.004902236 14.3223304703 299.32233047 c 128,-1,18
 7.00490223649 306.639758704 7.00490223649 306.639758704 7.00490223649 317 c 2,19,-1
 7.00490223649 397 l 2,20,21
 7.00490223649 407.360241296 7.00490223649 407.360241296 14.4998827713 414.67767117 c 128,-1,22
 21.9948633061 421.995101043 21.9948633061 421.995101043 32 421.995097764 c 2,23,-1
 99.0049022365 421.995097764 l 1,24,-1
 99.0049022365 526.004902236 l 1,25,-1
 32 526.004902236 l 2,26,27
 21.6397587042 526.004902236 21.6397587042 526.004902236 14.3223304703 533.32233047 c 128,-1,28
 7.00490223649 540.639758704 7.00490223649 540.639758704 7.00490223649 551 c 2,29,-1
 7.00490223649 631 l 2,30,31
 7.00490223649 641.360241296 7.00490223649 641.360241296 14.3223304703 648.67766953 c 128,-1,32
 21.6397587042 655.995097764 21.6397587042 655.995097764 32 655.995097764 c 2,33,-1
 604 655.995097764 l 2,34,35
 614.360241296 655.995097764 614.360241296 655.995097764 621.67766953 648.67766953 c 128,-1,36
 628.995097764 641.360241296 628.995097764 641.360241296 628.995097764 631 c 2,37,-1
 628.995097764 422.498781408 l 1,38,-1
 663 421.995097764 l 2,39,40
 673.360241296 421.995097764 673.360241296 421.995097764 680.67766953 414.67766953 c 128,-1,41
 687.995097764 407.360241296 687.995097764 407.360241296 687.995097764 397 c 2,42,-1
 687.995097764 116 l 2,0,1
239.995097764 526.004902236 m 1,43,-1
 239.995097764 421.995097764 l 1,44,-1
 459 421.995097764 l 2,45,46
 479.744509821 421.995097764 479.744509821 421.995097764 486.680945345 423.557791272 c 1,47,48
 488.004902236 432.789162749 488.004902236 432.789162749 488.004902236 450 c 2,49,-1
 488.004902236 526.004902236 l 1,50,-1
 239.995097764 526.004902236 l 1,43,-1
545.11056314 105.294745272 m 1,51,-1
 545.11056314 105.294745272 l 1,51,-1
547.004902236 134 m 2,52,-1
 547.004902236 292.004902236 l 1,53,-1
 239.995097764 292.004902236 l 1,54,-1
 239.995097764 104.995097764 l 1,55,-1
 518 104.995097764 l 2,56,57
 539.019664049 104.995097764 539.019664049 104.995097764 545.495610766 106.531614931 c 1,58,59
 547.004902236 113.676645016 547.004902236 113.676645016 547.004902236 134 c 2,52,-1
EndSplineSet
Substitution2: "'ss01' Style Set 1 lookup 5 subtable" uniE002
AlternateSubs2: "'salt' Stylistic Alternatives lookup 4 subtable" uniE002
Substitution2: "'aalt' Access All Alternates lookup 0 subtable" uniE002
EndChar

StartChar: C
Encoding: 67 67 38
Width: 695
GlyphClass: 2
Flags: W
LayerCount: 2
Fore
SplineSet
518 104.995097764 m 2,0,1
 538.666004836 104.995097764 538.666004836 104.995097764 545.678847312 106.553532922 c 1,2,3
 547.004902236 115.789162749 547.004902236 115.789162749 547.004902236 133 c 2,4,-1
 547.004902236 193 l 2,5,6
 547.004902236 203.360241296 547.004902236 203.360241296 554.32233047 210.67766953 c 128,-1,7
 561.639758704 217.995097764 561.639758704 217.995097764 572 217.995097764 c 2,8,-1
 663 217.995097764 l 2,9,10
 673.360241296 217.995097764 673.360241296 217.995097764 680.67766953 210.67766953 c 128,-1,11
 687.995097764 203.360241296 687.995097764 203.360241296 687.995097764 193 c 2,12,-1
 687.995097764 116 l 2,13,14
 687.995097764 86.8466560874 687.995097764 86.8466560874 677.042511245 61.2906208771 c 128,-1,15
 666.089924726 35.7345856668 666.089924726 35.7345856668 646.67766953 16.3223304703 c 128,-1,16
 627.265414333 -3.08992472611 627.265414333 -3.08992472611 601.709379123 -14.0425112448 c 128,-1,17
 576.153343913 -24.9950977635 576.153343913 -24.9950977635 547 -24.9950977635 c 2,18,-1
 240 -24.9950977635 l 2,19,20
 210.846656087 -24.9950977635 210.846656087 -24.9950977635 185.290620877 -14.0425112448 c 128,-1,21
 159.734585667 -3.08992472611 159.734585667 -3.08992472611 140.32233047 16.3223304703 c 128,-1,22
 120.910075274 35.7345856668 120.910075274 35.7345856668 109.957488755 61.2906208771 c 128,-1,23
 99.0049022365 86.8466560874 99.0049022365 86.8466560874 99.0049022365 116 c 2,24,-1
 99.0049022365 526.004902236 l 1,25,-1
 32 526.004902236 l 2,26,27
 21.6397587042 526.004902236 21.6397587042 526.004902236 14.3223304703 533.32233047 c 128,-1,28
 7.00490223649 540.639758704 7.00490223649 540.639758704 7.00490223649 551 c 2,29,-1
 7.00490223649 631 l 2,30,31
 7.00490223649 641.360241296 7.00490223649 641.360241296 14.3223304703 648.67766953 c 128,-1,32
 21.6397587042 655.995097764 21.6397587042 655.995097764 32 655.995097764 c 2,33,-1
 663 655.995097764 l 2,34,35
 673.360241296 655.995097764 673.360241296 655.995097764 680.67766953 648.67766953 c 128,-1,36
 687.995097764 641.360241296 687.995097764 641.360241296 687.995097764 631 c 2,37,-1
 687.995097764 491 l 2,38,39
 687.995097764 480.639758704 687.995097764 480.639758704 680.500117229 473.32232883 c 128,-1,40
 673.005136694 466.004898957 673.005136694 466.004898957 663 466.004902236 c 2,41,-1
 572 466.004902236 l 2,42,43
 561.639758704 466.004902236 561.639758704 466.004902236 554.32233047 473.32233047 c 128,-1,44
 547.004902236 480.639758704 547.004902236 480.639758704 547.004902236 491 c 2,45,-1
 547.004902236 526.004902236 l 1,46,-1
 239.995097764 526.004902236 l 1,47,-1
 239.995097764 133 l 2,48,49
 239.995097764 120.849602998 239.995097764 120.849602998 248.058171874 112.922350381 c 128,-1,50
 256.121245984 104.995097764 256.121245984 104.995097764 269 104.995097764 c 2,51,-1
 518 104.995097764 l 2,0,1
EndSplineSet
EndChar

StartChar: D
Encoding: 68 68 39
Width: 695
GlyphClass: 2
Flags: W
LayerCount: 2
Fore
SplineSet
687.995097764 116 m 2,0,1
 687.995097764 86.8466560874 687.995097764 86.8466560874 677.042511245 61.2906208771 c 128,-1,2
 666.089924726 35.7345856668 666.089924726 35.7345856668 646.67766953 16.3223304703 c 128,-1,3
 627.265414333 -3.08992472611 627.265414333 -3.08992472611 601.709379123 -14.0425112448 c 128,-1,4
 576.153343913 -24.9950977635 576.153343913 -24.9950977635 547 -24.9950977635 c 2,5,-1
 32 -24.9950977635 l 2,6,7
 21.6397587042 -24.9950977635 21.6397587042 -24.9950977635 14.3223288304 -17.5001172287 c 128,-1,8
 7.00489895668 -10.0051366939 7.00489895668 -10.0051366939 7.00490223649 3.5527136788e-15 c 2,9,-1
 7.00490223649 80 l 2,10,11
 7.00490223649 90.3602412958 7.00490223649 90.3602412958 14.4998827713 97.6776711696 c 128,-1,12
 21.9948633061 104.995101043 21.9948633061 104.995101043 32 104.995097764 c 2,13,-1
 99.0049022365 104.995097764 l 1,14,-1
 99.0049022365 526.004902236 l 1,15,-1
 32 526.004902236 l 2,16,17
 21.6397587042 526.004902236 21.6397587042 526.004902236 14.3223304703 533.32233047 c 128,-1,18
 7.00490223649 540.639758704 7.00490223649 540.639758704 7.00490223649 551 c 2,19,-1
 7.00490223649 631 l 2,20,21
 7.00490223649 641.360241296 7.00490223649 641.360241296 14.3223304703 648.67766953 c 128,-1,22
 21.6397587042 655.995097764 21.6397587042 655.995097764 32 655.995097764 c 2,23,-1
 663 655.995097764 l 2,24,25
 673.360241296 655.995097764 673.360241296 655.995097764 680.67766953 648.67766953 c 128,-1,26
 687.995097764 641.360241296 687.995097764 641.360241296 687.995097764 631 c 2,27,-1
 687.995097764 116 l 2,0,1
547.004902236 133 m 2,28,-1
 547.004902236 526.004902236 l 1,29,-1
 239.995097764 526.004902236 l 1,30,-1
 239.995097764 104.995097764 l 1,31,-1
 518 104.995097764 l 2,32,33
 538.602573608 104.995097764 538.602573608 104.995097764 545.602729184 106.540348532 c 1,34,35
 547.004902236 116.708666587 547.004902236 116.708666587 547.004902236 133 c 2,28,-1
EndSplineSet
Substitution2: "'ss01' Style Set 1 lookup 5 subtable" uniE004
AlternateSubs2: "'salt' Stylistic Alternatives lookup 4 subtable" uniE004
Substitution2: "'aalt' Access All Alternates lookup 0 subtable" uniE004
EndChar

StartChar: E
Encoding: 69 69 40
Width: 695
GlyphClass: 2
Flags: W
LayerCount: 2
Fore
SplineSet
99.0049022365 526.004902236 m 1,0,-1
 32 526.004902236 l 2,1,2
 21.6397587042 526.004902236 21.6397587042 526.004902236 14.3223304703 533.32233047 c 128,-1,3
 7.00490223649 540.639758704 7.00490223649 540.639758704 7.00490223649 551 c 2,4,-1
 7.00490223649 631 l 2,5,6
 7.00490223649 641.360241296 7.00490223649 641.360241296 14.3223304703 648.67766953 c 128,-1,7
 21.6397587042 655.995097764 21.6397587042 655.995097764 32 655.995097764 c 2,8,-1
 663 655.995097764 l 2,9,10
 673.360241296 655.995097764 673.360241296 655.995097764 680.67766953 648.67766953 c 128,-1,11
 687.995097764 641.360241296 687.995097764 641.360241296 687.995097764 631 c 2,12,-1
 687.995097764 491 l 2,13,14
 687.995097764 480.639758704 687.995097764 480.639758704 680.500117229 473.32232883 c 128,-1,15
 673.005136694 466.004898957 673.005136694 466.004898957 663 466.004902236 c 2,16,-1
 572 466.004902236 l 2,17,18
 561.639758704 466.004902236 561.639758704 466.004902236 554.32233047 473.32233047 c 128,-1,19
 547.004902236 480.639758704 547.004902236 480.639758704 547.004902236 491 c 2,20,-1
 547.004902236 526.004902236 l 1,21,-1
 239.995097764 526.004902236 l 1,22,-1
 239.995097764 421.995097764 l 1,23,-1
 552 421.995097764 l 2,24,25
 562.360241296 421.995097764 562.360241296 421.995097764 569.67766953 414.67766953 c 128,-1,26
 576.995097764 407.360241296 576.995097764 407.360241296 576.995097764 397 c 2,27,-1
 576.995097764 317 l 2,28,29
 576.995097764 306.639758704 576.995097764 306.639758704 569.500117229 299.32232883 c 128,-1,30
 562.005136694 292.004898957 562.005136694 292.004898957 552 292.004902236 c 2,31,-1
 239.995097764 292.004902236 l 1,32,-1
 239.995097764 133 l 2,33,34
 239.995097764 115.789162749 239.995097764 115.789162749 241.242294431 107.058786073 c 0,35,36
 243.924824606 104.995097764 243.924824606 104.995097764 269 104.995097764 c 2,37,-1
 518 104.995097764 l 2,38,39
 538.666004836 104.995097764 538.666004836 104.995097764 545.678847312 106.553532922 c 1,40,41
 547.004902236 115.789162749 547.004902236 115.789162749 547.004902236 133 c 2,42,-1
 547.004902236 193 l 2,43,44
 547.004902236 203.360241296 547.004902236 203.360241296 554.32233047 210.67766953 c 128,-1,45
 561.639758704 217.995097764 561.639758704 217.995097764 572 217.995097764 c 2,46,-1
 663 217.995097764 l 2,47,48
 673.360241296 217.995097764 673.360241296 217.995097764 680.67766953 210.67766953 c 128,-1,49
 687.995097764 203.360241296 687.995097764 203.360241296 687.995097764 193 c 2,50,-1
 687.995097764 116 l 2,51,52
 687.995097764 86.8466560874 687.995097764 86.8466560874 677.042511245 61.2906208771 c 128,-1,53
 666.089924726 35.7345856668 666.089924726 35.7345856668 646.67766953 16.3223304703 c 128,-1,54
 627.265414333 -3.08992472611 627.265414333 -3.08992472611 601.709379123 -14.0425112448 c 128,-1,55
 576.153343913 -24.9950977635 576.153343913 -24.9950977635 547 -24.9950977635 c 2,56,-1
 240 -24.9950977635 l 2,57,58
 210.846656087 -24.9950977635 210.846656087 -24.9950977635 185.290620877 -14.0425112448 c 128,-1,59
 159.734585667 -3.08992472611 159.734585667 -3.08992472611 140.32233047 16.3223304703 c 128,-1,60
 120.910075274 35.7345856668 120.910075274 35.7345856668 109.957488755 61.2906208771 c 128,-1,61
 99.0049022365 86.8466560874 99.0049022365 86.8466560874 99.0049022365 116 c 2,62,-1
 99.0049022365 292.004902236 l 1,63,-1
 32 292.004902236 l 2,64,65
 21.6397587042 292.004902236 21.6397587042 292.004902236 14.3223304703 299.32233047 c 128,-1,66
 7.00490223649 306.639758704 7.00490223649 306.639758704 7.00490223649 317 c 2,67,-1
 7.00490223649 397 l 2,68,69
 7.00490223649 407.360241296 7.00490223649 407.360241296 14.4998827713 414.67767117 c 128,-1,70
 21.9948633061 421.995101043 21.9948633061 421.995101043 32 421.995097764 c 2,71,-1
 99.0049022365 421.995097764 l 1,72,-1
 99.0049022365 526.004902236 l 1,0,-1
EndSplineSet
EndChar

StartChar: F
Encoding: 70 70 41
Width: 695
GlyphClass: 2
Flags: W
LayerCount: 2
Fore
SplineSet
99.0049022365 526.004902236 m 1,0,-1
 32 526.004902236 l 2,1,2
 21.6397587042 526.004902236 21.6397587042 526.004902236 14.3223304703 533.32233047 c 128,-1,3
 7.00490223649 540.639758704 7.00490223649 540.639758704 7.00490223649 551 c 2,4,-1
 7.00490223649 631 l 2,5,6
 7.00490223649 641.360241296 7.00490223649 641.360241296 14.3223304703 648.67766953 c 128,-1,7
 21.6397587042 655.995097764 21.6397587042 655.995097764 32 655.995097764 c 2,8,-1
 663 655.995097764 l 2,9,10
 673.360241296 655.995097764 673.360241296 655.995097764 680.67766953 648.67766953 c 128,-1,11
 687.995097764 641.360241296 687.995097764 641.360241296 687.995097764 631 c 2,12,-1
 687.995097764 491 l 2,13,14
 687.995097764 480.639758704 687.995097764 480.639758704 680.500117229 473.32232883 c 128,-1,15
 673.005136694 466.004898957 673.005136694 466.004898957 663 466.004902236 c 2,16,-1
 572 466.004902236 l 2,17,18
 561.639758704 466.004902236 561.639758704 466.004902236 554.32233047 473.32233047 c 128,-1,19
 547.004902236 480.639758704 547.004902236 480.639758704 547.004902236 491 c 2,20,-1
 547.004902236 526.004902236 l 1,21,-1
 239.995097764 526.004902236 l 1,22,-1
 239.995097764 421.995097764 l 1,23,-1
 552 421.995097764 l 2,24,25
 562.360241296 421.995097764 562.360241296 421.995097764 569.67766953 414.67766953 c 128,-1,26
 576.995097764 407.360241296 576.995097764 407.360241296 576.995097764 397 c 2,27,-1
 576.995097764 317 l 2,28,29
 576.995097764 306.639758704 576.995097764 306.639758704 569.500117229 299.32232883 c 128,-1,30
 562.005136694 292.004898957 562.005136694 292.004898957 552 292.004902236 c 2,31,-1
 239.995097764 292.004902236 l 1,32,-1
 239.995097764 -3.5527136788e-15 l 2,33,34
 239.995097764 -10.3602412958 239.995097764 -10.3602412958 232.500117229 -17.6776711696 c 128,-1,35
 225.005136694 -24.9951010433 225.005136694 -24.9951010433 215 -24.9950977635 c 2,36,-1
 124 -24.9950977635 l 2,37,38
 113.639758704 -24.9950977635 113.639758704 -24.9950977635 106.32232883 -17.5001172287 c 128,-1,39
 99.0048989567 -10.0051366939 99.0048989567 -10.0051366939 99.0049022365 3.5527136788e-15 c 2,40,-1
 99.0049022365 292.004902236 l 1,41,-1
 32 292.004902236 l 2,42,43
 21.6397587042 292.004902236 21.6397587042 292.004902236 14.3223304703 299.32233047 c 128,-1,44
 7.00490223649 306.639758704 7.00490223649 306.639758704 7.00490223649 317 c 2,45,-1
 7.00490223649 397 l 2,46,47
 7.00490223649 407.360241296 7.00490223649 407.360241296 14.4998827713 414.67767117 c 128,-1,48
 21.9948633061 421.995101043 21.9948633061 421.995101043 32 421.995097764 c 2,49,-1
 99.0049022365 421.995097764 l 1,50,-1
 99.0049022365 526.004902236 l 1,0,-1
EndSplineSet
EndChar

StartChar: G
Encoding: 71 71 42
Width: 695
GlyphClass: 2
Flags: W
LayerCount: 2
Fore
SplineSet
547.004902236 133 m 2,0,-1
 547.004902236 192.004902236 l 1,1,-1
 372 192.004902236 l 2,2,3
 361.639758704 192.004902236 361.639758704 192.004902236 354.32232883 199.499882771 c 128,-1,4
 347.004898957 206.994863306 347.004898957 206.994863306 347.004902236 217 c 2,5,-1
 347.004902236 297 l 2,6,7
 347.004902236 307.360241296 347.004902236 307.360241296 354.499882771 314.67767117 c 128,-1,8
 361.994863306 321.995101043 361.994863306 321.995101043 372 321.995097764 c 2,9,-1
 662 321.995097764 l 2,10,11
 672.360241296 321.995097764 672.360241296 321.995097764 679.67766953 314.67766953 c 128,-1,12
 686.937927401 307.417411658 686.937927401 307.417411658 686.994713372 297.139151017 c 2,13,-1
 687.995097764 116 l 2,14,15
 687.995097764 86.8466560874 687.995097764 86.8466560874 677.042511245 61.2906208771 c 128,-1,16
 666.089924726 35.7345856668 666.089924726 35.7345856668 646.67766953 16.3223304703 c 128,-1,17
 627.265414333 -3.08992472611 627.265414333 -3.08992472611 601.709379123 -14.0425112448 c 128,-1,18
 576.153343913 -24.9950977635 576.153343913 -24.9950977635 547 -24.9950977635 c 2,19,-1
 240 -24.9950977635 l 2,20,21
 210.846656087 -24.9950977635 210.846656087 -24.9950977635 185.290620877 -14.0425112448 c 128,-1,22
 159.734585667 -3.08992472611 159.734585667 -3.08992472611 140.32233047 16.3223304703 c 128,-1,23
 120.910075274 35.7345856668 120.910075274 35.7345856668 109.957488755 61.2906208771 c 128,-1,24
 99.0049022365 86.8466560874 99.0049022365 86.8466560874 99.0049022365 116 c 2,25,-1
 99.0049022365 526.004902236 l 1,26,-1
 32 526.004902236 l 2,27,28
 21.6397587042 526.004902236 21.6397587042 526.004902236 14.3223304703 533.32233047 c 128,-1,29
 7.00490223649 540.639758704 7.00490223649 540.639758704 7.00490223649 551 c 2,30,-1
 7.00490223649 631 l 2,31,32
 7.00490223649 641.360241296 7.00490223649 641.360241296 14.3223304703 648.67766953 c 128,-1,33
 21.6397587042 655.995097764 21.6397587042 655.995097764 32 655.995097764 c 2,34,-1
 663 655.995097764 l 2,35,36
 673.360241296 655.995097764 673.360241296 655.995097764 680.67766953 648.67766953 c 128,-1,37
 687.995097764 641.360241296 687.995097764 641.360241296 687.995097764 631 c 2,38,-1
 687.995097764 491 l 2,39,40
 687.995097764 480.639758704 687.995097764 480.639758704 680.500117229 473.32232883 c 128,-1,41
 673.005136694 466.004898957 673.005136694 466.004898957 663 466.004902236 c 2,42,-1
 572 466.004902236 l 2,43,44
 561.639758704 466.004902236 561.639758704 466.004902236 554.32233047 473.32233047 c 128,-1,45
 547.004902236 480.639758704 547.004902236 480.639758704 547.004902236 491 c 2,46,-1
 547.004902236 526.004902236 l 1,47,-1
 239.995097764 526.004902236 l 1,48,-1
 239.995097764 133 l 2,49,50
 239.995097764 115.789162749 239.995097764 115.789162749 241.242294431 107.058786073 c 0,51,52
 243.924824606 104.995097764 243.924824606 104.995097764 269 104.995097764 c 2,53,-1
 518 104.995097764 l 2,54,55
 538.666004836 104.995097764 538.666004836 104.995097764 545.678847312 106.553532922 c 1,56,57
 547.004902236 115.789162749 547.004902236 115.789162749 547.004902236 133 c 2,0,-1
EndSplineSet
EndChar

StartChar: H
Encoding: 72 72 43
Width: 787
GlyphClass: 2
Flags: W
LayerCount: 2
Fore
SplineSet
687.995097764 498 m 2,0,-1
 687.995097764 421.995097764 l 1,1,-1
 755 421.995097764 l 2,2,3
 765.360241296 421.995097764 765.360241296 421.995097764 772.67766953 414.67766953 c 128,-1,4
 779.995097764 407.360241296 779.995097764 407.360241296 779.995097764 397 c 2,5,-1
 779.995097764 317 l 2,6,7
 779.995097764 306.639758704 779.995097764 306.639758704 772.500117229 299.32232883 c 128,-1,8
 765.005136694 292.004898957 765.005136694 292.004898957 755 292.004902236 c 2,9,-1
 687.995097764 292.004902236 l 1,10,-1
 687.995097764 -3.5527136788e-15 l 2,11,12
 687.995097764 -10.3602412958 687.995097764 -10.3602412958 680.67766953 -17.6776695297 c 128,-1,13
 673.360241296 -24.9950977635 673.360241296 -24.9950977635 663 -24.9950977635 c 2,14,-1
 572 -24.9950977635 l 2,15,16
 561.639758704 -24.9950977635 561.639758704 -24.9950977635 554.32233047 -17.6776695297 c 128,-1,17
 547.004902236 -10.3602412958 547.004902236 -10.3602412958 547.004902236 3.5527136788e-15 c 2,18,-1
 547.004902236 292.004902236 l 1,19,-1
 239.995097764 292.004902236 l 1,20,-1
 239.995097764 116 l 2,21,22
 239.995097764 86.8466560874 239.995097764 86.8466560874 229.042511245 61.2906208771 c 128,-1,23
 218.089924726 35.7345856668 218.089924726 35.7345856668 198.67766953 16.3223304703 c 128,-1,24
 179.265414333 -3.08992472611 179.265414333 -3.08992472611 153.709379123 -14.0425112448 c 128,-1,25
 128.153343913 -24.9950977635 128.153343913 -24.9950977635 99 -24.9950977635 c 2,26,-1
 32 -24.9950977635 l 2,27,28
 21.6397587042 -24.9950977635 21.6397587042 -24.9950977635 14.3223288304 -17.5001172287 c 128,-1,29
 7.00489895668 -10.0051366939 7.00489895668 -10.0051366939 7.00490223649 3.5527136788e-15 c 2,30,-1
 7.00490223649 80 l 2,31,32
 7.00490223649 90.3602412958 7.00490223649 90.3602412958 14.4998827713 97.6776711696 c 128,-1,33
 21.9948633061 104.995101043 21.9948633061 104.995101043 32 104.995097764 c 2,34,-1
 70 104.995097764 l 2,35,36
 90.6660048362 104.995097764 90.6660048362 104.995097764 97.6788473118 106.553532922 c 1,37,38
 99.0049022365 115.789162749 99.0049022365 115.789162749 99.0049022365 133 c 2,39,-1
 99.0049022365 292.004902236 l 1,40,-1
 32 292.004902236 l 2,41,42
 21.6397587042 292.004902236 21.6397587042 292.004902236 14.3223304703 299.32233047 c 128,-1,43
 7.00490223649 306.639758704 7.00490223649 306.639758704 7.00490223649 317 c 2,44,-1
 7.00490223649 397 l 2,45,46
 7.00490223649 407.360241296 7.00490223649 407.360241296 14.4998827713 414.67767117 c 128,-1,47
 21.9948633061 421.995101043 21.9948633061 421.995101043 32 421.995097764 c 2,48,-1
 99.0049022365 421.995097764 l 1,49,-1
 99.0049022365 631 l 2,50,51
 99.0049022365 641.360241296 99.0049022365 641.360241296 106.32233047 648.67766953 c 128,-1,52
 113.639758704 655.995097764 113.639758704 655.995097764 124 655.995097764 c 2,53,-1
 215 655.995097764 l 2,54,55
 225.360241296 655.995097764 225.360241296 655.995097764 232.67766953 648.67766953 c 128,-1,56
 239.995097764 641.360241296 239.995097764 641.360241296 239.995097764 631 c 2,57,-1
 239.995097764 421.995097764 l 1,58,-1
 547.004902236 421.995097764 l 1,59,-1
 547.004902236 515 l 2,60,61
 547.004902236 544.153343913 547.004902236 544.153343913 557.916959435 569.61481071 c 0,62,63
 569.299272955 596.173542255 569.299272955 596.173542255 588.468930918 615.343350483 c 128,-1,64
 607.638588882 634.51315871 607.638588882 634.51315871 633.29757164 645.254128237 c 128,-1,65
 658.956554398 655.995097764 658.956554398 655.995097764 688 655.995097764 c 2,66,-1
 755 655.995097764 l 2,67,68
 765.360241296 655.995097764 765.360241296 655.995097764 772.67766953 648.67766953 c 128,-1,69
 779.995097764 641.360241296 779.995097764 641.360241296 779.995097764 631 c 2,70,-1
 779.995097764 551 l 2,71,72
 779.995097764 540.639758704 779.995097764 540.639758704 772.67766953 533.32233047 c 128,-1,73
 765.360241296 526.004902236 765.360241296 526.004902236 755 526.004902236 c 2,74,-1
 717 526.004902236 l 2,75,76
 697.674628227 526.004902236 697.674628227 526.004902236 689.437782845 525.071761784 c 1,77,78
 687.995097764 518.082499493 687.995097764 518.082499493 687.995097764 498 c 2,0,-1
EndSplineSet
EndChar

StartChar: I
Encoding: 73 73 44
Width: 596
GlyphClass: 2
Flags: W
LayerCount: 2
Fore
SplineSet
227.004902236 526.004902236 m 1,0,-1
 32 526.004902236 l 2,1,2
 21.6397587042 526.004902236 21.6397587042 526.004902236 14.3223304703 533.32233047 c 128,-1,3
 7.00490223649 540.639758704 7.00490223649 540.639758704 7.00490223649 551 c 2,4,-1
 7.00490223649 631 l 2,5,6
 7.00490223649 641.360241296 7.00490223649 641.360241296 14.3223304703 648.67766953 c 128,-1,7
 21.6397587042 655.995097764 21.6397587042 655.995097764 32 655.995097764 c 2,8,-1
 564 655.995097764 l 2,9,10
 574.360241296 655.995097764 574.360241296 655.995097764 581.67766953 648.67766953 c 128,-1,11
 588.995097764 641.360241296 588.995097764 641.360241296 588.995097764 631 c 2,12,-1
 588.995097764 551 l 2,13,14
 588.995097764 540.639758704 588.995097764 540.639758704 581.67766953 533.32233047 c 128,-1,15
 574.360241296 526.004902236 574.360241296 526.004902236 564 526.004902236 c 2,16,-1
 368.995097764 526.004902236 l 1,17,-1
 368.995097764 104.995097764 l 1,18,-1
 564 104.995097764 l 2,19,20
 574.360241296 104.995097764 574.360241296 104.995097764 581.67766953 97.6776695297 c 128,-1,21
 588.995097764 90.3602412958 588.995097764 90.3602412958 588.995097764 80 c 2,22,-1
 588.995097764 -3.5527136788e-15 l 2,23,24
 588.995097764 -10.3602412958 588.995097764 -10.3602412958 581.67766953 -17.6776695297 c 128,-1,25
 574.360241296 -24.9950977635 574.360241296 -24.9950977635 564 -24.9950977635 c 2,26,-1
 32 -24.9950977635 l 2,27,28
 21.6397587042 -24.9950977635 21.6397587042 -24.9950977635 14.3223288304 -17.5001172287 c 128,-1,29
 7.00489895668 -10.0051366939 7.00489895668 -10.0051366939 7.00490223649 3.5527136788e-15 c 2,30,-1
 7.00490223649 80 l 2,31,32
 7.00490223649 90.3602412958 7.00490223649 90.3602412958 14.4998827713 97.6776711696 c 128,-1,33
 21.9948633061 104.995101043 21.9948633061 104.995101043 32 104.995097764 c 2,34,-1
 227.004902236 104.995097764 l 1,35,-1
 227.004902236 526.004902236 l 1,0,-1
EndSplineSet
EndChar

StartChar: J
Encoding: 74 74 45
Width: 604
GlyphClass: 2
Flags: W
LayerCount: 2
Fore
SplineSet
596.995097764 551 m 2,0,1
 596.995097764 540.639758704 596.995097764 540.639758704 589.67766953 533.32233047 c 128,-1,2
 582.360241296 526.004902236 582.360241296 526.004902236 572 526.004902236 c 2,3,-1
 484.995097764 526.004902236 l 1,4,-1
 484.995097764 116 l 2,5,6
 484.995097764 86.8466560874 484.995097764 86.8466560874 474.042511245 61.2906208771 c 128,-1,7
 463.089924726 35.7345856668 463.089924726 35.7345856668 443.67766953 16.3223304703 c 128,-1,8
 424.265414333 -3.08992472611 424.265414333 -3.08992472611 398.709379123 -14.0425112448 c 128,-1,9
 373.153343913 -24.9950977635 373.153343913 -24.9950977635 344 -24.9950977635 c 2,10,-1
 32 -24.9950977635 l 2,11,12
 21.6397587042 -24.9950977635 21.6397587042 -24.9950977635 14.3223288304 -17.5001172287 c 128,-1,13
 7.00489895668 -10.0051366939 7.00489895668 -10.0051366939 7.00490223649 3.5527136788e-15 c 2,14,-1
 7.00490223649 193 l 2,15,16
 7.00490223649 203.360241296 7.00490223649 203.360241296 14.3223304703 210.67766953 c 128,-1,17
 21.6397587042 217.995097764 21.6397587042 217.995097764 32 217.995097764 c 2,18,-1
 124 217.995097764 l 2,19,20
 134.360241296 217.995097764 134.360241296 217.995097764 141.67766953 210.67766953 c 128,-1,21
 148.995097764 203.360241296 148.995097764 203.360241296 148.995097764 193 c 2,22,-1
 148.995097764 104.995097764 l 1,23,-1
 315 104.995097764 l 2,24,25
 334.386956727 104.995097764 334.386956727 104.995097764 342.068195334 106.425146151 c 1,26,27
 343.004902236 114.081954387 343.004902236 114.081954387 343.004902236 134 c 2,28,-1
 343.004902236 526.004902236 l 1,29,-1
 32 526.004902236 l 2,30,31
 21.6397587042 526.004902236 21.6397587042 526.004902236 14.3223304703 533.32233047 c 128,-1,32
 7.00490223649 540.639758704 7.00490223649 540.639758704 7.00490223649 551 c 2,33,-1
 7.00490223649 631 l 2,34,35
 7.00490223649 641.360241296 7.00490223649 641.360241296 14.3223304703 648.67766953 c 128,-1,36
 21.6397587042 655.995097764 21.6397587042 655.995097764 32 655.995097764 c 2,37,-1
 572 655.995097764 l 2,38,39
 582.360241296 655.995097764 582.360241296 655.995097764 589.67766953 648.67766953 c 128,-1,40
 596.995097764 641.360241296 596.995097764 641.360241296 596.995097764 631 c 2,41,-1
 596.995097764 551 l 2,0,1
343.705254728 106.88943686 m 1,42,-1
 343.705254728 106.88943686 l 1,42,-1
EndSplineSet
EndChar

StartChar: K
Encoding: 75 75 46
Width: 695
GlyphClass: 2
Flags: W
LayerCount: 2
Fore
SplineSet
99.0049022365 631 m 2,0,1
 99.0049022365 641.360241296 99.0049022365 641.360241296 106.32233047 648.67766953 c 128,-1,2
 113.639758704 655.995097764 113.639758704 655.995097764 124 655.995097764 c 2,3,-1
 216 655.995097764 l 2,4,5
 226.360241296 655.995097764 226.360241296 655.995097764 233.67766953 648.67766953 c 128,-1,6
 240.995097764 641.360241296 240.995097764 641.360241296 240.995097764 631 c 2,7,-1
 240.995097764 321.995097764 l 1,8,-1
 518 321.995097764 l 2,9,10
 538.666004836 321.995097764 538.666004836 321.995097764 545.678847312 323.553532922 c 1,11,12
 547.004902236 332.789162749 547.004902236 332.789162749 547.004902236 350 c 2,13,-1
 547.004902236 631 l 2,14,15
 547.004902236 641.360241296 547.004902236 641.360241296 554.32233047 648.67766953 c 128,-1,16
 561.639758704 655.995097764 561.639758704 655.995097764 572 655.995097764 c 2,17,-1
 663 655.995097764 l 2,18,19
 673.360241296 655.995097764 673.360241296 655.995097764 680.67766953 648.67766953 c 128,-1,20
 687.995097764 641.360241296 687.995097764 641.360241296 687.995097764 631 c 2,21,-1
 687.995097764 333 l 2,22,23
 687.995097764 303.846656087 687.995097764 303.846656087 677.042511245 278.290620877 c 128,-1,24
 666.089924726 252.734585667 666.089924726 252.734585667 646.67766953 233.32233047 c 128,-1,25
 627.265414333 213.910075274 627.265414333 213.910075274 601.709379123 202.957488755 c 128,-1,26
 576.153343913 192.004902236 576.153343913 192.004902236 547 192.004902236 c 2,27,-1
 526.995097764 192.004902236 l 1,28,-1
 526.995097764 134 l 2,29,30
 526.995097764 113.676645016 526.995097764 113.676645016 528.504389234 106.531614931 c 1,31,32
 534.980335951 104.995097764 534.980335951 104.995097764 556 104.995097764 c 2,33,-1
 663 104.995097764 l 2,34,35
 673.360241296 104.995097764 673.360241296 104.995097764 680.67766953 97.6776695297 c 128,-1,36
 687.995097764 90.3602412958 687.995097764 90.3602412958 687.995097764 80 c 2,37,-1
 687.995097764 -3.5527136788e-15 l 2,38,39
 687.995097764 -10.3602412958 687.995097764 -10.3602412958 680.67766953 -17.6776695297 c 128,-1,40
 673.360241296 -24.9950977635 673.360241296 -24.9950977635 663 -24.9950977635 c 2,41,-1
 526 -24.9950977635 l 2,42,43
 496.846656087 -24.9950977635 496.846656087 -24.9950977635 471.710620877 -14.2225112448 c 0,44,45
 445.544019086 -3.00825333428 445.544019086 -3.00825333428 426.68651786 16.4577345795 c 128,-1,46
 407.829016634 35.9237224932 407.829016634 35.9237224932 396.916959435 61.3851892903 c 128,-1,47
 386.004902236 86.8466560874 386.004902236 86.8466560874 386.004902236 116 c 2,48,-1
 386.004902236 192.004902236 l 1,49,-1
 240.995097764 192.004902236 l 1,50,-1
 240.995097764 -3.5527136788e-15 l 2,51,52
 240.995097764 -10.3602412958 240.995097764 -10.3602412958 233.500117229 -17.6776711696 c 128,-1,53
 226.005136694 -24.9951010433 226.005136694 -24.9951010433 216 -24.9950977635 c 2,54,-1
 124 -24.9950977635 l 2,55,56
 113.639758704 -24.9950977635 113.639758704 -24.9950977635 106.32232883 -17.5001172287 c 128,-1,57
 99.0048989567 -10.0051366939 99.0048989567 -10.0051366939 99.0049022365 3.5527136788e-15 c 2,58,-1
 99.0049022365 192.004902236 l 1,59,-1
 32 192.004902236 l 2,60,61
 21.6397587042 192.004902236 21.6397587042 192.004902236 14.3223288304 199.499882771 c 128,-1,62
 7.00489895668 206.994863306 7.00489895668 206.994863306 7.00490223649 217 c 2,63,-1
 7.00490223649 297 l 2,64,65
 7.00490223649 307.360241296 7.00490223649 307.360241296 14.3223304703 314.67766953 c 128,-1,66
 21.6397587042 321.995097764 21.6397587042 321.995097764 32 321.995097764 c 2,67,-1
 99.0049022365 321.995097764 l 1,68,-1
 99.0049022365 631 l 2,0,1
528.88943686 105.294745272 m 1,69,-1
 528.88943686 105.294745272 l 1,69,-1
EndSplineSet
EndChar

StartChar: L
Encoding: 76 76 47
Width: 695
GlyphClass: 2
Flags: W
LayerCount: 2
Fore
SplineSet
687.995097764 116 m 2,0,1
 687.995097764 86.8466560874 687.995097764 86.8466560874 677.042511245 61.2906208771 c 128,-1,2
 666.089924726 35.7345856668 666.089924726 35.7345856668 646.67766953 16.3223304703 c 128,-1,3
 627.265414333 -3.08992472611 627.265414333 -3.08992472611 601.709379123 -14.0425112448 c 128,-1,4
 576.153343913 -24.9950977635 576.153343913 -24.9950977635 547 -24.9950977635 c 2,5,-1
 32 -24.9950977635 l 2,6,7
 21.6397587042 -24.9950977635 21.6397587042 -24.9950977635 14.3223288304 -17.5001172287 c 128,-1,8
 7.00489895668 -10.0051366939 7.00489895668 -10.0051366939 7.00490223649 3.5527136788e-15 c 2,9,-1
 7.00490223649 80 l 2,10,11
 7.00490223649 90.3602412958 7.00490223649 90.3602412958 14.4998827713 97.6776711696 c 128,-1,12
 21.9948633061 104.995101043 21.9948633061 104.995101043 32 104.995097764 c 2,13,-1
 99.0049022365 104.995097764 l 1,14,-1
 99.0049022365 526.004902236 l 1,15,-1
 32 526.004902236 l 2,16,17
 21.6397587042 526.004902236 21.6397587042 526.004902236 14.3223304703 533.32233047 c 128,-1,18
 7.00490223649 540.639758704 7.00490223649 540.639758704 7.00490223649 551 c 2,19,-1
 7.00490223649 631 l 2,20,21
 7.00490223649 641.360241296 7.00490223649 641.360241296 14.3223304703 648.67766953 c 128,-1,22
 21.6397587042 655.995097764 21.6397587042 655.995097764 32 655.995097764 c 2,23,-1
 307 655.995097764 l 2,24,25
 317.360241296 655.995097764 317.360241296 655.995097764 324.67767117 648.500117229 c 128,-1,26
 331.995101043 641.005136694 331.995101043 641.005136694 331.995097764 631 c 2,27,-1
 331.995097764 551 l 2,28,29
 331.995097764 540.639758704 331.995097764 540.639758704 324.67766953 533.32233047 c 128,-1,30
 317.360241296 526.004902236 317.360241296 526.004902236 307 526.004902236 c 2,31,-1
 239.995097764 526.004902236 l 1,32,-1
 239.995097764 104.995097764 l 1,33,-1
 518 104.995097764 l 2,34,35
 538.323354984 104.995097764 538.323354984 104.995097764 545.468385069 106.504389234 c 1,36,37
 547.004902236 112.980335951 547.004902236 112.980335951 547.004902236 134 c 2,38,-1
 547.004902236 193 l 2,39,40
 547.004902236 203.360241296 547.004902236 203.360241296 554.32233047 210.67766953 c 128,-1,41
 561.639758704 217.995097764 561.639758704 217.995097764 572 217.995097764 c 2,42,-1
 663 217.995097764 l 2,43,44
 673.360241296 217.995097764 673.360241296 217.995097764 680.67766953 210.67766953 c 128,-1,45
 687.995097764 203.360241296 687.995097764 203.360241296 687.995097764 193 c 2,46,-1
 687.995097764 116 l 2,0,1
546.705254728 106.88943686 m 1,47,-1
 546.705254728 106.88943686 l 1,47,-1
EndSplineSet
EndChar

StartChar: M
Encoding: 77 77 48
Width: 859
GlyphClass: 2
Flags: W
LayerCount: 2
Fore
SplineSet
851.995097764 515 m 2,0,-1
 851.995097764 -3.5527136788e-15 l 2,1,2
 851.995097764 -10.3602412958 851.995097764 -10.3602412958 844.67766953 -17.6776695297 c 128,-1,3
 837.360241296 -24.9950977635 837.360241296 -24.9950977635 827 -24.9950977635 c 2,4,-1
 736 -24.9950977635 l 2,5,6
 725.639758704 -24.9950977635 725.639758704 -24.9950977635 718.32233047 -17.6776695297 c 128,-1,7
 711.004902236 -10.3602412958 711.004902236 -10.3602412958 711.004902236 3.5527136788e-15 c 2,8,-1
 711.004902236 498 l 2,9,10
 711.004902236 517.386956727 711.004902236 517.386956727 709.574853849 525.068195334 c 1,11,12
 701.918045613 526.004902236 701.918045613 526.004902236 682 526.004902236 c 2,13,-1
 545.995097764 526.004902236 l 1,14,-1
 545.995097764 1 l 2,15,16
 545.995097764 -9.36024129582 545.995097764 -9.36024129582 538.67766953 -16.6776695297 c 128,-1,17
 531.360241296 -23.9950977635 531.360241296 -23.9950977635 521 -23.9950977635 c 2,18,-1
 430 -23.9950977635 l 2,19,20
 419.639758704 -23.9950977635 419.639758704 -23.9950977635 412.32232883 -16.5001172287 c 128,-1,21
 405.004898957 -9.00513669392 405.004898957 -9.00513669392 405.004902236 1 c 2,22,-1
 405.004902236 526.004902236 l 1,23,-1
 239.995097764 526.004902236 l 1,24,-1
 239.995097764 -3.5527136788e-15 l 2,25,26
 239.995097764 -10.3602412958 239.995097764 -10.3602412958 232.500117229 -17.6776711696 c 128,-1,27
 225.005136694 -24.9951010433 225.005136694 -24.9951010433 215 -24.9950977635 c 2,28,-1
 124 -24.9950977635 l 2,29,30
 113.639758704 -24.9950977635 113.639758704 -24.9950977635 106.32232883 -17.5001172287 c 128,-1,31
 99.0048989567 -10.0051366939 99.0048989567 -10.0051366939 99.0049022365 3.5527136788e-15 c 2,32,-1
 99.0049022365 526.004902236 l 1,33,-1
 32 526.004902236 l 2,34,35
 21.6397587042 526.004902236 21.6397587042 526.004902236 14.3223304703 533.32233047 c 128,-1,36
 7.00490223649 540.639758704 7.00490223649 540.639758704 7.00490223649 551 c 2,37,-1
 7.00490223649 631 l 2,38,39
 7.00490223649 641.360241296 7.00490223649 641.360241296 14.3223304703 648.67766953 c 128,-1,40
 21.6397587042 655.995097764 21.6397587042 655.995097764 32 655.995097764 c 2,41,-1
 711 655.995097764 l 2,42,43
 740.153343913 655.995097764 740.153343913 655.995097764 765.709379123 645.042511245 c 128,-1,44
 791.265414333 634.089924726 791.265414333 634.089924726 810.67766953 614.67766953 c 128,-1,45
 830.089924726 595.265414333 830.089924726 595.265414333 841.042511245 569.709379123 c 128,-1,46
 851.995097764 544.153343913 851.995097764 544.153343913 851.995097764 515 c 2,0,-1
709.11056314 526.705254728 m 1,47,-1
 709.11056314 526.705254728 l 1,47,-1
EndSplineSet
EndChar

StartChar: N
Encoding: 78 78 49
Width: 695
GlyphClass: 2
Flags: W
LayerCount: 2
Fore
SplineSet
687.995097764 515 m 2,0,-1
 687.995097764 -3.5527136788e-15 l 2,1,2
 687.995097764 -10.3602412958 687.995097764 -10.3602412958 680.67766953 -17.6776695297 c 128,-1,3
 673.360241296 -24.9950977635 673.360241296 -24.9950977635 663 -24.9950977635 c 2,4,-1
 572 -24.9950977635 l 2,5,6
 561.639758704 -24.9950977635 561.639758704 -24.9950977635 554.32233047 -17.6776695297 c 128,-1,7
 547.004902236 -10.3602412958 547.004902236 -10.3602412958 547.004902236 3.5527136788e-15 c 2,8,-1
 547.004902236 498 l 2,9,10
 547.004902236 517.386956727 547.004902236 517.386956727 545.574853849 525.068195334 c 1,11,12
 537.918045613 526.004902236 537.918045613 526.004902236 518 526.004902236 c 2,13,-1
 239.995097764 526.004902236 l 1,14,-1
 239.995097764 -3.5527136788e-15 l 2,15,16
 239.995097764 -10.3602412958 239.995097764 -10.3602412958 232.500117229 -17.6776711696 c 128,-1,17
 225.005136694 -24.9951010433 225.005136694 -24.9951010433 215 -24.9950977635 c 2,18,-1
 124 -24.9950977635 l 2,19,20
 113.639758704 -24.9950977635 113.639758704 -24.9950977635 106.32232883 -17.5001172287 c 128,-1,21
 99.0048989567 -10.0051366939 99.0048989567 -10.0051366939 99.0049022365 3.5527136788e-15 c 2,22,-1
 99.0049022365 526.004902236 l 1,23,-1
 32 526.004902236 l 2,24,25
 21.6397587042 526.004902236 21.6397587042 526.004902236 14.3223304703 533.32233047 c 128,-1,26
 7.00490223649 540.639758704 7.00490223649 540.639758704 7.00490223649 551 c 2,27,-1
 7.00490223649 631 l 2,28,29
 7.00490223649 641.360241296 7.00490223649 641.360241296 14.3223304703 648.67766953 c 128,-1,30
 21.6397587042 655.995097764 21.6397587042 655.995097764 32 655.995097764 c 2,31,-1
 547 655.995097764 l 2,32,33
 576.153343913 655.995097764 576.153343913 655.995097764 601.709379123 645.042511245 c 128,-1,34
 627.265414333 634.089924726 627.265414333 634.089924726 646.67766953 614.67766953 c 128,-1,35
 666.089924726 595.265414333 666.089924726 595.265414333 677.042511245 569.709379123 c 128,-1,36
 687.995097764 544.153343913 687.995097764 544.153343913 687.995097764 515 c 2,0,-1
545.11056314 526.705254728 m 1,37,-1
 545.11056314 526.705254728 l 1,37,-1
EndSplineSet
EndChar

StartChar: O
Encoding: 79 79 50
Width: 695
GlyphClass: 2
Flags: W
LayerCount: 2
Fore
SplineSet
414.004902236 259.995097764 m 1,0,-1
 414.004902236 372.004902236 l 1,1,-1
 371.995097764 372.004902236 l 1,2,-1
 371.995097764 259.995097764 l 1,3,-1
 414.004902236 259.995097764 l 1,0,-1
547 -24.9950977635 m 2,4,-1
 240 -24.9950977635 l 2,5,6
 210.846656087 -24.9950977635 210.846656087 -24.9950977635 185.290620877 -14.0425112448 c 128,-1,7
 159.734585667 -3.08992472611 159.734585667 -3.08992472611 140.32233047 16.3223304703 c 128,-1,8
 120.910075274 35.7345856668 120.910075274 35.7345856668 109.957488755 61.2906208771 c 128,-1,9
 99.0049022365 86.8466560874 99.0049022365 86.8466560874 99.0049022365 116 c 2,10,-1
 99.0049022365 526.004902236 l 1,11,-1
 32 526.004902236 l 2,12,13
 21.6397587042 526.004902236 21.6397587042 526.004902236 14.3223304703 533.32233047 c 128,-1,14
 7.00490223649 540.639758704 7.00490223649 540.639758704 7.00490223649 551 c 2,15,-1
 7.00490223649 631 l 2,16,17
 7.00490223649 641.360241296 7.00490223649 641.360241296 14.3223304703 648.67766953 c 128,-1,18
 21.6397587042 655.995097764 21.6397587042 655.995097764 32 655.995097764 c 2,19,-1
 663 655.995097764 l 2,20,21
 673.360241296 655.995097764 673.360241296 655.995097764 680.67766953 648.67766953 c 128,-1,22
 687.995097764 641.360241296 687.995097764 641.360241296 687.995097764 631 c 2,23,-1
 687.995097764 116 l 2,24,25
 687.995097764 86.8466560874 687.995097764 86.8466560874 677.042511245 61.2906208771 c 128,-1,26
 666.089924726 35.7345856668 666.089924726 35.7345856668 646.67766953 16.3223304703 c 128,-1,27
 627.265414333 -3.08992472611 627.265414333 -3.08992472611 601.709379123 -14.0425112448 c 128,-1,28
 576.153343913 -24.9950977635 576.153343913 -24.9950977635 547 -24.9950977635 c 2,4,-1
547.004902236 133 m 2,29,-1
 547.004902236 526.004902236 l 1,30,-1
 239.995097764 526.004902236 l 1,31,-1
 239.995097764 133 l 2,32,33
 239.995097764 115.789162749 239.995097764 115.789162749 241.242294431 107.058786073 c 0,34,35
 243.88429581 104.995097764 243.88429581 104.995097764 269 104.995097764 c 2,36,-1
 518 104.995097764 l 2,37,38
 538.744509821 104.995097764 538.744509821 104.995097764 545.680945345 106.557791272 c 1,39,40
 547.004902236 115.789162749 547.004902236 115.789162749 547.004902236 133 c 2,29,-1
EndSplineSet
Substitution2: "Single Substitution lookup 7 subtable" ordmasculine
Substitution2: "'ss01' Style Set 1 lookup 5 subtable" uniE014
AlternateSubs2: "'salt' Stylistic Alternatives lookup 4 subtable" uniE014
Substitution2: "'aalt' Access All Alternates lookup 0 subtable" uniE014
EndChar

StartChar: P
Encoding: 80 80 51
Width: 695
GlyphClass: 2
Flags: W
LayerCount: 2
Fore
SplineSet
687.995097764 333 m 2,0,1
 687.995097764 303.846656087 687.995097764 303.846656087 677.042511245 278.290620877 c 128,-1,2
 666.089924726 252.734585667 666.089924726 252.734585667 646.67766953 233.32233047 c 128,-1,3
 627.265414333 213.910075274 627.265414333 213.910075274 601.709379123 202.957488755 c 128,-1,4
 576.153343913 192.004902236 576.153343913 192.004902236 547 192.004902236 c 2,5,-1
 239.995097764 192.004902236 l 1,6,-1
 239.995097764 -3.5527136788e-15 l 2,7,8
 239.995097764 -10.3602412958 239.995097764 -10.3602412958 232.500117229 -17.6776711696 c 128,-1,9
 225.005136694 -24.9951010433 225.005136694 -24.9951010433 215 -24.9950977635 c 2,10,-1
 124 -24.9950977635 l 2,11,12
 113.639758704 -24.9950977635 113.639758704 -24.9950977635 106.32232883 -17.5001172287 c 128,-1,13
 99.0048989567 -10.0051366939 99.0048989567 -10.0051366939 99.0049022365 3.5527136788e-15 c 2,14,-1
 99.0049022365 192.004902236 l 1,15,-1
 32 192.004902236 l 2,16,17
 21.6397587042 192.004902236 21.6397587042 192.004902236 14.3223288304 199.499882771 c 128,-1,18
 7.00489895668 206.994863306 7.00489895668 206.994863306 7.00490223649 217 c 2,19,-1
 7.00490223649 297 l 2,20,21
 7.00490223649 307.360241296 7.00490223649 307.360241296 14.3223304703 314.67766953 c 128,-1,22
 21.6397587042 321.995097764 21.6397587042 321.995097764 32 321.995097764 c 2,23,-1
 99.0049022365 321.995097764 l 1,24,-1
 99.0049022365 526.004902236 l 1,25,-1
 32 526.004902236 l 2,26,27
 21.6397587042 526.004902236 21.6397587042 526.004902236 14.3223304703 533.32233047 c 128,-1,28
 7.00490223649 540.639758704 7.00490223649 540.639758704 7.00490223649 551 c 2,29,-1
 7.00490223649 631 l 2,30,31
 7.00490223649 641.360241296 7.00490223649 641.360241296 14.3223304703 648.67766953 c 128,-1,32
 21.6397587042 655.995097764 21.6397587042 655.995097764 32 655.995097764 c 2,33,-1
 663 655.995097764 l 2,34,35
 673.360241296 655.995097764 673.360241296 655.995097764 680.67766953 648.67766953 c 128,-1,36
 687.995097764 641.360241296 687.995097764 641.360241296 687.995097764 631 c 2,37,-1
 687.995097764 333 l 2,0,1
547.004902236 350 m 2,38,-1
 547.004902236 526.004902236 l 1,39,-1
 239.995097764 526.004902236 l 1,40,-1
 239.995097764 321.995097764 l 1,41,-1
 518 321.995097764 l 2,42,43
 538.744509821 321.995097764 538.744509821 321.995097764 545.680945345 323.557791272 c 1,44,45
 547.004902236 332.789162749 547.004902236 332.789162749 547.004902236 350 c 2,38,-1
EndSplineSet
Substitution2: "'ss01' Style Set 1 lookup 5 subtable" uniE015
AlternateSubs2: "'salt' Stylistic Alternatives lookup 4 subtable" uniE015
Substitution2: "'aalt' Access All Alternates lookup 0 subtable" uniE015
EndChar

StartChar: Q
Encoding: 81 81 52
Width: 695
GlyphClass: 2
Flags: W
LayerCount: 2
Fore
SplineSet
463.995097764 -24.9950977635 m 1,0,-1
 463.995097764 -74 l 2,1,2
 463.995097764 -84.3602412958 463.995097764 -84.3602412958 456.500117229 -91.6776711696 c 128,-1,3
 449.005136694 -98.9951010433 449.005136694 -98.9951010433 439 -98.9950977635 c 2,4,-1
 347 -98.9950977635 l 2,5,6
 336.639758704 -98.9950977635 336.639758704 -98.9950977635 329.32232883 -91.5001172287 c 128,-1,7
 322.004898957 -84.0051366939 322.004898957 -84.0051366939 322.004902236 -74 c 2,8,-1
 322.004902236 -24.9950977635 l 1,9,-1
 240 -24.9950977635 l 2,10,11
 210.846656087 -24.9950977635 210.846656087 -24.9950977635 185.290620877 -14.0425112448 c 128,-1,12
 159.734585667 -3.08992472611 159.734585667 -3.08992472611 140.32233047 16.3223304703 c 128,-1,13
 120.910075274 35.7345856668 120.910075274 35.7345856668 109.957488755 61.2906208771 c 128,-1,14
 99.0049022365 86.8466560874 99.0049022365 86.8466560874 99.0049022365 116 c 2,15,-1
 99.0049022365 526.004902236 l 1,16,-1
 32 526.004902236 l 2,17,18
 21.6397587042 526.004902236 21.6397587042 526.004902236 14.3223304703 533.32233047 c 128,-1,19
 7.00490223649 540.639758704 7.00490223649 540.639758704 7.00490223649 551 c 2,20,-1
 7.00490223649 631 l 2,21,22
 7.00490223649 641.360241296 7.00490223649 641.360241296 14.3223304703 648.67766953 c 128,-1,23
 21.6397587042 655.995097764 21.6397587042 655.995097764 32 655.995097764 c 2,24,-1
 663 655.995097764 l 2,25,26
 673.360241296 655.995097764 673.360241296 655.995097764 680.67766953 648.67766953 c 128,-1,27
 687.995097764 641.360241296 687.995097764 641.360241296 687.995097764 631 c 2,28,-1
 687.995097764 116 l 2,29,30
 687.995097764 86.8466560874 687.995097764 86.8466560874 677.042511245 61.2906208771 c 128,-1,31
 666.089924726 35.7345856668 666.089924726 35.7345856668 646.67766953 16.3223304703 c 128,-1,32
 627.265414333 -3.08992472611 627.265414333 -3.08992472611 601.709379123 -14.0425112448 c 128,-1,33
 576.153343913 -24.9950977635 576.153343913 -24.9950977635 547 -24.9950977635 c 2,34,-1
 463.995097764 -24.9950977635 l 1,0,-1
547.004902236 133 m 2,35,-1
 547.004902236 526.004902236 l 1,36,-1
 239.995097764 526.004902236 l 1,37,-1
 239.995097764 133 l 2,38,39
 239.995097764 115.789162749 239.995097764 115.789162749 241.242294431 107.058786073 c 0,40,41
 243.88429581 104.995097764 243.88429581 104.995097764 269 104.995097764 c 2,42,-1
 518 104.995097764 l 2,43,44
 538.744509821 104.995097764 538.744509821 104.995097764 545.680945345 106.557791272 c 1,45,46
 547.004902236 115.789162749 547.004902236 115.789162749 547.004902236 133 c 2,35,-1
371.995097764 372.004902236 m 1,47,-1
 371.995097764 259.995097764 l 1,48,-1
 414.004902236 259.995097764 l 1,49,-1
 414.004902236 372.004902236 l 1,50,-1
 371.995097764 372.004902236 l 1,47,-1
EndSplineSet
Substitution2: "'ss01' Style Set 1 lookup 5 subtable" uniE016
AlternateSubs2: "'salt' Stylistic Alternatives lookup 4 subtable" uniE016
Substitution2: "'aalt' Access All Alternates lookup 0 subtable" uniE016
EndChar

StartChar: R
Encoding: 82 82 53
Width: 695
GlyphClass: 2
Flags: W
LayerCount: 2
Fore
SplineSet
526.995097764 134 m 2,0,1
 526.995097764 113.676645016 526.995097764 113.676645016 528.504389234 106.531614931 c 1,2,3
 534.980335951 104.995097764 534.980335951 104.995097764 556 104.995097764 c 2,4,-1
 663 104.995097764 l 2,5,6
 673.360241296 104.995097764 673.360241296 104.995097764 680.67766953 97.6776695297 c 128,-1,7
 687.995097764 90.3602412958 687.995097764 90.3602412958 687.995097764 80 c 2,8,-1
 687.995097764 -3.5527136788e-15 l 2,9,10
 687.995097764 -10.3602412958 687.995097764 -10.3602412958 680.67766953 -17.6776695297 c 128,-1,11
 673.360241296 -24.9950977635 673.360241296 -24.9950977635 663 -24.9950977635 c 2,12,-1
 526 -24.9950977635 l 2,13,14
 496.846656087 -24.9950977635 496.846656087 -24.9950977635 471.710620877 -14.2225112448 c 0,15,16
 445.544019086 -3.00825333428 445.544019086 -3.00825333428 426.68651786 16.4577345795 c 128,-1,17
 407.829016634 35.9237224932 407.829016634 35.9237224932 396.916959435 61.3851892903 c 128,-1,18
 386.004902236 86.8466560874 386.004902236 86.8466560874 386.004902236 116 c 2,19,-1
 386.004902236 192.004902236 l 1,20,-1
 240.995097764 192.004902236 l 1,21,-1
 240.995097764 -3.5527136788e-15 l 2,22,23
 240.995097764 -10.3602412958 240.995097764 -10.3602412958 233.500117229 -17.6776711696 c 128,-1,24
 226.005136694 -24.9951010433 226.005136694 -24.9951010433 216 -24.9950977635 c 2,25,-1
 124 -24.9950977635 l 2,26,27
 113.639758704 -24.9950977635 113.639758704 -24.9950977635 106.32232883 -17.5001172287 c 128,-1,28
 99.0048989567 -10.0051366939 99.0048989567 -10.0051366939 99.0049022365 3.5527136788e-15 c 2,29,-1
 99.0049022365 192.004902236 l 1,30,-1
 32 192.004902236 l 2,31,32
 21.6397587042 192.004902236 21.6397587042 192.004902236 14.3223288304 199.499882771 c 128,-1,33
 7.00489895668 206.994863306 7.00489895668 206.994863306 7.00490223649 217 c 2,34,-1
 7.00490223649 297 l 2,35,36
 7.00490223649 307.360241296 7.00490223649 307.360241296 14.3223304703 314.67766953 c 128,-1,37
 21.6397587042 321.995097764 21.6397587042 321.995097764 32 321.995097764 c 2,38,-1
 99.0049022365 321.995097764 l 1,39,-1
 99.0049022365 526.004902236 l 1,40,-1
 32 526.004902236 l 2,41,42
 21.6397587042 526.004902236 21.6397587042 526.004902236 14.3223304703 533.32233047 c 128,-1,43
 7.00490223649 540.639758704 7.00490223649 540.639758704 7.00490223649 551 c 2,44,-1
 7.00490223649 631 l 2,45,46
 7.00490223649 641.360241296 7.00490223649 641.360241296 14.3223304703 648.67766953 c 128,-1,47
 21.6397587042 655.995097764 21.6397587042 655.995097764 32 655.995097764 c 2,48,-1
 663 655.995097764 l 2,49,50
 673.360241296 655.995097764 673.360241296 655.995097764 680.67766953 648.67766953 c 128,-1,51
 687.995097764 641.360241296 687.995097764 641.360241296 687.995097764 631 c 2,52,-1
 687.995097764 333 l 2,53,54
 687.995097764 303.846656087 687.995097764 303.846656087 677.042511245 278.290620877 c 128,-1,55
 666.089924726 252.734585667 666.089924726 252.734585667 646.67766953 233.32233047 c 128,-1,56
 627.265414333 213.910075274 627.265414333 213.910075274 601.709379123 202.957488755 c 128,-1,57
 576.153343913 192.004902236 576.153343913 192.004902236 547 192.004902236 c 2,58,-1
 526.995097764 192.004902236 l 1,59,-1
 526.995097764 134 l 2,0,1
528.88943686 105.294745272 m 1,60,-1
 528.88943686 105.294745272 l 1,60,-1
518 321.995097764 m 2,61,62
 538.744509821 321.995097764 538.744509821 321.995097764 545.680945345 323.557791272 c 1,63,64
 547.004902236 332.789162749 547.004902236 332.789162749 547.004902236 350 c 2,65,-1
 547.004902236 526.004902236 l 1,66,-1
 240.995097764 526.004902236 l 1,67,-1
 240.995097764 321.995097764 l 1,68,-1
 518 321.995097764 l 2,61,62
EndSplineSet
Substitution2: "'ss01' Style Set 1 lookup 5 subtable" uniE017
AlternateSubs2: "'salt' Stylistic Alternatives lookup 4 subtable" uniE017
Substitution2: "'aalt' Access All Alternates lookup 0 subtable" uniE017
EndChar

StartChar: S
Encoding: 83 83 54
Width: 695
GlyphClass: 2
Flags: W
LayerCount: 2
Fore
SplineSet
547 421.995097764 m 2,0,1
 576.153343913 421.995097764 576.153343913 421.995097764 601.709379123 411.042511245 c 128,-1,2
 627.265414333 400.089924726 627.265414333 400.089924726 646.67766953 380.67766953 c 128,-1,3
 666.089924726 361.265414333 666.089924726 361.265414333 677.042511245 335.709379123 c 128,-1,4
 687.995097764 310.153343913 687.995097764 310.153343913 687.995097764 281 c 2,5,-1
 687.995097764 -3.5527136788e-15 l 2,6,7
 687.995097764 -10.3602412958 687.995097764 -10.3602412958 680.67766953 -17.6776695297 c 128,-1,8
 673.360241296 -24.9950977635 673.360241296 -24.9950977635 663 -24.9950977635 c 2,9,-1
 32 -24.9950977635 l 2,10,11
 21.6397587042 -24.9950977635 21.6397587042 -24.9950977635 14.3223288304 -17.5001172287 c 128,-1,12
 7.00489895668 -10.0051366939 7.00489895668 -10.0051366939 7.00490223649 3.5527136788e-15 c 2,13,-1
 7.00490223649 80 l 2,14,15
 7.00490223649 90.3602412958 7.00490223649 90.3602412958 14.4998827713 97.6776711696 c 128,-1,16
 21.9948633061 104.995101043 21.9948633061 104.995101043 32 104.995097764 c 2,17,-1
 547.004902236 104.995097764 l 1,18,-1
 547.004902236 263 l 2,19,20
 547.004902236 283.323354984 547.004902236 283.323354984 545.495610766 290.468385069 c 1,21,22
 539.019664049 292.004902236 539.019664049 292.004902236 518 292.004902236 c 2,23,-1
 32 292.004902236 l 2,24,25
 21.6397587042 292.004902236 21.6397587042 292.004902236 14.3223304703 299.32233047 c 128,-1,26
 7.00490223649 306.639758704 7.00490223649 306.639758704 7.00490223649 317 c 2,27,-1
 7.00490223649 397 l 2,28,29
 7.00490223649 407.360241296 7.00490223649 407.360241296 14.4998827713 414.67767117 c 128,-1,30
 21.9948633061 421.995101043 21.9948633061 421.995101043 32 421.995097764 c 2,31,-1
 99.0049022365 421.995097764 l 1,32,-1
 99.0049022365 526.004902236 l 1,33,-1
 32 526.004902236 l 2,34,35
 21.6397587042 526.004902236 21.6397587042 526.004902236 14.3223304703 533.32233047 c 128,-1,36
 7.00490223649 540.639758704 7.00490223649 540.639758704 7.00490223649 551 c 2,37,-1
 7.00490223649 631 l 2,38,39
 7.00490223649 641.360241296 7.00490223649 641.360241296 14.3223304703 648.67766953 c 128,-1,40
 21.6397587042 655.995097764 21.6397587042 655.995097764 32 655.995097764 c 2,41,-1
 663 655.995097764 l 2,42,43
 673.360241296 655.995097764 673.360241296 655.995097764 680.67766953 648.67766953 c 128,-1,44
 687.995097764 641.360241296 687.995097764 641.360241296 687.995097764 631 c 2,45,-1
 687.995097764 551 l 2,46,47
 687.995097764 540.639758704 687.995097764 540.639758704 680.67766953 533.32233047 c 128,-1,48
 673.360241296 526.004902236 673.360241296 526.004902236 663 526.004902236 c 2,49,-1
 239.995097764 526.004902236 l 1,50,-1
 239.995097764 421.995097764 l 1,51,-1
 547 421.995097764 l 2,0,1
545.11056314 291.705254728 m 1,52,-1
 545.11056314 291.705254728 l 1,52,-1
EndSplineSet
EndChar

StartChar: T
Encoding: 84 84 55
Width: 634
GlyphClass: 2
Flags: W
LayerCount: 2
Fore
SplineSet
32 466.004898957 m 0,0,1
 21.6397587042 466.004898957 21.6397587042 466.004898957 14.3223304703 473.32233047 c 128,-1,2
 7.00490223649 480.639758704 7.00490223649 480.639758704 7.00490223649 491 c 2,3,4
 7.00490223649 491 7.00490223649 491 7.00490223649 631 c 0,5,6
 7.00490223649 641.360241296 7.00490223649 641.360241296 14.3223304703 648.67766953 c 128,-1,7
 21.6397587042 655.995097764 21.6397587042 655.995097764 32 655.995097764 c 2,8,-1
 602 655.995097764 l 2,9,10
 612.360241296 655.995097764 612.360241296 655.995097764 619.67766953 648.67766953 c 128,-1,11
 626.995097764 641.360241296 626.995097764 641.360241296 626.995097764 631 c 2,12,-1
 626.995097764 491 l 2,13,14
 626.995097764 480.639758704 626.995097764 480.639758704 619.67766953 473.32233047 c 0,15,16
 612.005136694 466.004902236 612.005136694 466.004902236 602.013379828 466.004902236 c 2,17,18
 602.013379828 466.004902236 602.013379828 466.004902236 511 466.004902236 c 0,19,20
 500.639758704 466.004902236 500.639758704 466.004902236 493.32232883 473.499882771 c 128,-1,21
 486.004898957 480.994863306 486.004898957 480.994863306 486.004898957 490.986620172 c 0,22,23
 486.004898957 490.993309566 486.004898957 490.993309566 486.004902236 491 c 2,24,-1
 486.004902236 526.004902236 l 1,25,-1
 387.995097764 526.004902236 l 1,26,-1
 387.995097764 104.995097764 l 1,27,-1
 453 104.995097764 l 2,28,29
 463.360241296 104.995097764 463.360241296 104.995097764 470.67766953 97.6776695297 c 0,30,31
 477.995097764 90.0051366939 477.995097764 90.0051366939 477.995097764 80.0133798279 c 2,32,33
 477.995097764 80.0133798279 477.995097764 80.0133798279 477.995097764 -3.5527136788e-15 c 0,34,35
 477.995097764 -10.3602412958 477.995097764 -10.3602412958 470.67766953 -17.6776695297 c 128,-1,36
 463.360241296 -24.9950977635 463.360241296 -24.9950977635 453 -24.9950977635 c 2,37,38
 453 -24.9950977635 453 -24.9950977635 181 -24.9950977635 c 0,39,40
 170.639758704 -24.9950977635 170.639758704 -24.9950977635 163.32233047 -17.6776695297 c 128,-1,41
 156.004902236 -10.3602412958 156.004902236 -10.3602412958 156.004902236 3.5527136788e-15 c 2,42,-1
 156.004902236 80 l 2,43,44
 156.004902236 90.3602412958 156.004902236 90.3602412958 163.32233047 97.6776695297 c 0,45,46
 170.994863306 104.995097764 170.994863306 104.995097764 180.986620172 104.995097764 c 2,47,48
 180.986620172 104.995097764 180.986620172 104.995097764 246.004902236 104.995097764 c 1,49,-1
 246.004902236 526.004902236 l 1,50,-1
 147.995097764 526.004902236 l 1,51,-1
 147.995097764 491 l 2,52,53
 147.995097764 480.639758704 147.995097764 480.639758704 140.500117229 473.32232883 c 128,-1,54
 133.005136694 466.004898957 133.005136694 466.004898957 123.013379828 466.004898957 c 2,55,56
 123.013379828 466.004898957 123.013379828 466.004898957 32 466.004898957 c 0,0,1
EndSplineSet
EndChar

StartChar: U
Encoding: 85 85 56
Width: 695
GlyphClass: 2
Flags: W
LayerCount: 2
Fore
SplineSet
687.995097764 116 m 2,0,1
 687.995097764 86.8466560874 687.995097764 86.8466560874 677.042511245 61.2906208771 c 128,-1,2
 666.089924726 35.7345856668 666.089924726 35.7345856668 646.67766953 16.3223304703 c 128,-1,3
 627.265414333 -3.08992472611 627.265414333 -3.08992472611 601.709379123 -14.0425112448 c 128,-1,4
 576.153343913 -24.9950977635 576.153343913 -24.9950977635 547 -24.9950977635 c 2,5,-1
 32 -24.9950977635 l 2,6,7
 21.6397587042 -24.9950977635 21.6397587042 -24.9950977635 14.3223288304 -17.5001172287 c 128,-1,8
 7.00489895668 -10.0051366939 7.00489895668 -10.0051366939 7.00490223649 3.5527136788e-15 c 2,9,-1
 7.00490223649 80 l 2,10,11
 7.00490223649 90.3602412958 7.00490223649 90.3602412958 14.4998827713 97.6776711696 c 128,-1,12
 21.9948633061 104.995101043 21.9948633061 104.995101043 32 104.995097764 c 2,13,-1
 99.0049022365 104.995097764 l 1,14,-1
 99.0049022365 631 l 2,15,16
 99.0049022365 641.360241296 99.0049022365 641.360241296 106.32233047 648.67766953 c 128,-1,17
 113.639758704 655.995097764 113.639758704 655.995097764 124 655.995097764 c 2,18,-1
 215 655.995097764 l 2,19,20
 225.360241296 655.995097764 225.360241296 655.995097764 232.67766953 648.67766953 c 128,-1,21
 239.995097764 641.360241296 239.995097764 641.360241296 239.995097764 631 c 2,22,-1
 239.995097764 104.995097764 l 1,23,-1
 518 104.995097764 l 2,24,25
 538.323354984 104.995097764 538.323354984 104.995097764 545.468385069 106.504389234 c 1,26,27
 547.004902236 112.980335951 547.004902236 112.980335951 547.004902236 134 c 2,28,-1
 547.004902236 631 l 2,29,30
 547.004902236 641.360241296 547.004902236 641.360241296 554.32233047 648.67766953 c 128,-1,31
 561.639758704 655.995097764 561.639758704 655.995097764 572 655.995097764 c 2,32,-1
 663 655.995097764 l 2,33,34
 673.360241296 655.995097764 673.360241296 655.995097764 680.67766953 648.67766953 c 128,-1,35
 687.995097764 641.360241296 687.995097764 641.360241296 687.995097764 631 c 2,36,-1
 687.995097764 116 l 2,0,1
546.705254728 106.88943686 m 1,37,-1
 546.705254728 106.88943686 l 1,37,-1
EndSplineSet
EndChar

StartChar: V
Encoding: 86 86 57
Width: 695
GlyphClass: 2
Flags: W
LayerCount: 2
Fore
SplineSet
455 -24.9950977635 m 2,0,-1
 32 -24.9950977635 l 2,1,2
 21.6397587042 -24.9950977635 21.6397587042 -24.9950977635 14.3223288304 -17.5001172287 c 128,-1,3
 7.00489895668 -10.0051366939 7.00489895668 -10.0051366939 7.00490223649 3.5527136788e-15 c 2,4,-1
 7.00490223649 80 l 2,5,6
 7.00490223649 90.3602412958 7.00490223649 90.3602412958 14.4998827713 97.6776711696 c 128,-1,7
 21.9948633061 104.995101043 21.9948633061 104.995101043 32 104.995097764 c 2,8,-1
 83.1118847846 104.995097764 l 1,9,10
 6.96044813749 629.488117671 6.96044813749 629.488117671 6.96044813749 631.489616123 c 0,11,12
 6.96044813749 641.315787197 6.96044813749 641.315787197 14.3223304703 648.67766953 c 128,-1,13
 21.6397587042 655.995097764 21.6397587042 655.995097764 32 655.995097764 c 2,14,-1
 133 655.995097764 l 2,15,16
 143.360241296 655.995097764 143.360241296 655.995097764 149.952218883 649.403120176 c 128,-1,17
 156.544196471 642.811142588 156.544196471 642.811142588 157.734108461 634.615623754 c 2,18,-1
 234.630010602 104.995097764 l 1,19,-1
 424 104.995097764 l 2,20,21
 440.210183474 104.995097764 440.210183474 104.995097764 445.224729258 107.983643329 c 0,22,23
 449.41369442 113.061059132 449.41369442 113.061059132 452.424871173 128.58248365 c 2,24,-1
 542.391824326 635.396319746 l 2,25,26
 543.762510003 643.117849063 543.762510003 643.117849063 550.201134354 649.556473413 c 128,-1,27
 556.639758704 655.995097764 556.639758704 655.995097764 567 655.995097764 c 2,28,-1
 663 655.995097764 l 2,29,30
 673.360241296 655.995097764 673.360241296 655.995097764 680.67766953 648.67766953 c 128,-1,31
 688.060172237 641.295166822 688.060172237 641.295166822 688.060172237 631.563450064 c 0,32,33
 688.060172237 629.175989591 688.060172237 629.175989591 687.615850997 626.647139979 c 2,34,-1
 593.553800536 91.2939804413 l 2,35,36
 583.899700767 40.6099566551 583.899700767 40.6099566551 545.104162963 7.87622163312 c 128,-1,37
 506.145562197 -24.9950977635 506.145562197 -24.9950977635 455 -24.9950977635 c 2,0,-1
EndSplineSet
EndChar

StartChar: W
Encoding: 87 87 58
Width: 859
GlyphClass: 2
Flags: W
LayerCount: 2
Fore
SplineSet
851.995097764 116 m 2,0,1
 851.995097764 86.8466560874 851.995097764 86.8466560874 841.042511245 61.2906208771 c 128,-1,2
 830.089924726 35.7345856668 830.089924726 35.7345856668 810.67766953 16.3223304703 c 128,-1,3
 791.265414333 -3.08992472611 791.265414333 -3.08992472611 765.709379123 -14.0425112448 c 128,-1,4
 740.153343913 -24.9950977635 740.153343913 -24.9950977635 711 -24.9950977635 c 2,5,-1
 32 -24.9950977635 l 2,6,7
 21.6397587042 -24.9950977635 21.6397587042 -24.9950977635 14.3223288304 -17.5001172287 c 128,-1,8
 7.00489895668 -10.0051366939 7.00489895668 -10.0051366939 7.00490223649 3.5527136788e-15 c 2,9,-1
 7.00490223649 80 l 2,10,11
 7.00490223649 90.3602412958 7.00490223649 90.3602412958 14.4998827713 97.6776711696 c 128,-1,12
 21.9948633061 104.995101043 21.9948633061 104.995101043 32 104.995097764 c 2,13,-1
 99.0049022365 104.995097764 l 1,14,-1
 99.0049022365 526.004902236 l 1,15,-1
 32 526.004902236 l 2,16,17
 21.6397587042 526.004902236 21.6397587042 526.004902236 14.3223304703 533.32233047 c 128,-1,18
 7.00490223649 540.639758704 7.00490223649 540.639758704 7.00490223649 551 c 2,19,-1
 7.00490223649 631 l 2,20,21
 7.00490223649 641.360241296 7.00490223649 641.360241296 14.3223304703 648.67766953 c 128,-1,22
 21.6397587042 655.995097764 21.6397587042 655.995097764 32 655.995097764 c 2,23,-1
 307 655.995097764 l 2,24,25
 317.360241296 655.995097764 317.360241296 655.995097764 324.67767117 648.500117229 c 128,-1,26
 331.995101043 641.005136694 331.995101043 641.005136694 331.995097764 631 c 2,27,-1
 331.995097764 551 l 2,28,29
 331.995097764 540.639758704 331.995097764 540.639758704 324.67766953 533.32233047 c 128,-1,30
 317.360241296 526.004902236 317.360241296 526.004902236 307 526.004902236 c 2,31,-1
 239.995097764 526.004902236 l 1,32,-1
 239.995097764 104.995097764 l 1,33,-1
 405.004902236 104.995097764 l 1,34,-1
 405.004902236 631 l 2,35,36
 405.004902236 641.360241296 405.004902236 641.360241296 412.32233047 648.67766953 c 128,-1,37
 419.639758704 655.995097764 419.639758704 655.995097764 430 655.995097764 c 2,38,-1
 521 655.995097764 l 2,39,40
 531.360241296 655.995097764 531.360241296 655.995097764 538.67766953 648.67766953 c 128,-1,41
 545.995097764 641.360241296 545.995097764 641.360241296 545.995097764 631 c 2,42,-1
 545.995097764 104.995097764 l 1,43,-1
 682 104.995097764 l 2,44,45
 702.323354984 104.995097764 702.323354984 104.995097764 709.468385069 106.504389234 c 1,46,47
 711.004902236 112.980335951 711.004902236 112.980335951 711.004902236 134 c 2,48,-1
 711.004902236 631 l 2,49,50
 711.004902236 641.360241296 711.004902236 641.360241296 718.32233047 648.67766953 c 128,-1,51
 725.639758704 655.995097764 725.639758704 655.995097764 736 655.995097764 c 2,52,-1
 827 655.995097764 l 2,53,54
 837.360241296 655.995097764 837.360241296 655.995097764 844.67766953 648.67766953 c 128,-1,55
 851.995097764 641.360241296 851.995097764 641.360241296 851.995097764 631 c 2,56,-1
 851.995097764 116 l 2,0,1
710.705254728 106.88943686 m 1,57,-1
 710.705254728 106.88943686 l 1,57,-1
EndSplineSet
EndChar

StartChar: X
Encoding: 88 88 59
Width: 677
GlyphClass: 2
Flags: W
LayerCount: 2
Fore
SplineSet
32 192.004902236 m 2,0,1
 21.6397587042 192.004902236 21.6397587042 192.004902236 14.3223288304 199.499882771 c 128,-1,2
 7.00489895668 206.994863306 7.00489895668 206.994863306 7.00490223649 217 c 2,3,-1
 7.00490223649 297 l 2,4,5
 7.00490223649 307.360241296 7.00490223649 307.360241296 14.3223304703 314.67766953 c 128,-1,6
 21.6397587042 321.995097764 21.6397587042 321.995097764 32 321.995097764 c 2,7,-1
 92.8711807563 321.995097764 l 1,8,9
 69.276955145 422.583877215 69.276955145 422.583877215 21.6700676242 625.253198375 c 0,10,11
 20.88909334 628.577917471 20.88909334 628.577917471 20.88909334 631.678572168 c 0,12,13
 20.88909334 641.244432399 20.88909334 641.244432399 28.3223304703 648.67766953 c 128,-1,14
 35.6397587042 655.995097764 35.6397587042 655.995097764 46 655.995097764 c 2,15,-1
 137 655.995097764 l 2,16,17
 147.360241296 655.995097764 147.360241296 655.995097764 153.471036058 649.884303001 c 128,-1,18
 159.581830821 643.773508238 159.581830821 643.773508238 161.25093478 637.073248061 c 2,19,-1
 231.21101766 356.233486786 l 2,20,21
 239.149551216 326.073221958 239.149551216 326.073221958 240.535392504 323.446011025 c 0,22,23
 244.50975291 321.995097764 244.50975291 321.995097764 261 321.995097764 c 2,24,-1
 430 321.995097764 l 2,25,26
 446.990516934 321.995097764 446.990516934 321.995097764 450.588189191 323.473274955 c 0,27,28
 453.979888406 328.751212078 453.979888406 328.751212078 459.543688255 355.179261364 c 0,29,30
 459.638215277 355.628264716 459.638215277 355.628264716 529.74906522 637.073248061 c 0,31,32
 531.418169179 643.773508238 531.418169179 643.773508238 537.528963942 649.884303001 c 128,-1,33
 543.639758704 655.995097764 543.639758704 655.995097764 554 655.995097764 c 2,34,-1
 645 655.995097764 l 2,35,36
 655.360241296 655.995097764 655.360241296 655.995097764 662.67766953 648.67766953 c 128,-1,37
 670.11090666 641.244432399 670.11090666 641.244432399 670.11090666 631.678572168 c 0,38,39
 670.11090666 628.577917471 670.11090666 628.577917471 669.329932376 625.253198375 c 2,40,-1
 599.376903202 327.453159893 l 2,41,42
 589.137286848 280.460704054 589.137286848 280.460704054 573.7386498 255.024723753 c 1,43,44
 580.485046581 242.18788963 580.485046581 242.18788963 585.535791702 225.772967987 c 128,-1,45
 590.586536823 209.358046344 590.586536823 209.358046344 598.207412065 190.30585824 c 2,46,-1
 668.311901054 9.04022268881 l 2,47,48
 670.299552151 3.9007248534 670.299552151 3.9007248534 670.299552151 -0.817153096815 c 0,49,50
 670.299552151 -10.0557869083 670.299552151 -10.0557869083 662.829896723 -17.5254423359 c 128,-1,51
 655.360241296 -24.9950977635 655.360241296 -24.9950977635 645 -24.9950977635 c 2,52,-1
 554 -24.9950977635 l 2,53,54
 543.639758704 -24.9950977635 543.639758704 -24.9950977635 536.32233047 -17.6776695297 c 0,55,56
 532.896650647 -14.2519897061 532.896650647 -14.2519897061 531.010024388 -9.83189389967 c 2,57,-1
 461.010024388 154.1681061 l 2,58,59
 453.760985999 171.767559998 453.760985999 171.767559998 450.142905095 181.265022371 c 128,-1,60
 446.524824191 190.762484744 446.524824191 190.762484744 445.645169366 190.938204707 c 0,61,62
 440 192 440 192 430 192.004902236 c 2,63,-1
 261 192.004902236 l 2,64,65
 250.813659824 192.004902236 250.813659824 192.004902236 245.405594052 190.948232176 c 0,66,67
 243.670696241 187.948262392 243.670696241 187.948262392 240.978092541 179.870451264 c 128,-1,68
 238.28548884 171.792640136 238.28548884 171.792640136 229.814310723 153.756548361 c 2,69,-1
 159.989975612 -9.83189389967 l 2,70,71
 158.103349353 -14.2519897061 158.103349353 -14.2519897061 154.67766953 -17.6776695297 c 0,72,73
 147.005136694 -24.9951010433 147.005136694 -24.9951010433 137 -24.9950977635 c 2,74,-1
 46 -24.9950977635 l 2,75,76
 35.6397587042 -24.9950977635 35.6397587042 -24.9950977635 28.1701032766 -17.5254423359 c 128,-1,77
 20.7004478489 -10.0557869083 20.7004478489 -10.0557869083 20.7004478489 -0.817153096815 c 0,78,79
 20.7004478489 3.9007248534 20.7004478489 3.9007248534 22.6880989455 9.04022268881 c 0,80,81
 92.908082722 190.609037882 92.908082722 190.609037882 93.1568170667 191.168877505 c 128,-1,82
 93.3426829441 191.587075729 93.3426829441 191.587075729 93.525940725 192.004902236 c 1,83,-1
 32 192.004902236 l 2,0,1
450.745365992 323.550554274 m 1,84,-1
 450.745365992 323.550554274 l 1,84,-1
EndSplineSet
EndChar

StartChar: Y
Encoding: 89 89 60
Width: 695
GlyphClass: 2
Flags: W
LayerCount: 2
Fore
SplineSet
687.995097764 217 m 2,0,1
 687.995097764 206.639758704 687.995097764 206.639758704 680.67766953 199.32233047 c 128,-1,2
 673.360241296 192.004902236 673.360241296 192.004902236 663 192.004902236 c 2,3,-1
 417.995097764 192.004902236 l 1,4,-1
 417.995097764 -3.5527136788e-15 l 2,5,6
 417.995097764 -10.3602412958 417.995097764 -10.3602412958 410.67766953 -17.6776695297 c 128,-1,7
 403.360241296 -24.9950977635 403.360241296 -24.9950977635 393 -24.9950977635 c 2,8,-1
 302 -24.9950977635 l 2,9,10
 291.639758704 -24.9950977635 291.639758704 -24.9950977635 284.32232883 -17.5001172287 c 128,-1,11
 277.004898957 -10.0051366939 277.004898957 -10.0051366939 277.004902236 3.5527136788e-15 c 2,12,-1
 277.004902236 192.004902236 l 1,13,-1
 148 192.004902236 l 2,14,15
 118.846656087 192.004902236 118.846656087 192.004902236 93.2906208771 202.957488755 c 128,-1,16
 67.7345856668 213.910075274 67.7345856668 213.910075274 48.3223304703 233.32233047 c 128,-1,17
 28.9100752739 252.734585667 28.9100752739 252.734585667 17.9574887552 278.290620877 c 128,-1,18
 7.00490223649 303.846656087 7.00490223649 303.846656087 7.00490223649 333 c 2,19,-1
 7.00490223649 631 l 2,20,21
 7.00490223649 641.360241296 7.00490223649 641.360241296 14.3223304703 648.67766953 c 128,-1,22
 21.6397587042 655.995097764 21.6397587042 655.995097764 32 655.995097764 c 2,23,-1
 124 655.995097764 l 2,24,25
 134.360241296 655.995097764 134.360241296 655.995097764 141.67766953 648.67766953 c 128,-1,26
 148.995097764 641.360241296 148.995097764 641.360241296 148.995097764 631 c 2,27,-1
 148.995097764 350 l 2,28,29
 148.995097764 331.118528074 148.995097764 331.118528074 150.35353966 323.353642023 c 1,30,31
 158.177355341 321.995097764 158.177355341 321.995097764 177 321.995097764 c 2,32,-1
 455.004902236 321.995097764 l 1,33,-1
 455.004902236 631 l 2,34,35
 455.004902236 641.360241296 455.004902236 641.360241296 462.32233047 648.67766953 c 128,-1,36
 469.639758704 655.995097764 469.639758704 655.995097764 480 655.995097764 c 2,37,-1
 572 655.995097764 l 2,38,39
 582.360241296 655.995097764 582.360241296 655.995097764 589.67766953 648.67766953 c 128,-1,40
 596.995097764 641.360241296 596.995097764 641.360241296 596.995097764 631 c 2,41,-1
 596.995097764 321.995097764 l 1,42,-1
 663 321.995097764 l 2,43,44
 673.360241296 321.995097764 673.360241296 321.995097764 680.67766953 314.67766953 c 128,-1,45
 687.995097764 307.360241296 687.995097764 307.360241296 687.995097764 297 c 2,46,-1
 687.995097764 217 l 2,0,1
EndSplineSet
Substitution2: "'ss01' Style Set 1 lookup 5 subtable" uniE023
AlternateSubs2: "'salt' Stylistic Alternatives lookup 4 subtable" uniE023
Substitution2: "'aalt' Access All Alternates lookup 0 subtable" uniE023
EndChar

StartChar: Z
Encoding: 90 90 61
Width: 695
GlyphClass: 2
Flags: W
LayerCount: 2
Fore
SplineSet
601 421.995097764 m 2,0,1
 611.360241296 421.995097764 611.360241296 421.995097764 618.67766953 414.67766953 c 128,-1,2
 625.995097764 407.360241296 625.995097764 407.360241296 625.995097764 397 c 2,3,-1
 625.995097764 317 l 2,4,5
 625.995097764 306.639758704 625.995097764 306.639758704 618.500117229 299.32232883 c 128,-1,6
 611.005136694 292.004898957 611.005136694 292.004898957 601 292.004902236 c 2,7,-1
 427.635797515 292.004902236 l 1,8,-1
 220.899220418 104.995097764 l 1,9,-1
 517 104.995097764 l 2,10,11
 537.323354984 104.995097764 537.323354984 104.995097764 544.468385069 106.504389234 c 1,12,13
 546.004902236 112.980335951 546.004902236 112.980335951 546.004902236 134 c 2,14,-1
 546.004902236 200 l 2,15,16
 546.004902236 210.360241296 546.004902236 210.360241296 553.32233047 217.67766953 c 128,-1,17
 560.639758704 224.995097764 560.639758704 224.995097764 571 224.995097764 c 2,18,-1
 663 224.995097764 l 2,19,20
 673.360241296 224.995097764 673.360241296 224.995097764 680.67766953 217.67766953 c 128,-1,21
 687.995097764 210.360241296 687.995097764 210.360241296 687.995097764 200 c 2,22,-1
 687.995097764 116 l 2,23,24
 687.995097764 86.8466560874 687.995097764 86.8466560874 677.042511245 61.2906208771 c 128,-1,25
 666.089924726 35.7345856668 666.089924726 35.7345856668 646.67766953 16.3223304703 c 128,-1,26
 627.265414333 -3.08992472611 627.265414333 -3.08992472611 601.709379123 -14.0425112448 c 128,-1,27
 576.153343913 -24.9950977635 576.153343913 -24.9950977635 547 -24.9950977635 c 2,28,-1
 32 -24.9950977635 l 2,29,30
 21.6397587042 -24.9950977635 21.6397587042 -24.9950977635 14.3223288304 -17.5001172287 c 128,-1,31
 7.00489895668 -10.0051366939 7.00489895668 -10.0051366939 7.00490223649 3.5527136788e-15 c 2,32,-1
 7.00490223649 91 l 2,33,34
 7.00490223649 102.109036758 7.00490223649 102.109036758 15.248105434 109.558015873 c 2,35,-1
 217.069882385 292.004902236 l 1,36,-1
 174 292.004902236 l 2,37,38
 163.639758704 292.004902236 163.639758704 292.004902236 156.32233047 299.32233047 c 128,-1,39
 149.004902236 306.639758704 149.004902236 306.639758704 149.004902236 317 c 2,40,-1
 149.004902236 397 l 2,41,42
 149.004902236 407.360241296 149.004902236 407.360241296 156.499882771 414.67767117 c 128,-1,43
 163.994863306 421.995101043 163.994863306 421.995101043 174 421.995097764 c 2,44,-1
 360.353954919 421.995097764 l 1,45,-1
 475.169972844 526.004902236 l 1,46,-1
 147.995097764 526.004902236 l 1,47,-1
 147.995097764 491 l 2,48,49
 147.995097764 480.639758704 147.995097764 480.639758704 140.500117229 473.32232883 c 128,-1,50
 133.005136694 466.004898957 133.005136694 466.004898957 123 466.004902236 c 2,51,-1
 32 466.004902236 l 2,52,53
 21.6397587042 466.004902236 21.6397587042 466.004902236 14.3223304703 473.32233047 c 128,-1,54
 7.00490223649 480.639758704 7.00490223649 480.639758704 7.00490223649 491 c 2,55,-1
 7.00490223649 631 l 2,56,57
 7.00490223649 641.360241296 7.00490223649 641.360241296 14.3223304703 648.67766953 c 128,-1,58
 21.6397587042 655.995097764 21.6397587042 655.995097764 32 655.995097764 c 2,59,-1
 663 655.995097764 l 2,60,61
 673.360241296 655.995097764 673.360241296 655.995097764 680.67766953 648.67766953 c 128,-1,62
 687.995097764 641.360241296 687.995097764 641.360241296 687.995097764 631 c 2,63,-1
 687.995097764 539 l 2,64,65
 687.995097764 527.894770921 687.995097764 527.894770921 679.756618542 520.446255684 c 2,66,-1
 570.905690418 421.995097764 l 1,67,-1
 601 421.995097764 l 2,0,1
545.705254728 106.88943686 m 1,68,-1
 545.705254728 106.88943686 l 1,68,-1
EndSplineSet
Substitution2: "'ss01' Style Set 1 lookup 5 subtable" uniE024
AlternateSubs2: "'salt' Stylistic Alternatives lookup 4 subtable" uniE024
Substitution2: "'aalt' Access All Alternates lookup 0 subtable" uniE024
EndChar

StartChar: bracketleft
Encoding: 91 91 62
Width: 270
GlyphClass: 2
Flags: W
LayerCount: 2
Fore
SplineSet
124 653 m 1,0,-1
 124 -22 l 1,1,-1
 238 -22 l 1,2,-1
 238 -102 l 1,3,-1
 32 -102 l 1,4,-1
 32 733 l 1,5,-1
 238 733 l 1,6,-1
 238 653 l 1,7,-1
 124 653 l 1,0,-1
EndSplineSet
EndChar

StartChar: asciicircum
Encoding: 94 94 65
Width: 496
GlyphClass: 2
Flags: W
LayerCount: 2
Fore
SplineSet
464 316 m 1,0,-1
 374 316 l 1,1,-1
 248 548 l 1,2,-1
 122 316 l 1,3,-1
 32 316 l 1,4,-1
 203 631 l 1,5,-1
 293 631 l 1,6,-1
 464 316 l 1,0,-1
EndSplineSet
EndChar

StartChar: underscore
Encoding: 95 95 66
Width: 461
GlyphClass: 2
Flags: W
LayerCount: 2
Fore
SplineSet
429 0 m 1,0,-1
 429 -52 l 1,1,-1
 32 -52 l 1,2,-1
 32 0 l 1,3,-1
 429 0 l 1,0,-1
EndSplineSet
EndChar

StartChar: grave
Encoding: 96 96 67
Width: 231
GlyphClass: 2
Flags: W
LayerCount: 2
Fore
SplineSet
199 681 m 1,0,-1
 109 681 l 1,1,-1
 32 878 l 1,2,-1
 142 878 l 1,3,-1
 199 681 l 1,0,-1
EndSplineSet
EndChar

StartChar: a
Encoding: 97 97 68
Width: 585
GlyphClass: 2
Flags: W
LayerCount: 2
Fore
SplineSet
553 80 m 1,0,-1
 553 0 l 1,1,-1
 148 0 l 2,2,3
 124 0 124 0 103 9 c 128,-1,4
 82 18 82 18 66 34 c 128,-1,5
 50 50 50 50 41 71 c 128,-1,6
 32 92 32 92 32 116 c 2,7,-1
 32 254 l 1,8,-1
 368 254 l 1,9,-1
 368 317 l 1,10,-1
 42 317 l 1,11,-1
 42 397 l 1,12,-1
 552 397 l 1,13,-1
 552 317 l 1,14,-1
 460 317 l 1,15,-1
 460 80 l 1,16,-1
 553 80 l 1,0,-1
368 174 m 1,17,-1
 124 174 l 1,18,-1
 124 132 l 2,19,20
 124 113 124 113 125.5 102.5 c 128,-1,21
 127 92 127 92 132 87 c 128,-1,22
 137 82 137 82 147.5 81 c 128,-1,23
 158 80 158 80 177 80 c 2,24,-1
 368 80 l 1,25,-1
 368 174 l 1,17,-1
EndSplineSet
Substitution2: "Single Substitution lookup 7 subtable" ordfeminine
EndChar

StartChar: b
Encoding: 98 98 69
Width: 584
GlyphClass: 2
Flags: W
LayerCount: 2
Fore
SplineSet
552 337 m 1,0,-1
 552 116 l 2,1,2
 552 92 552 92 543 71 c 128,-1,3
 534 50 534 50 518 34 c 128,-1,4
 502 18 502 18 480.5 9 c 128,-1,5
 459 0 459 0 435 0 c 2,6,-1
 124 0 l 1,7,-1
 124 317 l 1,8,-1
 32 317 l 1,9,-1
 32 397 l 1,10,-1
 124 397 l 1,11,-1
 124 631 l 1,12,-1
 215 631 l 1,13,-1
 215 397 l 1,14,-1
 552 397 l 1,15,-1
 552 317 l 1,16,-1
 215 317 l 1,17,-1
 215 80 l 1,18,-1
 406 80 l 2,19,20
 425 80 425 80 435.5 81.5 c 128,-1,21
 446 83 446 83 451.5 88 c 128,-1,22
 457 93 457 93 458.5 104 c 128,-1,23
 460 115 460 115 460 133 c 2,24,-1
 460 337 l 1,25,-1
 552 337 l 1,0,-1
EndSplineSet
Substitution2: "'ss01' Style Set 1 lookup 5 subtable" uniE026
AlternateSubs2: "'salt' Stylistic Alternatives lookup 4 subtable" uniE026
Substitution2: "'aalt' Access All Alternates lookup 0 subtable" uniE026
EndChar

StartChar: c
Encoding: 99 99 70
Width: 584
GlyphClass: 2
Flags: W
LayerCount: 2
Fore
SplineSet
552 80 m 1,0,-1
 552 0 l 1,1,-1
 240 0 l 2,2,3
 216 0 216 0 195 9 c 128,-1,4
 174 18 174 18 158 34 c 128,-1,5
 142 50 142 50 133 71 c 128,-1,6
 124 92 124 92 124 116 c 2,7,-1
 124 317 l 1,8,-1
 32 317 l 1,9,-1
 32 397 l 1,10,-1
 552 397 l 1,11,-1
 552 317 l 1,12,-1
 215 317 l 1,13,-1
 215 134 l 2,14,15
 215 115 215 115 216 104.5 c 128,-1,16
 217 94 217 94 222 88.5 c 128,-1,17
 227 83 227 83 237 81.5 c 128,-1,18
 247 80 247 80 266 80 c 2,19,-1
 552 80 l 1,0,-1
EndSplineSet
EndChar

StartChar: d
Encoding: 100 100 71
Width: 584
GlyphClass: 2
Flags: W
LayerCount: 2
Fore
SplineSet
552 397 m 1,0,-1
 552 317 l 1,1,-1
 460 317 l 1,2,-1
 460 0 l 1,3,-1
 148 0 l 2,4,5
 124 0 124 0 103 9 c 128,-1,6
 82 18 82 18 66 34 c 128,-1,7
 50 50 50 50 41 71 c 128,-1,8
 32 92 32 92 32 116 c 2,9,-1
 32 339 l 1,10,-1
 124 339 l 1,11,-1
 124 134 l 2,12,13
 124 115 124 115 125.5 104.5 c 128,-1,14
 127 94 127 94 132 88.5 c 128,-1,15
 137 83 137 83 147.5 81.5 c 128,-1,16
 158 80 158 80 177 80 c 2,17,-1
 368 80 l 1,18,-1
 368 317 l 1,19,-1
 32 317 l 1,20,-1
 32 397 l 1,21,-1
 368 397 l 1,22,-1
 368 631 l 1,23,-1
 460 631 l 1,24,-1
 460 397 l 1,25,-1
 552 397 l 1,0,-1
EndSplineSet
Substitution2: "'ss01' Style Set 1 lookup 5 subtable" uniE028
AlternateSubs2: "'salt' Stylistic Alternatives lookup 4 subtable" uniE028
Substitution2: "'aalt' Access All Alternates lookup 0 subtable" uniE028
EndChar

StartChar: e
Encoding: 101 101 72
Width: 584
GlyphClass: 2
Flags: W
LayerCount: 2
Fore
SplineSet
532 80 m 1,0,-1
 532 0 l 1,1,-1
 240 0 l 2,2,3
 216 0 216 0 195 9 c 128,-1,4
 174 18 174 18 158 34 c 128,-1,5
 142 50 142 50 133 71 c 128,-1,6
 124 92 124 92 124 116 c 2,7,-1
 124 143 l 1,8,-1
 32 143 l 1,9,-1
 32 223 l 1,10,-1
 124 223 l 1,11,-1
 124 317 l 1,12,-1
 32 317 l 1,13,-1
 32 397 l 1,14,-1
 552 397 l 1,15,-1
 552 259 l 2,16,17
 552 235 552 235 543 214 c 128,-1,18
 534 193 534 193 518 177 c 128,-1,19
 502 161 502 161 480.5 152 c 128,-1,20
 459 143 459 143 435 143 c 2,21,-1
 215 143 l 1,22,-1
 215 145 l 1,23,24
 215 126 215 126 216 113.5 c 128,-1,25
 217 101 217 101 222 93.5 c 128,-1,26
 227 86 227 86 237 83 c 128,-1,27
 247 80 247 80 266 80 c 2,28,-1
 532 80 l 1,0,-1
215 223 m 1,29,-1
 419 223 l 2,30,31
 438 223 438 223 448.5 224.5 c 128,-1,32
 459 226 459 226 464.5 231.5 c 128,-1,33
 470 237 470 237 471 247.5 c 128,-1,34
 472 258 472 258 472 277 c 2,35,-1
 472 317 l 1,36,-1
 215 317 l 1,37,-1
 215 223 l 1,29,-1
EndSplineSet
EndChar

StartChar: f
Encoding: 102 102 73
Width: 464
GlyphClass: 2
Flags: W
LayerCount: 2
Fore
SplineSet
269 499 m 2,0,1
 250 499 250 499 239.5 498 c 128,-1,2
 229 497 229 497 224 491.5 c 128,-1,3
 219 486 219 486 217.5 475.5 c 128,-1,4
 216 465 216 465 216 446 c 2,5,-1
 216 397 l 1,6,-1
 430 397 l 1,7,-1
 430 317 l 1,8,-1
 216 317 l 1,9,-1
 216 0 l 1,10,-1
 124 0 l 1,11,-1
 124 317 l 1,12,-1
 32 317 l 1,13,-1
 32 397 l 1,14,-1
 124 397 l 1,15,-1
 124 463 l 2,16,17
 124 487 124 487 133 508 c 128,-1,18
 142 529 142 529 158 545 c 128,-1,19
 174 561 174 561 195 570 c 128,-1,20
 216 579 216 579 240 579 c 2,21,-1
 513 579 l 1,22,-1
 513 499 l 1,23,-1
 269 499 l 2,0,1
EndSplineSet
EndChar

StartChar: g
Encoding: 103 103 74
Width: 584
GlyphClass: 2
Flags: W
LayerCount: 2
Fore
SplineSet
460 80 m 1,0,-1
 552 80 l 1,1,-1
 552 0 l 1,2,-1
 460 0 l 1,3,-1
 460 -118 l 2,4,5
 460 -142 460 -142 451 -163 c 128,-1,6
 442 -184 442 -184 426 -200 c 128,-1,7
 410 -216 410 -216 389 -225 c 128,-1,8
 368 -234 368 -234 344 -234 c 2,9,-1
 32 -234 l 1,10,-1
 32 -154 l 1,11,-1
 315 -154 l 2,12,13
 334 -154 334 -154 344.5 -152.5 c 128,-1,14
 355 -151 355 -151 360.5 -145.5 c 128,-1,15
 366 -140 366 -140 367 -129.5 c 128,-1,16
 368 -119 368 -119 368 -100 c 2,17,-1
 368 0 l 1,18,-1
 32 0 l 1,19,-1
 32 80 l 1,20,-1
 368 80 l 1,21,-1
 368 347 l 1,22,-1
 460 347 l 1,23,-1
 460 80 l 1,0,-1
552 397 m 1,24,-1
 552 317 l 1,25,-1
 168 317 l 2,26,27
 149 317 149 317 140 316 c 128,-1,28
 131 315 131 315 127.5 309.5 c 128,-1,29
 124 304 124 304 124 293.5 c 128,-1,30
 124 283 124 283 124 264 c 2,31,-1
 124 50 l 1,32,-1
 32 50 l 1,33,-1
 32 281 l 2,34,35
 32 305 32 305 41 326 c 128,-1,36
 50 347 50 347 66 363 c 128,-1,37
 82 379 82 379 103 388 c 128,-1,38
 124 397 124 397 148 397 c 2,39,-1
 552 397 l 1,24,-1
EndSplineSet
EndChar

StartChar: h
Encoding: 104 104 75
Width: 584
GlyphClass: 2
Flags: W
LayerCount: 2
Fore
SplineSet
460 0 m 1,0,-1
 460 263 l 2,1,2
 460 282 460 282 458.5 292.5 c 128,-1,3
 457 303 457 303 451.5 308.5 c 128,-1,4
 446 314 446 314 435.5 315.5 c 128,-1,5
 425 317 425 317 406 317 c 2,6,-1
 215 317 l 1,7,-1
 215 0 l 1,8,-1
 124 0 l 1,9,-1
 124 317 l 1,10,-1
 32 317 l 1,11,-1
 32 397 l 1,12,-1
 124 397 l 1,13,-1
 124 631 l 1,14,-1
 215 631 l 1,15,-1
 215 397 l 1,16,-1
 435 397 l 2,17,18
 459 397 459 397 480.5 388 c 128,-1,19
 502 379 502 379 518 363 c 128,-1,20
 534 347 534 347 543 326 c 128,-1,21
 552 305 552 305 552 281 c 2,22,-1
 552 0 l 1,23,-1
 460 0 l 1,0,-1
EndSplineSet
EndChar

StartChar: i
Encoding: 105 105 76
Width: 156
GlyphClass: 2
Flags: W
LayerCount: 2
Fore
SplineSet
32 397 m 1,0,-1
 124 397 l 1,1,-1
 124 0 l 1,2,-1
 32 0 l 1,3,-1
 32 397 l 1,0,-1
124 525 m 1,4,-1
 124 434 l 1,5,-1
 32 434 l 1,6,-1
 32 525 l 1,7,-1
 124 525 l 1,4,-1
EndSplineSet
EndChar

StartChar: j
Encoding: 106 106 77
Width: 168
GlyphClass: 2
Flags: W
LayerCount: 2
Fore
SplineSet
44 525 m 1,0,-1
 44 434 l 1,1,-1
 137 434 l 1,2,-1
 137 525 l 1,3,-1
 44 525 l 1,0,-1
137 -118 m 2,4,5
 137 -142 137 -142 128 -163 c 128,-1,6
 119 -184 119 -184 103 -200 c 128,-1,7
 87 -216 87 -216 66 -225 c 128,-1,8
 45 -234 45 -234 21 -234 c 2,9,-1
 -88 -234 l 1,10,-1
 -88 -154 l 1,11,-1
 -8 -154 l 2,12,13
 11 -154 11 -154 21.5 -152.5 c 128,-1,14
 32 -151 32 -151 37.5 -145.5 c 128,-1,15
 43 -140 43 -140 44 -129.5 c 128,-1,16
 45 -119 45 -119 45 -100 c 2,17,-1
 45 397 l 1,18,-1
 137 397 l 1,19,-1
 137 -118 l 2,4,5
EndSplineSet
EndChar

StartChar: k
Encoding: 107 107 78
Width: 584
GlyphClass: 2
Flags: W
LayerCount: 2
Fore
SplineSet
436 264 m 1,0,-1
 552 0 l 1,1,-1
 453 0 l 1,2,-1
 353 228 l 1,3,-1
 436 264 l 1,0,-1
436 218 m 2,4,-1
 216 218 l 1,5,-1
 216 0 l 1,6,-1
 124 0 l 1,7,-1
 124 217 l 1,8,-1
 32 217 l 1,9,-1
 32 297 l 1,10,-1
 124 297 l 1,11,-1
 124 631 l 1,12,-1
 216 631 l 1,13,-1
 216 297 l 1,14,-1
 407 297 l 2,15,16
 426 297 426 297 436.5 298.5 c 128,-1,17
 447 300 447 300 452.5 305.5 c 128,-1,18
 458 311 458 311 459 321.5 c 128,-1,19
 460 332 460 332 460 351 c 2,20,-1
 460 397 l 1,21,-1
 552 397 l 1,22,-1
 552 334 l 2,23,24
 552 310 552 310 543 289 c 128,-1,25
 534 268 534 268 518 252 c 128,-1,26
 502 236 502 236 481 227 c 128,-1,27
 460 218 460 218 436 218 c 2,4,-1
EndSplineSet
EndChar

StartChar: l
Encoding: 108 108 79
Width: 156
GlyphClass: 2
Flags: W
LayerCount: 2
Fore
SplineSet
32 0 m 1,0,-1
 32 631 l 1,1,-1
 124 631 l 1,2,-1
 124 0 l 1,3,-1
 32 0 l 1,0,-1
EndSplineSet
EndChar

StartChar: m
Encoding: 109 109 80
Width: 723
GlyphClass: 2
Flags: W
LayerCount: 2
Fore
SplineSet
599 0 m 1,0,-1
 599 263 l 2,1,2
 599 282 599 282 598 292.5 c 128,-1,3
 597 303 597 303 591.5 308.5 c 128,-1,4
 586 314 586 314 575.5 315.5 c 128,-1,5
 565 317 565 317 546 317 c 2,6,-1
 460 317 l 1,7,-1
 460 0 l 1,8,-1
 368 0 l 1,9,-1
 368 263 l 2,10,11
 368 282 368 282 366.5 292.5 c 128,-1,12
 365 303 365 303 359.5 308.5 c 128,-1,13
 354 314 354 314 343.5 315.5 c 128,-1,14
 333 317 333 317 314 317 c 2,15,-1
 215 317 l 1,16,-1
 215 0 l 1,17,-1
 124 0 l 1,18,-1
 124 317 l 1,19,-1
 32 317 l 1,20,-1
 32 397 l 1,21,-1
 575 397 l 2,22,23
 599 397 599 397 620 388 c 128,-1,24
 641 379 641 379 657 363 c 128,-1,25
 673 347 673 347 682 326 c 128,-1,26
 691 305 691 305 691 281 c 2,27,-1
 691 0 l 1,28,-1
 599 0 l 1,0,-1
EndSplineSet
Substitution2: "'ss01' Style Set 1 lookup 5 subtable" uniE037
AlternateSubs2: "'salt' Stylistic Alternatives lookup 4 subtable" uniE037
Substitution2: "'aalt' Access All Alternates lookup 0 subtable" uniE037
EndChar

StartChar: n
Encoding: 110 110 81
Width: 584
GlyphClass: 2
Flags: W
LayerCount: 2
Fore
SplineSet
460 0 m 1,0,-1
 460 263 l 2,1,2
 460 282 460 282 458.5 292.5 c 128,-1,3
 457 303 457 303 451.5 308.5 c 128,-1,4
 446 314 446 314 435.5 315.5 c 128,-1,5
 425 317 425 317 406 317 c 2,6,-1
 215 317 l 1,7,-1
 215 0 l 1,8,-1
 124 0 l 1,9,-1
 124 317 l 1,10,-1
 32 317 l 1,11,-1
 32 397 l 1,12,-1
 435 397 l 2,13,14
 459 397 459 397 480.5 388 c 128,-1,15
 502 379 502 379 518 363 c 128,-1,16
 534 347 534 347 543 326 c 128,-1,17
 552 305 552 305 552 281 c 2,18,-1
 552 0 l 1,19,-1
 460 0 l 1,0,-1
EndSplineSet
Substitution2: "'ss01' Style Set 1 lookup 5 subtable" uniE038
AlternateSubs2: "'salt' Stylistic Alternatives lookup 4 subtable" uniE038
Substitution2: "'aalt' Access All Alternates lookup 0 subtable" uniE038
EndChar

StartChar: o
Encoding: 111 111 82
Width: 584
GlyphClass: 2
Flags: W
LayerCount: 2
Fore
SplineSet
215 133 m 2,0,1
 215 114 215 114 216 103.5 c 128,-1,2
 217 93 217 93 222 88 c 128,-1,3
 227 83 227 83 237 81.5 c 128,-1,4
 247 80 247 80 266 80 c 2,5,-1
 552 80 l 1,6,-1
 552 0 l 1,7,-1
 240 0 l 2,8,9
 216 0 216 0 195 9 c 128,-1,10
 174 18 174 18 158 34 c 128,-1,11
 142 50 142 50 133 71 c 128,-1,12
 124 92 124 92 124 116 c 2,13,-1
 124 317 l 1,14,-1
 32 317 l 1,15,-1
 32 397 l 1,16,-1
 552 397 l 1,17,-1
 552 57 l 1,18,-1
 460 57 l 1,19,-1
 460 317 l 1,20,-1
 215 317 l 1,21,-1
 215 133 l 2,0,1
EndSplineSet
Substitution2: "Single Substitution lookup 7 subtable" ordmasculine
EndChar

StartChar: p
Encoding: 112 112 83
Width: 584
GlyphClass: 2
Flags: W
LayerCount: 2
Fore
SplineSet
436 397 m 2,0,1
 460 397 460 397 481 388 c 128,-1,2
 502 379 502 379 518 363 c 128,-1,3
 534 347 534 347 543 326 c 128,-1,4
 552 305 552 305 552 281 c 2,5,-1
 552 0 l 1,6,-1
 215 0 l 1,7,-1
 215 -234 l 1,8,-1
 124 -234 l 1,9,-1
 124 0 l 1,10,-1
 32 0 l 1,11,-1
 32 80 l 1,12,-1
 124 80 l 1,13,-1
 124 317 l 1,14,-1
 32 317 l 1,15,-1
 32 397 l 1,16,-1
 436 397 l 2,0,1
460 263 m 2,17,18
 460 282 460 282 459 292.5 c 128,-1,19
 458 303 458 303 453 308.5 c 128,-1,20
 448 314 448 314 438 315.5 c 128,-1,21
 428 317 428 317 409 317 c 2,22,-1
 215 317 l 1,23,-1
 215 80 l 1,24,-1
 460 80 l 1,25,-1
 460 263 l 2,17,18
EndSplineSet
Substitution2: "'ss01' Style Set 1 lookup 5 subtable" uniE040
AlternateSubs2: "'salt' Stylistic Alternatives lookup 4 subtable" uniE040
Substitution2: "'aalt' Access All Alternates lookup 0 subtable" uniE040
EndChar

StartChar: q
Encoding: 113 113 84
Width: 584
GlyphClass: 2
Flags: W
LayerCount: 2
Fore
SplineSet
460 317 m 1,0,-1
 460 80 l 1,1,-1
 552 80 l 1,2,-1
 552 0 l 1,3,-1
 460 0 l 1,4,-1
 460 -234 l 1,5,-1
 368 -234 l 1,6,-1
 368 0 l 1,7,-1
 148 0 l 2,8,9
 124 0 124 0 103 9 c 128,-1,10
 82 18 82 18 66 34 c 128,-1,11
 50 50 50 50 41 71 c 128,-1,12
 32 92 32 92 32 116 c 2,13,-1
 32 397 l 1,14,-1
 124 397 l 1,15,-1
 124 133 l 2,16,17
 124 114 124 114 125 103.5 c 128,-1,18
 126 93 126 93 131 88 c 128,-1,19
 136 83 136 83 146 81.5 c 128,-1,20
 156 80 156 80 175 80 c 2,21,-1
 368 80 l 1,22,-1
 368 317 l 1,23,-1
 99 317 l 1,24,-1
 99 397 l 1,25,-1
 552 397 l 1,26,-1
 552 317 l 1,27,-1
 460 317 l 1,0,-1
EndSplineSet
EndChar

StartChar: r
Encoding: 114 114 85
Width: 534
GlyphClass: 2
Flags: W
LayerCount: 2
Fore
SplineSet
496 317 m 1,0,-1
 215 317 l 1,1,-1
 215 0 l 1,2,-1
 124 0 l 1,3,-1
 124 317 l 1,4,-1
 32 317 l 1,5,-1
 32 397 l 1,6,-1
 496 397 l 1,7,-1
 496 317 l 1,0,-1
EndSplineSet
EndChar

StartChar: s
Encoding: 115 115 86
Width: 585
GlyphClass: 2
Flags: W
LayerCount: 2
Fore
SplineSet
553 116 m 2,0,1
 553 92 553 92 544 71 c 128,-1,2
 535 50 535 50 519 34 c 128,-1,3
 503 18 503 18 482 9 c 128,-1,4
 461 0 461 0 437 0 c 2,5,-1
 32 0 l 1,6,-1
 32 80 l 1,7,-1
 407 80 l 2,8,9
 426 80 426 80 436.5 83.5 c 128,-1,10
 447 87 447 87 452.5 95 c 128,-1,11
 458 103 458 103 459 115.5 c 128,-1,12
 460 128 460 128 460 147 c 1,13,-1
 33 147 l 1,14,-1
 33 227 l 1,15,-1
 124 227 l 1,16,-1
 124 317 l 1,17,-1
 33 317 l 1,18,-1
 33 397 l 1,19,-1
 552 397 l 1,20,-1
 552 317 l 1,21,-1
 216 317 l 1,22,-1
 216 227 l 1,23,-1
 552 227 l 1,24,-1
 553 116 l 2,0,1
EndSplineSet
EndChar

StartChar: t
Encoding: 116 116 87
Width: 540
GlyphClass: 2
Flags: W
LayerCount: 2
Fore
SplineSet
124 317 m 1,0,-1
 32 317 l 1,1,-1
 32 397 l 1,2,-1
 124 397 l 1,3,-1
 124 579 l 1,4,-1
 215 579 l 1,5,-1
 215 397 l 1,6,-1
 508 397 l 1,7,-1
 508 317 l 1,8,-1
 215 317 l 1,9,-1
 215 133 l 2,10,11
 215 114 215 114 216.5 103.5 c 128,-1,12
 218 93 218 93 223 88 c 128,-1,13
 228 83 228 83 238.5 81.5 c 128,-1,14
 249 80 249 80 268 80 c 2,15,-1
 360 80 l 2,16,17
 379 80 379 80 389.5 81.5 c 128,-1,18
 400 83 400 83 405.5 88 c 128,-1,19
 411 93 411 93 412 103.5 c 128,-1,20
 413 114 413 114 413 133 c 2,21,-1
 413 179 l 1,22,-1
 505 179 l 1,23,-1
 505 116 l 2,24,25
 505 92 505 92 496 71 c 128,-1,26
 487 50 487 50 471 34 c 128,-1,27
 455 18 455 18 434 9 c 128,-1,28
 413 0 413 0 389 0 c 2,29,-1
 240 0 l 2,30,31
 216 0 216 0 195 9 c 128,-1,32
 174 18 174 18 158 34 c 128,-1,33
 142 50 142 50 133 71 c 128,-1,34
 124 92 124 92 124 116 c 2,35,-1
 124 317 l 1,0,-1
EndSplineSet
EndChar

StartChar: u
Encoding: 117 117 88
Width: 584
GlyphClass: 2
Flags: W
LayerCount: 2
Fore
SplineSet
552 397 m 1,0,-1
 552 116 l 2,1,2
 552 92 552 92 543 71 c 128,-1,3
 534 50 534 50 518 34 c 128,-1,4
 502 18 502 18 480.5 9 c 128,-1,5
 459 0 459 0 435 0 c 2,6,-1
 32 0 l 1,7,-1
 32 80 l 1,8,-1
 124 80 l 1,9,-1
 124 397 l 1,10,-1
 215 397 l 1,11,-1
 215 80 l 1,12,-1
 406 80 l 2,13,14
 425 80 425 80 435.5 81.5 c 128,-1,15
 446 83 446 83 451.5 88 c 128,-1,16
 457 93 457 93 458.5 103.5 c 128,-1,17
 460 114 460 114 460 133 c 2,18,-1
 460 397 l 1,19,-1
 552 397 l 1,0,-1
EndSplineSet
EndChar

StartChar: v
Encoding: 118 118 89
Width: 492
GlyphClass: 2
Flags: W
LayerCount: 2
Fore
SplineSet
118 52 m 1,0,-1
 32 397 l 1,1,-1
 124 397 l 1,2,-1
 214 52 l 1,3,-1
 118 52 l 1,0,-1
315 80 m 2,4,5
 334 80 334 80 344.5 81.5 c 128,-1,6
 355 83 355 83 360.5 88 c 128,-1,7
 366 93 366 93 367 103.5 c 128,-1,8
 368 114 368 114 368 133 c 2,9,-1
 368 397 l 1,10,-1
 460 397 l 1,11,-1
 460 116 l 2,12,13
 460 92 460 92 451 71 c 128,-1,14
 442 50 442 50 426 34 c 128,-1,15
 410 18 410 18 389 9 c 128,-1,16
 368 0 368 0 344 0 c 2,17,-1
 32 0 l 1,18,-1
 32 80 l 1,19,-1
 315 80 l 2,4,5
EndSplineSet
EndChar

StartChar: w
Encoding: 119 119 90
Width: 705
GlyphClass: 2
Flags: W
LayerCount: 2
Fore
SplineSet
673 397 m 1,0,-1
 673 116 l 2,1,2
 673 92 673 92 664 71 c 128,-1,3
 655 50 655 50 639 34 c 128,-1,4
 623 18 623 18 602 9 c 128,-1,5
 581 0 581 0 557 0 c 2,6,-1
 32 0 l 1,7,-1
 32 80 l 1,8,-1
 297 80 l 2,9,10
 316 80 316 80 326.5 81.5 c 128,-1,11
 337 83 337 83 342.5 88 c 128,-1,12
 348 93 348 93 349 103.5 c 128,-1,13
 350 114 350 114 350 133 c 2,14,-1
 350 397 l 1,15,-1
 442 397 l 1,16,-1
 442 80 l 1,17,-1
 528 80 l 2,18,19
 547 80 547 80 557.5 81.5 c 128,-1,20
 568 83 568 83 573.5 88 c 128,-1,21
 579 93 579 93 580 103.5 c 128,-1,22
 581 114 581 114 581 133 c 2,23,-1
 581 397 l 1,24,-1
 673 397 l 1,0,-1
118 52 m 1,25,-1
 32 397 l 1,26,-1
 124 397 l 1,27,-1
 214 52 l 1,28,-1
 118 52 l 1,25,-1
EndSplineSet
EndChar

StartChar: x
Encoding: 120 120 91
Width: 538
GlyphClass: 2
Flags: W
LayerCount: 2
Fore
SplineSet
506 268 m 2,0,1
 506 249 506 249 499 234.5 c 128,-1,2
 492 220 492 220 482.5 210 c 128,-1,3
 473 200 473 200 462.5 194.5 c 128,-1,4
 452 189 452 189 444 189 c 1,5,-1
 444 207 l 1,6,7
 452 207 452 207 462.5 202 c 128,-1,8
 473 197 473 197 482.5 187 c 128,-1,9
 492 177 492 177 499 162 c 128,-1,10
 506 147 506 147 506 128 c 2,11,-1
 506 0 l 1,12,-1
 414 0 l 1,13,-1
 414 105 l 2,14,15
 414 124 414 124 412 134.5 c 128,-1,16
 410 145 410 145 404 150.5 c 128,-1,17
 398 156 398 156 387 157 c 128,-1,18
 376 158 376 158 357 158 c 2,19,-1
 181 158 l 2,20,21
 162 158 162 158 151 157 c 128,-1,22
 140 156 140 156 134 150.5 c 128,-1,23
 128 145 128 145 126 134.5 c 128,-1,24
 124 124 124 124 124 105 c 2,25,-1
 124 0 l 1,26,-1
 32 0 l 1,27,-1
 32 128 l 2,28,29
 32 143 32 143 39 157.5 c 128,-1,30
 46 172 46 172 55.5 183 c 128,-1,31
 65 194 65 194 76 200.5 c 128,-1,32
 87 207 87 207 94 207 c 1,33,-1
 94 189 l 1,34,35
 87 189 87 189 76 196 c 128,-1,36
 65 203 65 203 55.5 214 c 128,-1,37
 46 225 46 225 39 239 c 128,-1,38
 32 253 32 253 32 268 c 2,39,-1
 32 397 l 1,40,-1
 124 397 l 1,41,-1
 124 292 l 2,42,43
 124 273 124 273 126 262.5 c 128,-1,44
 128 252 128 252 134 246.5 c 128,-1,45
 140 241 140 241 151 239.5 c 128,-1,46
 162 238 162 238 181 238 c 2,47,-1
 357 238 l 2,48,49
 375 238 375 238 386 239.5 c 128,-1,50
 397 241 397 241 403.5 246.5 c 128,-1,51
 410 252 410 252 412 262.5 c 128,-1,52
 414 273 414 273 414 292 c 2,53,-1
 414 397 l 1,54,-1
 506 397 l 1,55,-1
 506 268 l 2,0,1
EndSplineSet
EndChar

StartChar: y
Encoding: 121 121 92
Width: 584
GlyphClass: 2
Flags: W
LayerCount: 2
Fore
SplineSet
552 80 m 1,0,-1
 552 0 l 1,1,-1
 460 0 l 1,2,-1
 460 -116 l 2,3,4
 460 -140 460 -140 451 -161 c 128,-1,5
 442 -182 442 -182 426 -198 c 128,-1,6
 410 -214 410 -214 389 -223 c 128,-1,7
 368 -232 368 -232 344 -232 c 2,8,-1
 52 -232 l 1,9,-1
 52 -152 l 1,10,-1
 315 -152 l 2,11,12
 334 -152 334 -152 344.5 -150.5 c 128,-1,13
 355 -149 355 -149 360.5 -143.5 c 128,-1,14
 366 -138 366 -138 367 -127.5 c 128,-1,15
 368 -117 368 -117 368 -98 c 2,16,-1
 368 0 l 1,17,-1
 148 0 l 2,18,19
 124 0 124 0 103 9 c 128,-1,20
 82 18 82 18 66 34 c 128,-1,21
 50 50 50 50 41 71 c 128,-1,22
 32 92 32 92 32 116 c 2,23,-1
 32 397 l 1,24,-1
 124 397 l 1,25,-1
 124 134 l 2,26,27
 124 115 124 115 125.5 104.5 c 128,-1,28
 127 94 127 94 132 88.5 c 128,-1,29
 137 83 137 83 147.5 81.5 c 128,-1,30
 158 80 158 80 177 80 c 2,31,-1
 368 80 l 1,32,-1
 368 397 l 1,33,-1
 460 397 l 1,34,-1
 460 80 l 1,35,-1
 552 80 l 1,0,-1
EndSplineSet
EndChar

StartChar: z
Encoding: 122 122 93
Width: 584
GlyphClass: 2
Flags: W
LayerCount: 2
Fore
SplineSet
177 158 m 2,0,1
 158 158 158 158 147.5 156.5 c 128,-1,2
 137 155 137 155 132 149.5 c 128,-1,3
 127 144 127 144 125.5 133.5 c 128,-1,4
 124 123 124 123 124 104 c 2,5,-1
 124 80 l 1,6,-1
 552 80 l 1,7,-1
 552 0 l 1,8,-1
 32 0 l 1,9,-1
 32 122 l 2,10,11
 32 146 32 146 41 167 c 128,-1,12
 50 188 50 188 66 204 c 128,-1,13
 82 220 82 220 103 229 c 128,-1,14
 124 238 124 238 148 238 c 2,15,-1
 368 238 l 1,16,-1
 368 317 l 1,17,-1
 32 317 l 1,18,-1
 32 397 l 1,19,-1
 552 397 l 1,20,-1
 552 317 l 1,21,-1
 459 317 l 1,22,-1
 459 158 l 1,23,-1
 177 158 l 2,0,1
EndSplineSet
EndChar

StartChar: braceleft
Encoding: 123 123 94
Width: 325
GlyphClass: 2
Flags: W
LayerCount: 2
Fore
SplineSet
179 414 m 2,0,1
 179 391 179 391 165 371 c 2,2,-1
 124 316 l 1,3,-1
 164 262 l 2,4,5
 179 243 179 243 179 219 c 2,6,-1
 179 32 l 2,7,8
 179 13 179 13 180.5 2.5 c 128,-1,9
 182 -8 182 -8 187 -13.5 c 128,-1,10
 192 -19 192 -19 202.5 -20.5 c 128,-1,11
 213 -22 213 -22 232 -22 c 2,12,-1
 293 -22 l 1,13,-1
 293 -102 l 1,14,-1
 203 -102 l 2,15,16
 179 -102 179 -102 158 -93 c 128,-1,17
 137 -84 137 -84 121 -68 c 128,-1,18
 105 -52 105 -52 96 -30.5 c 128,-1,19
 87 -9 87 -9 87 15 c 2,20,-1
 87 221 l 2,21,22
 87 247 87 247 72 266 c 2,23,-1
 32 316 l 1,24,-1
 74 375 l 2,25,26
 87 392 87 392 87 416 c 2,27,-1
 87 617 l 2,28,29
 87 641 87 641 96 662 c 128,-1,30
 105 683 105 683 121 699 c 128,-1,31
 137 715 137 715 158 724 c 128,-1,32
 179 733 179 733 203 733 c 2,33,-1
 293 733 l 1,34,-1
 293 653 l 1,35,-1
 232 653 l 2,36,37
 213 653 213 653 202.5 651.5 c 128,-1,38
 192 650 192 650 187 644.5 c 128,-1,39
 182 639 182 639 180.5 628.5 c 128,-1,40
 179 618 179 618 179 599 c 2,41,-1
 179 414 l 2,0,1
EndSplineSet
EndChar

StartChar: bar
Encoding: 124 124 95
Width: 156
GlyphClass: 2
Flags: W
LayerCount: 2
Fore
SplineSet
124 733 m 1,0,-1
 124 -102 l 1,1,-1
 32 -102 l 1,2,-1
 32 733 l 1,3,-1
 124 733 l 1,0,-1
EndSplineSet
EndChar

StartChar: asciitilde
Encoding: 126 126 97
Width: 461
GlyphClass: 2
Flags: W
LayerCount: 2
Fore
SplineSet
429 574 m 1,0,-1
 429 524 l 2,1,2
 429 478 429 478 416 454 c 128,-1,3
 403 430 403 430 381 421.5 c 128,-1,4
 359 413 359 413 331.5 417.5 c 128,-1,5
 304 422 304 422 275.5 432 c 128,-1,6
 247 442 247 442 219.5 454 c 128,-1,7
 192 466 192 466 170 474 c 128,-1,8
 148 482 148 482 135 482.5 c 128,-1,9
 122 483 122 483 122 469 c 2,10,-1
 122 412 l 1,11,-1
 32 412 l 1,12,-1
 32 465 l 2,13,14
 32 513 32 513 45 537.5 c 128,-1,15
 58 562 58 562 79.5 570 c 128,-1,16
 101 578 101 578 128.5 574 c 128,-1,17
 156 570 156 570 185 559.5 c 128,-1,18
 214 549 214 549 241.5 536 c 128,-1,19
 269 523 269 523 290.5 515 c 128,-1,20
 312 507 312 507 325 506.5 c 128,-1,21
 338 506 338 506 338 520 c 2,22,-1
 338 574 l 1,23,-1
 429 574 l 1,0,-1
EndSplineSet
EndChar

StartChar: sterling
Encoding: 163 163 100
Width: 766
GlyphClass: 2
Flags: W
LayerCount: 2
Fore
SplineSet
32 349 m 1,0,-1
 439 349 l 1,1,-1
 439 269 l 1,2,-1
 32 269 l 1,3,-1
 32 349 l 1,0,-1
269 79 m 1,4,-1
 589 79 l 2,5,6
 608 79 608 79 618.5 80.5 c 128,-1,7
 629 82 629 82 634.5 87.5 c 128,-1,8
 640 93 640 93 641 103.5 c 128,-1,9
 642 114 642 114 642 133 c 2,10,-1
 642 192 l 1,11,-1
 734 192 l 1,12,-1
 734 115 l 2,13,14
 734 91 734 91 725 70 c 128,-1,15
 716 49 716 49 700 33 c 128,-1,16
 684 17 684 17 663 8 c 128,-1,17
 642 -1 642 -1 618 -1 c 2,18,-1
 32 -1 l 1,19,-1
 32 79 l 1,20,-1
 170 79 l 1,21,22
 197 135 197 135 204 188.5 c 128,-1,23
 211 242 211 242 208.5 295 c 128,-1,24
 206 348 206 348 199.5 402.5 c 128,-1,25
 193 457 193 457 193 515 c 0,26,27
 193 539 193 539 202 560.5 c 128,-1,28
 211 582 211 582 227 598 c 128,-1,29
 243 614 243 614 264.5 623 c 128,-1,30
 286 632 286 632 310 632 c 2,31,-1
 618 632 l 2,32,33
 642 632 642 632 663 623 c 128,-1,34
 684 614 684 614 700 598 c 128,-1,35
 716 582 716 582 725 561 c 128,-1,36
 734 540 734 540 734 516 c 2,37,-1
 734 440 l 1,38,-1
 642 440 l 1,39,-1
 642 498 l 2,40,41
 642 517 642 517 641 527.5 c 128,-1,42
 640 538 640 538 634.5 543.5 c 128,-1,43
 629 549 629 549 618.5 550.5 c 128,-1,44
 608 552 608 552 589 552 c 2,45,-1
 339 552 l 2,46,47
 320 552 320 552 309.5 550.5 c 128,-1,48
 299 549 299 549 293.5 543.5 c 128,-1,49
 288 538 288 538 286.5 527.5 c 128,-1,50
 285 517 285 517 285 498 c 0,51,52
 285 433 285 433 291 376 c 128,-1,53
 297 319 297 319 300 268 c 128,-1,54
 303 217 303 217 297.5 170.5 c 128,-1,55
 292 124 292 124 269 79 c 1,4,-1
EndSplineSet
EndChar

StartChar: currency
Encoding: 164 164 101
Width: 729
GlyphClass: 2
Flags: W
LayerCount: 2
Fore
SplineSet
671 185 m 0,0,1
 647 130 647 130 605 85 c 1,2,-1
 680 -10 l 1,3,-1
 608 -67 l 1,4,-1
 533 28 l 1,5,6
 523 23 523 23 513.5 18 c 128,-1,7
 504 13 504 13 494 9 c 0,8,9
 433 -18 433 -18 364 -18 c 0,10,11
 297 -18 297 -18 235 9 c 0,12,13
 224 13 224 13 214.5 18 c 128,-1,14
 205 23 205 23 196 28 c 1,15,-1
 120 -67 l 1,16,-1
 49 -10 l 1,17,-1
 124 85 l 1,18,19
 82 130 82 130 58 185 c 0,20,21
 32 248 32 248 32 315 c 0,22,23
 32 381 32 381 58 444 c 0,24,25
 83 501 83 501 124 544 c 1,26,-1
 49 639 l 1,27,-1
 120 696 l 1,28,-1
 196 601 l 1,29,30
 205 607 205 607 214.5 611.5 c 128,-1,31
 224 616 224 616 235 621 c 0,32,33
 298 647 298 647 364 647 c 0,34,35
 431 647 431 647 494 621 c 0,36,37
 504 616 504 616 513.5 611.5 c 128,-1,38
 523 607 523 607 533 601 c 1,39,-1
 608 696 l 1,40,-1
 680 639 l 1,41,-1
 605 544 l 1,42,43
 646 501 646 501 671 444 c 0,44,45
 697 381 697 381 697 315 c 0,46,47
 697 248 697 248 671 185 c 0,0,1
543 163 m 0,48,49
 569 194 569 194 583.5 232.5 c 128,-1,50
 598 271 598 271 598 315 c 0,51,52
 598 358 598 358 583.5 396.5 c 128,-1,53
 569 435 569 435 543 466 c 0,54,55
 528 483 528 483 510 497.5 c 128,-1,56
 492 512 492 512 471 523 c 0,57,58
 422 549 422 549 364 549 c 0,59,60
 307 549 307 549 258 523 c 0,61,62
 237 512 237 512 219 497.5 c 128,-1,63
 201 483 201 483 186 466 c 0,64,65
 160 435 160 435 145 396.5 c 128,-1,66
 130 358 130 358 130 315 c 0,67,68
 130 271 130 271 145 232.5 c 128,-1,69
 160 194 160 194 186 163 c 0,70,71
 216 129 216 129 258 106 c 0,72,73
 308 81 308 81 364 81 c 0,74,75
 421 81 421 81 471 106 c 0,76,77
 513 129 513 129 543 163 c 0,48,49
EndSplineSet
EndChar

StartChar: yen
Encoding: 165 165 102
Width: 695
GlyphClass: 2
Flags: W
LayerCount: 2
Fore
SplineSet
302 189 m 1,0,-1
 302 217 l 1,1,-1
 148 217 l 2,2,3
 124 217 124 217 103 226 c 128,-1,4
 82 235 82 235 66 251 c 128,-1,5
 50 267 50 267 41 288 c 128,-1,6
 32 309 32 309 32 333 c 2,7,-1
 32 631 l 1,8,-1
 124 631 l 1,9,-1
 124 350 l 2,10,11
 124 331 124 331 125.5 320.5 c 128,-1,12
 127 310 127 310 132 305 c 128,-1,13
 137 300 137 300 147.5 298.5 c 128,-1,14
 158 297 158 297 177 297 c 2,15,-1
 480 297 l 1,16,-1
 480 631 l 1,17,-1
 572 631 l 1,18,-1
 572 297 l 1,19,-1
 663 297 l 1,20,-1
 663 217 l 1,21,-1
 393 217 l 1,22,-1
 393 189 l 1,23,-1
 522 189 l 1,24,-1
 522 139 l 1,25,-1
 393 139 l 1,26,-1
 393 119 l 1,27,-1
 522 119 l 1,28,-1
 522 69 l 1,29,-1
 393 69 l 1,30,-1
 393 0 l 1,31,-1
 302 0 l 1,32,-1
 302 69 l 1,33,-1
 166 69 l 1,34,-1
 166 119 l 1,35,-1
 302 119 l 1,36,-1
 302 139 l 1,37,-1
 166 139 l 1,38,-1
 166 189 l 1,39,-1
 302 189 l 1,0,-1
EndSplineSet
EndChar

StartChar: brokenbar
Encoding: 166 166 103
Width: 154
GlyphClass: 2
Flags: W
LayerCount: 2
Fore
SplineSet
122 631 m 1,0,-1
 122 347 l 1,1,-1
 32 347 l 1,2,-1
 32 631 l 1,3,-1
 122 631 l 1,0,-1
32 284 m 1,4,-1
 122 284 l 1,5,-1
 122 0 l 1,6,-1
 32 0 l 1,7,-1
 32 284 l 1,4,-1
EndSplineSet
EndChar

StartChar: section
Encoding: 167 167 104
Width: 695
GlyphClass: 2
Flags: W
LayerCount: 2
Fore
SplineSet
547 362 m 2,0,1
 571 362 571 362 592 353 c 128,-1,2
 613 344 613 344 629 328 c 128,-1,3
 645 312 645 312 654 291 c 128,-1,4
 663 270 663 270 663 246 c 2,5,-1
 663 -23 l 1,6,-1
 662 -23 l 1,7,8
 663 -27 663 -27 663 -34 c 2,9,-1
 663 -269 l 1,10,-1
 32 -269 l 1,11,-1
 32 -189 l 1,12,-1
 572 -189 l 1,13,-1
 572 -52 l 2,14,15
 572 -33 572 -33 570.5 -22.5 c 128,-1,16
 569 -12 569 -12 563.5 -6.5 c 128,-1,17
 558 -1 558 -1 547.5 0.5 c 128,-1,18
 537 2 537 2 518 2 c 2,19,-1
 32 2 l 1,20,-1
 32 82 l 1,21,-1
 124 82 l 1,22,-1
 124 282 l 1,23,-1
 32 282 l 1,24,-1
 32 362 l 1,25,-1
 124 362 l 1,26,-1
 124 551 l 1,27,-1
 32 551 l 1,28,-1
 32 631 l 1,29,-1
 663 631 l 1,30,-1
 663 551 l 1,31,-1
 215 551 l 1,32,-1
 215 362 l 1,33,-1
 547 362 l 2,0,1
547 82 m 2,34,35
 560 82 560 82 572 79 c 1,36,-1
 572 228 l 2,37,38
 572 247 572 247 570.5 257.5 c 128,-1,39
 569 268 569 268 563.5 273.5 c 128,-1,40
 558 279 558 279 547.5 280.5 c 128,-1,41
 537 282 537 282 518 282 c 2,42,-1
 215 282 l 1,43,-1
 215 82 l 1,44,-1
 547 82 l 2,34,35
EndSplineSet
EndChar

StartChar: dieresis
Encoding: 168 168 105
Width: 393
GlyphClass: 2
Flags: W
LayerCount: 2
Fore
SplineSet
104 818 m 256,0,1
 134 818 134 818 155.5 796.5 c 128,-1,2
 177 775 177 775 177 745 c 256,3,4
 177 715 177 715 155.5 694 c 128,-1,5
 134 673 134 673 104 673 c 256,6,7
 74 673 74 673 53 694 c 128,-1,8
 32 715 32 715 32 745 c 256,9,10
 32 775 32 775 53 796.5 c 128,-1,11
 74 818 74 818 104 818 c 256,0,1
289 818 m 256,12,13
 319 818 319 818 340 796.5 c 128,-1,14
 361 775 361 775 361 745 c 256,15,16
 361 715 361 715 340 694 c 128,-1,17
 319 673 319 673 289 673 c 256,18,19
 259 673 259 673 237.5 694 c 128,-1,20
 216 715 216 715 216 745 c 256,21,22
 216 775 216 775 237.5 796.5 c 128,-1,23
 259 818 259 818 289 818 c 256,12,13
EndSplineSet
EndChar

StartChar: copyright
Encoding: 169 169 106
Width: 752
GlyphClass: 2
Flags: W
LayerCount: 2
Fore
SplineSet
599 173 m 2,0,1
 599 138 599 138 575 114.5 c 128,-1,2
 551 91 551 91 517 91 c 2,3,-1
 152 91 l 1,4,-1
 152 155 l 1,5,-1
 217 155 l 1,6,-1
 217 455 l 2,7,8
 217 490 217 490 241 514 c 128,-1,9
 265 538 265 538 299 538 c 2,10,-1
 599 538 l 1,11,-1
 599 402 l 1,12,-1
 534 402 l 1,13,-1
 534 473 l 1,14,-1
 320 473 l 2,15,16
 304 473 304 473 293 462 c 128,-1,17
 282 451 282 451 282 435 c 2,18,-1
 282 155 l 1,19,-1
 497 155 l 2,20,21
 512 155 512 155 523 166 c 128,-1,22
 534 177 534 177 534 193 c 2,23,-1
 534 227 l 1,24,-1
 599 227 l 1,25,-1
 599 173 l 2,0,1
720 634 m 1,26,-1
 720 -3 l 1,27,-1
 688 -3 l 1,28,-1
 656 -3 l 1,29,-1
 32 -3 l 1,30,-1
 32 0 l 1,31,-1
 32 61 l 1,32,-1
 32 634 l 1,33,-1
 34 634 l 1,34,-1
 34 634 l 1,35,-1
 688 634 l 1,36,-1
 688 634 l 1,37,-1
 720 634 l 1,26,-1
656 570 m 1,38,-1
 96 570 l 1,39,-1
 96 61 l 1,40,-1
 656 61 l 1,41,-1
 656 570 l 1,38,-1
EndSplineSet
EndChar

StartChar: ordfeminine
Encoding: 170 170 107
Width: 477
GlyphClass: 2
Flags: W
LayerCount: 2
Fore
SplineSet
445 391 m 1,0,-1
 445 317 l 1,1,-1
 124 317 l 2,2,3
 105 317 105 317 88 324 c 128,-1,4
 71 331 71 331 58.5 343.5 c 128,-1,5
 46 356 46 356 39 373 c 128,-1,6
 32 390 32 390 32 409 c 2,7,-1
 32 520 l 1,8,-1
 299 520 l 1,9,-1
 299 556 l 1,10,-1
 32 556 l 1,11,-1
 32 631 l 1,12,-1
 444 631 l 1,13,-1
 444 556 l 1,14,-1
 371 556 l 1,15,-1
 371 391 l 1,16,-1
 445 391 l 1,0,-1
299 446 m 1,17,-1
 105 446 l 1,18,-1
 105 425 l 2,19,20
 105 400 105 400 113.5 395.5 c 128,-1,21
 122 391 122 391 147 391 c 2,22,-1
 299 391 l 1,23,-1
 299 446 l 1,17,-1
EndSplineSet
EndChar

StartChar: logicalnot
Encoding: 172 172 109
Width: 461
GlyphClass: 2
Flags: W
LayerCount: 2
Fore
SplineSet
429 356 m 1,0,-1
 429 112 l 1,1,-1
 338 112 l 1,2,-1
 338 276 l 1,3,-1
 32 276 l 1,4,-1
 32 356 l 1,5,-1
 429 356 l 1,0,-1
EndSplineSet
EndChar

StartChar: registered
Encoding: 174 174 110
Width: 515
GlyphClass: 2
Flags: W
LayerCount: 2
Fore
SplineSet
152 381 m 1,0,-1
 109 381 l 1,1,-1
 109 423 l 1,2,-1
 152 423 l 1,3,-1
 152 525 l 1,4,-1
 109 525 l 1,5,-1
 109 568 l 1,6,-1
 152 568 l 1,7,-1
 195 568 l 1,8,-1
 360 568 l 1,9,-1
 403 568 l 1,10,-1
 403 568 l 1,11,-1
 403 435 l 2,12,13
 403 412 403 412 387.5 396.5 c 128,-1,14
 372 381 372 381 349 381 c 2,15,-1
 258 381 l 1,16,-1
 258 342 l 2,17,18
 258 331 258 331 265 324 c 128,-1,19
 272 317 272 317 283 317 c 2,20,-1
 403 317 l 1,21,-1
 403 275 l 1,22,-1
 269 275 l 2,23,24
 247 275 247 275 231.5 290.5 c 128,-1,25
 216 306 216 306 216 329 c 2,26,-1
 216 381 l 1,27,-1
 195 381 l 1,28,-1
 195 275 l 1,29,-1
 152 275 l 1,30,-1
 152 381 l 1,0,-1
195 423 m 1,31,-1
 335 423 l 2,32,33
 346 423 346 423 353 430.5 c 128,-1,34
 360 438 360 438 360 448 c 2,35,-1
 360 525 l 1,36,-1
 195 525 l 1,37,-1
 195 423 l 1,31,-1
483 631 m 1,38,-1
 483 214 l 1,39,-1
 462 214 l 1,40,-1
 441 214 l 1,41,-1
 32 214 l 1,42,-1
 32 216 l 1,43,-1
 32 256 l 1,44,-1
 32 631 l 1,45,-1
 33 631 l 1,46,-1
 33 631 l 1,47,-1
 462 631 l 1,48,-1
 462 631 l 1,49,-1
 483 631 l 1,38,-1
441 589 m 1,50,-1
 74 589 l 1,51,-1
 74 256 l 1,52,-1
 441 256 l 1,53,-1
 441 589 l 1,50,-1
EndSplineSet
EndChar

StartChar: macron
Encoding: 175 175 111
Width: 350
GlyphClass: 2
Flags: W
LayerCount: 2
Fore
SplineSet
318 631 m 1,0,-1
 318 562 l 1,1,-1
 32 562 l 1,2,-1
 32 631 l 1,3,-1
 318 631 l 1,0,-1
EndSplineSet
EndChar

StartChar: degree
Encoding: 176 176 112
Width: 476
GlyphClass: 2
Flags: W
LayerCount: 2
Fore
SplineSet
177 431 m 2,0,1
 177 413 177 413 184.5 400.5 c 128,-1,2
 192 388 192 388 210 388 c 2,3,-1
 444 388 l 1,4,-1
 444 315 l 1,5,-1
 197 315 l 2,6,7
 178 315 178 315 161 322.5 c 128,-1,8
 144 330 144 330 131.5 342.5 c 128,-1,9
 119 355 119 355 112 372 c 128,-1,10
 105 389 105 389 105 408 c 2,11,-1
 105 558 l 1,12,-1
 32 558 l 1,13,-1
 32 631 l 1,14,-1
 352 631 l 2,15,16
 371 631 371 631 388 624 c 128,-1,17
 405 617 405 617 417.5 604.5 c 128,-1,18
 430 592 430 592 437 575 c 128,-1,19
 444 558 444 558 444 539 c 2,20,-1
 444 403 l 1,21,-1
 371 403 l 1,22,-1
 371 516 l 2,23,24
 371 533 371 533 358.5 545.5 c 128,-1,25
 346 558 346 558 329 558 c 2,26,-1
 177 558 l 1,27,-1
 177 431 l 2,0,1
EndSplineSet
EndChar

StartChar: plusminus
Encoding: 177 177 113
Width: 461
GlyphClass: 2
Flags: W
LayerCount: 2
Fore
SplineSet
32 80 m 1,0,-1
 429 80 l 1,1,-1
 429 0 l 1,2,-1
 32 0 l 1,3,-1
 32 80 l 1,0,-1
429 356 m 1,4,-1
 429 276 l 1,5,-1
 275 276 l 1,6,-1
 275 117 l 1,7,-1
 185 117 l 1,8,-1
 185 276 l 1,9,-1
 32 276 l 1,10,-1
 32 356 l 1,11,-1
 185 356 l 1,12,-1
 185 514 l 1,13,-1
 275 514 l 1,14,-1
 275 356 l 1,15,-1
 429 356 l 1,4,-1
EndSplineSet
EndChar

StartChar: twosuperior
Encoding: 178 178 114
Width: 380
GlyphClass: 2
Flags: W
LayerCount: 2
Fore
SplineSet
290 631 m 2,0,1
 314 631 314 631 331 614 c 128,-1,2
 348 597 348 597 348 573 c 2,3,-1
 348 428 l 1,4,-1
 153 428 l 1,5,-1
 153 391 l 1,6,-1
 347 391 l 1,7,-1
 347 316 l 1,8,-1
 32 316 l 1,9,-1
 32 391 l 1,10,-1
 78 391 l 1,11,-1
 78 428 l 1,12,-1
 32 428 l 1,13,-1
 32 503 l 1,14,-1
 272 503 l 1,15,-1
 272 529 l 2,16,17
 272 548 272 548 268 552 c 128,-1,18
 264 556 264 556 245 556 c 2,19,-1
 32 556 l 1,20,-1
 32 631 l 1,21,-1
 290 631 l 2,0,1
EndSplineSet
EndChar

StartChar: threesuperior
Encoding: 179 179 115
Width: 380
GlyphClass: 2
Flags: W
LayerCount: 2
Fore
SplineSet
301 428 m 1,0,-1
 301 391 l 1,1,-1
 348 391 l 1,2,-1
 348 316 l 1,3,-1
 32 316 l 1,4,-1
 32 391 l 1,5,-1
 226 391 l 1,6,-1
 226 428 l 1,7,-1
 124 428 l 1,8,-1
 124 503 l 1,9,-1
 226 503 l 1,10,-1
 226 529 l 2,11,12
 226 548 226 548 222 552 c 128,-1,13
 218 556 218 556 199 556 c 2,14,-1
 32 556 l 1,15,-1
 32 631 l 1,16,-1
 243 631 l 2,17,18
 267 631 267 631 284 614 c 128,-1,19
 301 597 301 597 301 573 c 2,20,-1
 301 503 l 1,21,-1
 348 503 l 1,22,-1
 348 428 l 1,23,-1
 301 428 l 1,0,-1
EndSplineSet
EndChar

StartChar: acute
Encoding: 180 180 116
Width: 235
GlyphClass: 2
Flags: W
LayerCount: 2
Fore
SplineSet
51 878 m 1,0,-1
 161 878 l 1,1,-1
 84 681 l 1,2,-1
 -6 681 l 1,3,-1
 51 878 l 1,0,-1
EndSplineSet
EndChar

StartChar: paragraph
Encoding: 182 182 117
Width: 634
GlyphClass: 2
Flags: W
LayerCount: 2
Fore
SplineSet
602 631 m 1,0,-1
 602 0 l 1,1,-1
 511 0 l 1,2,-1
 511 551 l 1,3,-1
 460 551 l 1,4,-1
 460 0 l 1,5,-1
 368 0 l 1,6,-1
 368 234 l 1,7,-1
 32 234 l 1,8,-1
 32 515 l 2,9,10
 32 539 32 539 41 560 c 128,-1,11
 50 581 50 581 66 597 c 128,-1,12
 82 613 82 613 103 622 c 128,-1,13
 124 631 124 631 148 631 c 2,14,-1
 602 631 l 1,0,-1
368 551 m 1,15,-1
 175 551 l 2,16,17
 156 551 156 551 146 550 c 128,-1,18
 136 549 136 549 131 543.5 c 128,-1,19
 126 538 126 538 125 527.5 c 128,-1,20
 124 517 124 517 124 498 c 2,21,-1
 124 314 l 1,22,-1
 368 314 l 1,23,-1
 368 551 l 1,15,-1
EndSplineSet
EndChar

StartChar: periodcentered
Encoding: 183 183 118
Width: 176
GlyphClass: 2
Flags: W
LayerCount: 2
Fore
SplineSet
88 372 m 256,0,1
 111 372 111 372 127.5 355 c 128,-1,2
 144 338 144 338 144 315 c 256,3,4
 144 292 144 292 127.5 275.5 c 128,-1,5
 111 259 111 259 88 259 c 256,6,7
 65 259 65 259 48.5 275.5 c 128,-1,8
 32 292 32 292 32 315 c 256,9,10
 32 338 32 338 48.5 355 c 128,-1,11
 65 372 65 372 88 372 c 256,0,1
EndSplineSet
EndChar

StartChar: cedilla
Encoding: 184 184 119
Width: 256
GlyphClass: 2
Flags: W
LayerCount: 2
Fore
SplineSet
176 -25 m 1,0,1
 202 -30 202 -30 215 -52 c 128,-1,2
 228 -74 228 -74 228 -100 c 0,3,4
 228 -124 228 -124 216.5 -146.5 c 128,-1,5
 205 -169 205 -169 181.5 -182 c 128,-1,6
 158 -195 158 -195 122.5 -195.5 c 128,-1,7
 87 -196 87 -196 39 -177 c 1,8,-1
 63 -111 l 1,9,10
 81 -117 81 -117 98.5 -118 c 128,-1,11
 116 -119 116 -119 129.5 -116.5 c 128,-1,12
 143 -114 143 -114 151.5 -107.5 c 128,-1,13
 160 -101 160 -101 160 -91 c 0,14,15
 160 -79 160 -79 145.5 -66.5 c 128,-1,16
 131 -54 131 -54 95 -54 c 1,17,-1
 129 93 l 1,18,-1
 210 93 l 1,19,-1
 176 -25 l 1,0,1
EndSplineSet
EndChar

StartChar: onesuperior
Encoding: 185 185 120
Width: 237
GlyphClass: 2
Flags: W
LayerCount: 2
Fore
SplineSet
205 631 m 1,0,-1
 205 316 l 1,1,-1
 129 316 l 1,2,-1
 129 556 l 1,3,-1
 32 556 l 1,4,-1
 32 631 l 1,5,-1
 205 631 l 1,0,-1
EndSplineSet
EndChar

StartChar: ordmasculine
Encoding: 186 186 121
Width: 400
GlyphClass: 2
Flags: W
LayerCount: 2
Fore
SplineSet
310 632 m 2,0,1
 334 632 334 632 351 615 c 128,-1,2
 368 598 368 598 368 574 c 2,3,-1
 368 316 l 1,4,-1
 136 316 l 2,5,6
 112 316 112 316 95 333 c 128,-1,7
 78 350 78 350 78 374 c 2,8,-1
 78 557 l 1,9,-1
 32 557 l 1,10,-1
 32 632 l 1,11,-1
 310 632 l 2,0,1
293 530 m 2,12,13
 293 549 293 549 289 553 c 128,-1,14
 285 557 285 557 266 557 c 2,15,-1
 153 557 l 1,16,-1
 153 418 l 2,17,18
 153 399 153 399 157 395 c 128,-1,19
 161 391 161 391 180 391 c 2,20,-1
 293 391 l 1,21,-1
 293 530 l 2,12,13
EndSplineSet
EndChar

StartChar: onequarter
Encoding: 188 188 123
Width: 770
GlyphClass: 2
Flags: W
LayerCount: 2
Fore
SplineSet
553 631 m 1,0,-1
 161 0 l 1,1,-1
 62 0 l 1,2,-1
 454 631 l 1,3,-1
 553 631 l 1,0,-1
205 631 m 1,4,-1
 205 316 l 1,5,-1
 129 316 l 1,6,-1
 129 556 l 1,7,-1
 32 556 l 1,8,-1
 32 631 l 1,9,-1
 205 631 l 1,4,-1
738 165 m 1,10,-1
 738 90 l 1,11,-1
 692 90 l 1,12,-1
 692 0 l 1,13,-1
 616 0 l 1,14,-1
 616 90 l 1,15,-1
 460 90 l 2,16,17
 436 90 436 90 419 107 c 128,-1,18
 402 124 402 124 402 148 c 2,19,-1
 402 316 l 1,20,-1
 477 316 l 1,21,-1
 477 192 l 2,22,23
 477 173 477 173 481 169 c 128,-1,24
 485 165 485 165 504 165 c 2,25,-1
 616 165 l 1,26,-1
 616 316 l 1,27,-1
 692 316 l 1,28,-1
 692 165 l 1,29,-1
 738 165 l 1,10,-1
EndSplineSet
Ligature2: "'frac' Diagonal Fractions lookup 2 subtable" one fraction four
Ligature2: "'frac' Diagonal Fractions lookup 2 subtable" one slash four
EndChar

StartChar: threequarters
Encoding: 190 190 125
Width: 915
GlyphClass: 2
Flags: W
LayerCount: 2
Fore
SplineSet
301 428 m 1,0,-1
 301 391 l 1,1,-1
 348 391 l 1,2,-1
 348 316 l 1,3,-1
 32 316 l 1,4,-1
 32 391 l 1,5,-1
 226 391 l 1,6,-1
 226 428 l 1,7,-1
 124 428 l 1,8,-1
 124 503 l 1,9,-1
 226 503 l 1,10,-1
 226 529 l 2,11,12
 226 548 226 548 222 552 c 128,-1,13
 218 556 218 556 199 556 c 2,14,-1
 32 556 l 1,15,-1
 32 631 l 1,16,-1
 243 631 l 2,17,18
 267 631 267 631 284 614 c 128,-1,19
 301 597 301 597 301 573 c 2,20,-1
 301 503 l 1,21,-1
 348 503 l 1,22,-1
 348 428 l 1,23,-1
 301 428 l 1,0,-1
698 631 m 1,24,-1
 306 0 l 1,25,-1
 207 0 l 1,26,-1
 599 631 l 1,27,-1
 698 631 l 1,24,-1
883 165 m 1,28,-1
 883 90 l 1,29,-1
 837 90 l 1,30,-1
 837 0 l 1,31,-1
 761 0 l 1,32,-1
 761 90 l 1,33,-1
 605 90 l 2,34,35
 581 90 581 90 564 107 c 128,-1,36
 547 124 547 124 547 148 c 2,37,-1
 547 316 l 1,38,-1
 622 316 l 1,39,-1
 622 192 l 2,40,41
 622 173 622 173 626 169 c 128,-1,42
 630 165 630 165 649 165 c 2,43,-1
 761 165 l 1,44,-1
 761 316 l 1,45,-1
 837 316 l 1,46,-1
 837 165 l 1,47,-1
 883 165 l 1,28,-1
EndSplineSet
Ligature2: "'frac' Diagonal Fractions lookup 2 subtable" three fraction four
Ligature2: "'frac' Diagonal Fractions lookup 2 subtable" three slash four
EndChar

StartChar: AE
Encoding: 198 198 133
Width: 1143
GlyphClass: 3
Flags: W
LayerCount: 2
Fore
SplineSet
1020 491 m 1,0,-1
 1020 551 l 1,1,-1
 663 551 l 1,2,-1
 663 397 l 1,3,-1
 1000 397 l 1,4,-1
 1000 317 l 1,5,-1
 663 317 l 1,6,-1
 663 133 l 2,7,8
 663 114 663 114 664.5 103.5 c 128,-1,9
 666 93 666 93 671.5 88 c 128,-1,10
 677 83 677 83 687.5 81.5 c 128,-1,11
 698 80 698 80 717 80 c 2,12,-1
 966 80 l 2,13,14
 985 80 985 80 995.5 81.5 c 128,-1,15
 1006 83 1006 83 1011.5 88 c 128,-1,16
 1017 93 1017 93 1018.5 103.5 c 128,-1,17
 1020 114 1020 114 1020 133 c 2,18,-1
 1020 193 l 1,19,-1
 1111 193 l 1,20,-1
 1111 116 l 2,21,22
 1111 92 1111 92 1102 71 c 128,-1,23
 1093 50 1093 50 1077 34 c 128,-1,24
 1061 18 1061 18 1040 9 c 128,-1,25
 1019 0 1019 0 995 0 c 2,26,-1
 688 0 l 2,27,28
 664 0 664 0 643 9 c 128,-1,29
 622 18 622 18 606 34 c 128,-1,30
 590 50 590 50 581 71 c 128,-1,31
 572 92 572 92 572 116 c 2,32,-1
 572 317 l 1,33,-1
 215 317 l 1,34,-1
 215 0 l 1,35,-1
 124 0 l 1,36,-1
 124 317 l 1,37,-1
 32 317 l 1,38,-1
 32 397 l 1,39,-1
 124 397 l 1,40,-1
 124 551 l 1,41,-1
 32 551 l 1,42,-1
 32 631 l 1,43,-1
 1111 631 l 1,44,-1
 1111 491 l 1,45,-1
 1020 491 l 1,0,-1
572 498 m 2,46,47
 572 516 572 516 570.5 527 c 128,-1,48
 569 538 569 538 564 543 c 128,-1,49
 559 548 559 548 548.5 549.5 c 128,-1,50
 538 551 538 551 520 551 c 2,51,-1
 215 551 l 1,52,-1
 215 397 l 1,53,-1
 572 397 l 1,54,-1
 572 498 l 2,46,47
EndSplineSet
EndChar

StartChar: Eth
Encoding: 208 208 143
Width: 713
GlyphClass: 2
Flags: W
LayerCount: 2
Fore
SplineSet
681 627 m 1,0,-1
 681 112 l 2,1,2
 681 88 681 88 672 67 c 128,-1,3
 663 46 663 46 647 30 c 128,-1,4
 631 14 631 14 610 5 c 128,-1,5
 589 -4 589 -4 565 -4 c 2,6,-1
 233 -4 l 1,7,-1
 233 -4 l 1,8,-1
 142 -4 l 1,9,-1
 142 -4 l 1,10,-1
 50 -4 l 1,11,-1
 50 88 l 1,12,-1
 142 88 l 1,13,-1
 142 267 l 1,14,-1
 32 267 l 1,15,-1
 32 358 l 1,16,-1
 142 358 l 1,17,-1
 142 535 l 1,18,-1
 50 535 l 1,19,-1
 50 627 l 1,20,-1
 142 627 l 1,21,-1
 233 627 l 1,22,-1
 681 627 l 1,0,-1
590 535 m 1,23,-1
 233 535 l 1,24,-1
 233 358 l 1,25,-1
 343 358 l 1,26,-1
 343 267 l 1,27,-1
 233 267 l 1,28,-1
 233 88 l 1,29,-1
 536 88 l 2,30,31
 559 88 559 88 574.5 103.5 c 128,-1,32
 590 119 590 119 590 141 c 2,33,-1
 590 535 l 1,23,-1
EndSplineSet
EndChar

StartChar: multiply
Encoding: 215 215 150
Width: 408
GlyphClass: 2
Flags: W
LayerCount: 2
Fore
SplineSet
268 316 m 1,0,-1
 376 208 l 1,1,-1
 312 144 l 1,2,-1
 204 252 l 1,3,-1
 96 144 l 1,4,-1
 32 208 l 1,5,-1
 140 316 l 1,6,-1
 32 424 l 1,7,-1
 96 488 l 1,8,-1
 204 380 l 1,9,-1
 312 488 l 1,10,-1
 376 424 l 1,11,-1
 268 316 l 1,0,-1
EndSplineSet
EndChar

StartChar: Oslash
Encoding: 216 216 151
Width: 695
GlyphClass: 2
Flags: W
LayerCount: 2
Fore
SplineSet
347 397 m 1,0,-1
 347 309 l 1,1,-1
 392 397 l 1,2,-1
 347 397 l 1,0,-1
439 397 m 1,3,-1
 392 397 l 1,4,-1
 471 551 l 1,5,-1
 215 551 l 1,6,-1
 215 133 l 2,7,8
 215 109 215 109 218 98 c 128,-1,9
 221 87 221 87 232 83 c 1,10,-1
 347 309 l 1,11,-1
 347 235 l 1,12,-1
 407 235 l 1,13,-1
 327 80 l 1,14,-1
 518 80 l 2,15,16
 537 80 537 80 547.5 81.5 c 128,-1,17
 558 83 558 83 563.5 88 c 128,-1,18
 569 93 569 93 570.5 103.5 c 128,-1,19
 572 114 572 114 572 133 c 2,20,-1
 572 551 l 1,21,-1
 569 551 l 1,22,-1
 439 298 l 1,23,-1
 439 397 l 1,3,-1
407 235 m 1,24,-1
 439 235 l 1,25,-1
 439 298 l 1,26,-1
 407 235 l 1,24,-1
662 733 m 1,27,-1
 610 631 l 1,28,-1
 663 631 l 1,29,-1
 663 116 l 2,30,31
 663 92 663 92 654 71 c 128,-1,32
 645 50 645 50 629 34 c 128,-1,33
 613 18 613 18 592 9 c 128,-1,34
 571 0 571 0 547 0 c 2,35,-1
 286 0 l 1,36,-1
 234 -102 l 1,37,-1
 137 -102 l 1,38,-1
 194 10 l 1,39,40
 163 23 163 23 143.5 51.5 c 128,-1,41
 124 80 124 80 124 116 c 2,42,-1
 124 551 l 1,43,-1
 32 551 l 1,44,-1
 32 631 l 1,45,-1
 512 631 l 1,46,-1
 564 733 l 1,47,-1
 662 733 l 1,27,-1
EndSplineSet
EndChar

StartChar: Thorn
Encoding: 222 222 157
Width: 695
GlyphClass: 2
Flags: W
LayerCount: 2
Fore
SplineSet
124 517 m 1,0,-1
 124 631 l 1,1,-1
 215 631 l 1,2,-1
 215 517 l 1,3,-1
 663 517 l 1,4,-1
 663 230 l 2,5,6
 663 206 663 206 654 185 c 128,-1,7
 645 164 645 164 629 148 c 128,-1,8
 613 132 613 132 592 123 c 128,-1,9
 571 114 571 114 547 114 c 2,10,-1
 215 114 l 1,11,-1
 215 0 l 1,12,-1
 124 0 l 1,13,-1
 124 114 l 1,14,-1
 32 114 l 1,15,-1
 32 194 l 1,16,-1
 124 194 l 1,17,-1
 124 437 l 1,18,-1
 32 437 l 1,19,-1
 32 517 l 1,20,-1
 124 517 l 1,0,-1
572 437 m 1,21,-1
 215 437 l 1,22,-1
 215 194 l 1,23,-1
 518 194 l 2,24,25
 537 194 537 194 547.5 195.5 c 128,-1,26
 558 197 558 197 563.5 202 c 128,-1,27
 569 207 569 207 570.5 217.5 c 128,-1,28
 572 228 572 228 572 247 c 2,29,-1
 572 437 l 1,21,-1
EndSplineSet
EndChar

StartChar: germandbls
Encoding: 223 223 158
Width: 695
GlyphClass: 3
Flags: W
LayerCount: 2
Fore
SplineSet
285 80 m 1,0,-1
 518 80 l 2,1,2
 537 80 537 80 547.5 81.5 c 128,-1,3
 558 83 558 83 563.5 88.5 c 128,-1,4
 569 94 569 94 570.5 104.5 c 128,-1,5
 572 115 572 115 572 134 c 2,6,-1
 572 300 l 1,7,-1
 285 300 l 1,8,-1
 285 380 l 1,9,-1
 459 380 l 2,10,11
 478 380 478 380 488.5 381.5 c 128,-1,12
 499 383 499 383 504.5 388 c 128,-1,13
 510 393 510 393 511.5 403.5 c 128,-1,14
 513 414 513 414 513 433 c 2,15,-1
 513 551 l 1,16,-1
 215 551 l 1,17,-1
 215 0 l 1,18,-1
 32 0 l 1,19,-1
 32 80 l 1,20,-1
 124 80 l 1,21,-1
 124 300 l 1,22,-1
 32 300 l 1,23,-1
 32 380 l 1,24,-1
 124 380 l 1,25,-1
 124 551 l 1,26,-1
 32 551 l 1,27,-1
 32 631 l 1,28,-1
 604 631 l 1,29,-1
 604 404 l 2,30,31
 604 390 604 390 598.5 384.5 c 128,-1,32
 593 379 593 379 591 378 c 1,33,-1
 663 378 l 1,34,-1
 663 116 l 2,35,36
 663 92 663 92 654 71 c 128,-1,37
 645 50 645 50 629 34 c 128,-1,38
 613 18 613 18 592 9 c 128,-1,39
 571 0 571 0 547 0 c 2,40,-1
 285 0 l 1,41,-1
 285 80 l 1,0,-1
EndSplineSet
EndChar

StartChar: ae
Encoding: 230 230 165
Width: 829
GlyphClass: 3
Flags: W
LayerCount: 2
Fore
SplineSet
777 80 m 1,0,-1
 777 0 l 1,1,-1
 485 0 l 2,2,3
 461 0 461 0 440 9 c 128,-1,4
 419 18 419 18 403 34 c 128,-1,5
 387 50 387 50 378 71 c 128,-1,6
 369 92 369 92 369 116 c 2,7,-1
 369 143 l 1,8,-1
 124 143 l 1,9,-1
 124 132 l 2,10,11
 124 113 124 113 125.5 102.5 c 128,-1,12
 127 92 127 92 132 87 c 128,-1,13
 137 82 137 82 147.5 81 c 128,-1,14
 158 80 158 80 177 80 c 2,15,-1
 339 80 l 1,16,-1
 339 0 l 1,17,-1
 148 0 l 2,18,19
 124 0 124 0 103 9 c 128,-1,20
 82 18 82 18 66 34 c 128,-1,21
 50 50 50 50 41 71 c 128,-1,22
 32 92 32 92 32 116 c 2,23,-1
 32 223 l 1,24,-1
 368 223 l 1,25,-1
 368 317 l 1,26,-1
 42 317 l 1,27,-1
 42 397 l 1,28,-1
 797 397 l 1,29,-1
 797 259 l 2,30,31
 797 235 797 235 788 214 c 128,-1,32
 779 193 779 193 763 177 c 128,-1,33
 747 161 747 161 725.5 152 c 128,-1,34
 704 143 704 143 680 143 c 2,35,-1
 460 143 l 1,36,37
 460 125 460 125 461 113 c 128,-1,38
 462 101 462 101 467 93.5 c 128,-1,39
 472 86 472 86 482.5 83 c 128,-1,40
 493 80 493 80 511 80 c 2,41,-1
 777 80 l 1,0,-1
460 223 m 1,42,-1
 664 223 l 2,43,44
 683 223 683 223 693.5 224.5 c 128,-1,45
 704 226 704 226 709.5 231.5 c 128,-1,46
 715 237 715 237 716 247.5 c 128,-1,47
 717 258 717 258 717 277 c 2,48,-1
 717 317 l 1,49,-1
 460 317 l 1,50,-1
 460 223 l 1,42,-1
EndSplineSet
EndChar

StartChar: eth
Encoding: 240 240 175
Width: 695
GlyphClass: 2
Flags: W
LayerCount: 2
Fore
SplineSet
663 512 m 1,0,-1
 663 432 l 1,1,-1
 572 432 l 1,2,-1
 572 116 l 2,3,4
 572 92 572 92 563 71 c 128,-1,5
 554 50 554 50 538 34 c 128,-1,6
 522 18 522 18 501 9 c 128,-1,7
 480 0 480 0 456 0 c 2,8,-1
 32 0 l 1,9,-1
 33 284 l 2,10,11
 33 308 33 308 42 329 c 128,-1,12
 51 350 51 350 67 366 c 128,-1,13
 83 382 83 382 104 391 c 128,-1,14
 125 400 125 400 149 400 c 2,15,-1
 480 400 l 1,16,-1
 480 432 l 1,17,-1
 297 432 l 1,18,-1
 297 512 l 1,19,-1
 480 512 l 1,20,-1
 480 552 l 1,21,-1
 197 552 l 1,22,-1
 197 632 l 1,23,-1
 572 632 l 1,24,-1
 572 512 l 1,25,-1
 663 512 l 1,0,-1
480 320 m 1,26,-1
 177 320 l 2,27,28
 158 320 158 320 147.5 319 c 128,-1,29
 137 318 137 318 132 312.5 c 128,-1,30
 127 307 127 307 125.5 296.5 c 128,-1,31
 124 286 124 286 124 267 c 2,32,-1
 124 80 l 1,33,-1
 426 80 l 2,34,35
 445 80 445 80 455.5 81.5 c 128,-1,36
 466 83 466 83 471.5 88.5 c 128,-1,37
 477 94 477 94 478.5 104.5 c 128,-1,38
 480 115 480 115 480 134 c 2,39,-1
 480 320 l 1,26,-1
EndSplineSet
EndChar

StartChar: divide
Encoding: 247 247 182
Width: 461
GlyphClass: 2
Flags: W
LayerCount: 2
Fore
SplineSet
429 356 m 1,0,-1
 429 276 l 1,1,-1
 32 276 l 1,2,-1
 32 356 l 1,3,-1
 429 356 l 1,0,-1
230 240 m 256,4,5
 260 240 260 240 281.5 219 c 128,-1,6
 303 198 303 198 303 168 c 256,7,8
 303 138 303 138 281.5 117 c 128,-1,9
 260 96 260 96 230 96 c 256,10,11
 200 96 200 96 179 117 c 128,-1,12
 158 138 158 138 158 168 c 256,13,14
 158 198 158 198 179 219 c 128,-1,15
 200 240 200 240 230 240 c 256,4,5
230 391 m 256,16,17
 200 391 200 391 179 412.5 c 128,-1,18
 158 434 158 434 158 464 c 0,19,20
 158 493 158 493 179 514.5 c 128,-1,21
 200 536 200 536 230 536 c 256,22,23
 260 536 260 536 281.5 514.5 c 128,-1,24
 303 493 303 493 303 464 c 0,25,26
 303 434 303 434 281.5 412.5 c 128,-1,27
 260 391 260 391 230 391 c 256,16,17
EndSplineSet
EndChar

StartChar: oslash
Encoding: 248 248 183
Width: 584
GlyphClass: 2
Flags: W
LayerCount: 2
Fore
SplineSet
537 500 m 1,0,-1
 485 397 l 1,1,-1
 552 397 l 1,2,-1
 552 0 l 1,3,-1
 283 0 l 1,4,-1
 231 -103 l 1,5,-1
 134 -103 l 1,6,-1
 191 11 l 1,7,8
 162 25 162 25 143 53 c 128,-1,9
 124 81 124 81 124 116 c 2,10,-1
 124 317 l 1,11,-1
 32 317 l 1,12,-1
 32 397 l 1,13,-1
 387 397 l 1,14,-1
 439 500 l 1,15,-1
 537 500 l 1,0,-1
324 80 m 1,16,-1
 460 80 l 1,17,-1
 460 317 l 1,18,-1
 444 317 l 1,19,-1
 324 80 l 1,16,-1
215 133 m 2,20,21
 215 109 215 109 216.5 98.5 c 128,-1,22
 218 88 218 88 228 83 c 1,23,-1
 346 317 l 1,24,-1
 215 317 l 1,25,-1
 215 133 l 2,20,21
EndSplineSet
EndChar

StartChar: thorn
Encoding: 254 254 189
Width: 695
GlyphClass: 2
Flags: W
LayerCount: 2
Fore
SplineSet
124 517 m 1,0,-1
 124 731 l 1,1,-1
 215 731 l 1,2,-1
 215 517 l 1,3,-1
 663 517 l 1,4,-1
 663 230 l 2,5,6
 663 206 663 206 654 185 c 128,-1,7
 645 164 645 164 629 148 c 128,-1,8
 613 132 613 132 592 123 c 128,-1,9
 571 114 571 114 547 114 c 2,10,-1
 215 114 l 1,11,-1
 215 -100 l 1,12,-1
 124 -100 l 1,13,-1
 124 114 l 1,14,-1
 32 114 l 1,15,-1
 32 194 l 1,16,-1
 124 194 l 1,17,-1
 124 437 l 1,18,-1
 32 437 l 1,19,-1
 32 517 l 1,20,-1
 124 517 l 1,0,-1
572 437 m 1,21,-1
 215 437 l 1,22,-1
 215 194 l 1,23,-1
 518 194 l 2,24,25
 537 194 537 194 547.5 195.5 c 128,-1,26
 558 197 558 197 563.5 202 c 128,-1,27
 569 207 569 207 570.5 217.5 c 128,-1,28
 572 228 572 228 572 247 c 2,29,-1
 572 437 l 1,21,-1
EndSplineSet
EndChar

StartChar: Dcroat
Encoding: 272 272 191
Width: 745
GlyphClass: 2
Flags: W
LayerCount: 2
Fore
SplineSet
713 631 m 1,0,-1
 713 116 l 2,1,2
 713 92 713 92 704 71 c 128,-1,3
 695 50 695 50 679 34 c 128,-1,4
 663 18 663 18 642 9 c 128,-1,5
 621 0 621 0 597 0 c 2,6,-1
 82 0 l 1,7,-1
 82 92 l 1,8,-1
 174 92 l 1,9,-1
 174 539 l 1,10,-1
 82 539 l 1,11,-1
 82 631 l 1,12,-1
 713 631 l 1,0,-1
622 539 m 1,13,-1
 265 539 l 1,14,-1
 265 92 l 1,15,-1
 568 92 l 2,16,17
 587 92 587 92 597.5 93.5 c 128,-1,18
 608 95 608 95 613.5 100 c 128,-1,19
 619 105 619 105 620.5 116 c 128,-1,20
 622 127 622 127 622 145 c 2,21,-1
 622 539 l 1,13,-1
429 349 m 1,22,-1
 429 258 l 1,23,-1
 32 258 l 1,24,-1
 32 349 l 1,25,-1
 429 349 l 1,22,-1
EndSplineSet
EndChar

StartChar: dotlessi
Encoding: 305 305 193
Width: 154
GlyphClass: 2
Flags: W
LayerCount: 2
Fore
SplineSet
122 522 m 1,0,-1
 122 20 l 1,1,-1
 32 20 l 1,2,-1
 32 522 l 1,3,-1
 122 522 l 1,0,-1
EndSplineSet
EndChar

StartChar: Lslash
Encoding: 321 321 194
Width: 784
GlyphClass: 2
Flags: W
LayerCount: 2
Fore
SplineSet
212 627 m 1,0,-1
 304 627 l 1,1,-1
 304 88 l 1,2,-1
 606 88 l 2,3,4
 629 88 629 88 644.5 103 c 128,-1,5
 660 118 660 118 660 141 c 2,6,-1
 660 270 l 1,7,-1
 752 270 l 1,8,-1
 752 112 l 2,9,10
 752 88 752 88 743 67 c 128,-1,11
 734 46 734 46 718 30 c 128,-1,12
 702 14 702 14 681 5 c 128,-1,13
 660 -4 660 -4 636 -4 c 2,14,-1
 120 -4 l 1,15,-1
 120 88 l 1,16,-1
 212 88 l 1,17,-1
 212 627 l 1,0,-1
88 168 m 1,18,-1
 32 239 l 1,19,-1
 428 548 l 1,20,-1
 484 477 l 1,21,-1
 88 168 l 1,18,-1
EndSplineSet
EndChar

StartChar: lslash
Encoding: 322 322 195
Width: 431
GlyphClass: 2
Flags: W
LayerCount: 2
Fore
SplineSet
32 0 m 1,0,-1
 32 257 l 1,1,-1
 -82 168 l 1,2,-1
 -138 239 l 1,3,-1
 32 372 l 1,4,-1
 32 631 l 1,5,-1
 124 631 l 1,6,-1
 124 443 l 1,7,-1
 258 548 l 1,8,-1
 314 477 l 1,9,-1
 124 329 l 1,10,-1
 124 0 l 1,11,-1
 32 0 l 1,0,-1
EndSplineSet
EndChar

StartChar: OE
Encoding: 338 338 196
Width: 1143
GlyphClass: 3
Flags: W
LayerCount: 2
Fore
SplineSet
1020 491 m 1,0,-1
 1020 551 l 1,1,-1
 663 551 l 1,2,-1
 663 397 l 1,3,-1
 1000 397 l 1,4,-1
 1000 317 l 1,5,-1
 663 317 l 1,6,-1
 663 133 l 2,7,8
 663 114 663 114 664.5 103.5 c 128,-1,9
 666 93 666 93 671.5 88 c 128,-1,10
 677 83 677 83 687.5 81.5 c 128,-1,11
 698 80 698 80 717 80 c 2,12,-1
 966 80 l 2,13,14
 985 80 985 80 995.5 81.5 c 128,-1,15
 1006 83 1006 83 1011.5 88 c 128,-1,16
 1017 93 1017 93 1018.5 103.5 c 128,-1,17
 1020 114 1020 114 1020 133 c 2,18,-1
 1020 193 l 1,19,-1
 1111 193 l 1,20,-1
 1111 116 l 2,21,22
 1111 92 1111 92 1102 71 c 128,-1,23
 1093 50 1093 50 1077 34 c 128,-1,24
 1061 18 1061 18 1040 9 c 128,-1,25
 1019 0 1019 0 995 0 c 2,26,-1
 688 0 l 2,27,28
 648 0 648 0 618 24 c 1,29,30
 586 0 586 0 547 0 c 2,31,-1
 240 0 l 2,32,33
 216 0 216 0 195 9 c 128,-1,34
 174 18 174 18 158 34 c 128,-1,35
 142 50 142 50 133 71 c 128,-1,36
 124 92 124 92 124 116 c 2,37,-1
 124 551 l 1,38,-1
 32 551 l 1,39,-1
 32 631 l 1,40,-1
 1111 631 l 1,41,-1
 1111 491 l 1,42,-1
 1020 491 l 1,0,-1
572 131 m 2,43,-1
 572 551 l 1,44,-1
 215 551 l 1,45,-1
 215 133 l 2,46,47
 215 114 215 114 216.5 103.5 c 128,-1,48
 218 93 218 93 223.5 88 c 128,-1,49
 229 83 229 83 239.5 81.5 c 128,-1,50
 250 80 250 80 269 80 c 2,51,-1
 518 80 l 2,52,53
 536 80 536 80 547 81 c 128,-1,54
 558 82 558 82 563.5 87.5 c 128,-1,55
 569 93 569 93 570.5 103 c 128,-1,56
 572 113 572 113 572 131 c 2,43,-1
439 397 m 1,57,-1
 347 397 l 1,58,-1
 347 235 l 1,59,-1
 439 235 l 1,60,-1
 439 397 l 1,57,-1
EndSplineSet
EndChar

StartChar: oe
Encoding: 339 339 197
Width: 921
GlyphClass: 3
Flags: W
LayerCount: 2
Fore
SplineSet
215 133 m 2,0,1
 215 114 215 114 216 103.5 c 128,-1,2
 217 93 217 93 222 88 c 128,-1,3
 227 83 227 83 237 81.5 c 128,-1,4
 247 80 247 80 266 80 c 2,5,-1
 431 80 l 1,6,-1
 431 0 l 1,7,-1
 240 0 l 2,8,9
 216 0 216 0 195 9 c 128,-1,10
 174 18 174 18 158 34 c 128,-1,11
 142 50 142 50 133 71 c 128,-1,12
 124 92 124 92 124 116 c 2,13,-1
 124 317 l 1,14,-1
 32 317 l 1,15,-1
 32 397 l 1,16,-1
 512 397 l 1,17,-1
 512 317 l 1,18,-1
 215 317 l 1,19,-1
 215 133 l 2,0,1
869 80 m 1,20,-1
 869 0 l 1,21,-1
 577 0 l 2,22,23
 553 0 553 0 532 9 c 128,-1,24
 511 18 511 18 495 34 c 128,-1,25
 479 50 479 50 470 71 c 128,-1,26
 461 92 461 92 461 116 c 2,27,-1
 461 317 l 1,28,-1
 369 317 l 1,29,-1
 369 397 l 1,30,-1
 889 397 l 1,31,-1
 889 259 l 2,32,33
 889 235 889 235 880 214 c 128,-1,34
 871 193 871 193 855 177 c 128,-1,35
 839 161 839 161 817.5 152 c 128,-1,36
 796 143 796 143 772 143 c 2,37,-1
 552 143 l 1,38,-1
 552 145 l 1,39,40
 552 126 552 126 553 113.5 c 128,-1,41
 554 101 554 101 559 93.5 c 128,-1,42
 564 86 564 86 574 83 c 128,-1,43
 584 80 584 80 603 80 c 2,44,-1
 869 80 l 1,20,-1
552 223 m 1,45,-1
 756 223 l 2,46,47
 775 223 775 223 785.5 224.5 c 128,-1,48
 796 226 796 226 801.5 231.5 c 128,-1,49
 807 237 807 237 808 247.5 c 128,-1,50
 809 258 809 258 809 277 c 2,51,-1
 809 317 l 1,52,-1
 552 317 l 1,53,-1
 552 223 l 1,45,-1
EndSplineSet
EndChar

StartChar: florin
Encoding: 402 402 203
Width: 656
GlyphClass: 2
Flags: W
LayerCount: 2
Fore
SplineSet
331 550 m 2,0,1
 312 550 312 550 301.5 548.5 c 128,-1,2
 291 547 291 547 285.5 541.5 c 128,-1,3
 280 536 280 536 278.5 525.5 c 128,-1,4
 277 515 277 515 277 496 c 2,5,-1
 277 397 l 1,6,-1
 490 397 l 1,7,-1
 490 317 l 1,8,-1
 277 317 l 1,9,-1
 277 117 l 2,10,11
 277 93 277 93 268 72 c 128,-1,12
 259 51 259 51 243.5 35 c 128,-1,13
 228 19 228 19 206.5 10 c 128,-1,14
 185 1 185 1 161 1 c 2,15,-1
 32 1 l 1,16,-1
 32 81 l 1,17,-1
 132 81 l 2,18,19
 151 81 151 81 161.5 82.5 c 128,-1,20
 172 84 172 84 177.5 89 c 128,-1,21
 183 94 183 94 184.5 104.5 c 128,-1,22
 186 115 186 115 186 134 c 2,23,-1
 186 317 l 1,24,-1
 32 317 l 1,25,-1
 32 397 l 1,26,-1
 186 397 l 1,27,-1
 186 514 l 2,28,29
 186 538 186 538 195 559 c 128,-1,30
 204 580 204 580 220 596 c 128,-1,31
 236 612 236 612 257 621 c 128,-1,32
 278 630 278 630 302 630 c 2,33,-1
 624 630 l 1,34,-1
 624 550 l 1,35,-1
 331 550 l 2,0,1
EndSplineSet
EndChar

StartChar: circumflex
Encoding: 710 710 204
Width: 407
GlyphClass: 2
Flags: W
LayerCount: 2
Fore
SplineSet
355 680 m 1,0,-1
 254 680 l 1,1,-1
 189 827 l 1,2,-1
 217 827 l 1,3,-1
 152 680 l 1,4,-1
 52 680 l 1,5,-1
 158 877 l 1,6,-1
 249 877 l 1,7,-1
 355 680 l 1,0,-1
EndSplineSet
EndChar

StartChar: breve
Encoding: 728 728 206
Width: 388
GlyphClass: 2
Flags: W
LayerCount: 2
Fore
SplineSet
356 651 m 1,0,1
 355 618 355 618 341.5 589.5 c 128,-1,2
 328 561 328 561 306.5 540 c 128,-1,3
 285 519 285 519 256 506.5 c 128,-1,4
 227 494 227 494 194 494 c 256,5,6
 161 494 161 494 132 506.5 c 128,-1,7
 103 519 103 519 81 540 c 128,-1,8
 59 561 59 561 46 589.5 c 128,-1,9
 33 618 33 618 32 651 c 1,10,-1
 112 651 l 1,11,12
 114 619 114 619 138 596.5 c 128,-1,13
 162 574 162 574 194 574 c 256,14,15
 226 574 226 574 249.5 596.5 c 128,-1,16
 273 619 273 619 275 651 c 1,17,-1
 356 651 l 1,0,1
EndSplineSet
EndChar

StartChar: dotaccent
Encoding: 729 729 207
Width: 209
GlyphClass: 2
Flags: W
LayerCount: 2
Fore
SplineSet
104 645 m 256,0,1
 134 645 134 645 155.5 623.5 c 128,-1,2
 177 602 177 602 177 572 c 256,3,4
 177 542 177 542 155.5 521 c 128,-1,5
 134 500 134 500 104 500 c 256,6,7
 74 500 74 500 53 521 c 128,-1,8
 32 542 32 542 32 572 c 256,9,10
 32 602 32 602 53 623.5 c 128,-1,11
 74 645 74 645 104 645 c 256,0,1
EndSplineSet
EndChar

StartChar: ring
Encoding: 730 730 208
Width: 388
GlyphClass: 2
Flags: W
LayerCount: 2
Fore
SplineSet
194 662 m 256,0,1
 227 662 227 662 256.5 649 c 128,-1,2
 286 636 286 636 308 614 c 128,-1,3
 330 592 330 592 343 562.5 c 128,-1,4
 356 533 356 533 356 500 c 256,5,6
 356 467 356 467 343 437.5 c 128,-1,7
 330 408 330 408 308 386 c 128,-1,8
 286 364 286 364 256.5 351 c 128,-1,9
 227 338 227 338 194 338 c 256,10,11
 161 338 161 338 131.5 351 c 128,-1,12
 102 364 102 364 80 386 c 128,-1,13
 58 408 58 408 45 437.5 c 128,-1,14
 32 467 32 467 32 500 c 256,15,16
 32 533 32 533 45 562.5 c 128,-1,17
 58 592 58 592 80 614 c 128,-1,18
 102 636 102 636 131.5 649 c 128,-1,19
 161 662 161 662 194 662 c 256,0,1
194 418 m 256,20,21
 228 418 228 418 252 442 c 128,-1,22
 276 466 276 466 276 500 c 256,23,24
 276 534 276 534 252 558 c 128,-1,25
 228 582 228 582 194 582 c 256,26,27
 160 582 160 582 136 558 c 128,-1,28
 112 534 112 534 112 500 c 256,29,30
 112 466 112 466 136 442 c 128,-1,31
 160 418 160 418 194 418 c 256,20,21
EndSplineSet
EndChar

StartChar: ogonek
Encoding: 731 731 209
Width: 221
GlyphClass: 2
Flags: W
LayerCount: 2
Fore
SplineSet
189 -73 m 1,0,1
 145 -86 145 -86 113.5 -81 c 128,-1,2
 82 -76 82 -76 62.5 -60.5 c 128,-1,3
 43 -45 43 -45 36.5 -20.5 c 128,-1,4
 30 4 30 4 36 31.5 c 128,-1,5
 42 59 42 59 61.5 86.5 c 128,-1,6
 81 114 81 114 114 136 c 1,7,-1
 136 74 l 1,8,9
 113 56 113 56 106 37 c 128,-1,10
 99 18 99 18 104.5 4 c 128,-1,11
 110 -10 110 -10 127 -16.5 c 128,-1,12
 144 -23 144 -23 169 -16 c 1,13,-1
 189 -73 l 1,0,1
EndSplineSet
EndChar

StartChar: tilde
Encoding: 732 732 210
Width: 461
GlyphClass: 2
Flags: W
LayerCount: 2
Fore
SplineSet
429 621 m 1,0,-1
 429 570 l 2,1,2
 429 509 429 509 406.5 485.5 c 128,-1,3
 384 462 384 462 350 462 c 0,4,5
 327 462 327 462 300.5 470.5 c 128,-1,6
 274 479 274 479 247.5 490 c 128,-1,7
 221 501 221 501 196.5 513 c 128,-1,8
 172 525 172 525 153.5 531.5 c 128,-1,9
 135 538 135 538 123.5 538 c 128,-1,10
 112 538 112 538 112 525 c 2,11,-1
 112 459 l 1,12,-1
 32 459 l 1,13,-1
 32 512 l 2,14,15
 32 544 32 544 38 565 c 128,-1,16
 44 586 44 586 54.5 599 c 128,-1,17
 65 612 65 612 80 617 c 128,-1,18
 95 622 95 622 112 622 c 0,19,20
 135 622 135 622 161 613.5 c 128,-1,21
 187 605 187 605 213.5 593.5 c 128,-1,22
 240 582 240 582 264 570 c 128,-1,23
 288 558 288 558 307 551 c 128,-1,24
 326 544 326 544 337 544 c 128,-1,25
 348 544 348 544 348 557 c 2,26,-1
 348 621 l 1,27,-1
 429 621 l 1,0,-1
EndSplineSet
EndChar

StartChar: hungarumlaut
Encoding: 733 733 211
Width: 342
GlyphClass: 2
Flags: W
LayerCount: 2
Fore
SplineSet
179 651 m 1,0,-1
 122 454 l 1,1,-1
 32 454 l 1,2,-1
 89 651 l 1,3,-1
 179 651 l 1,0,-1
310 651 m 1,4,-1
 253 454 l 1,5,-1
 163 454 l 1,6,-1
 220 651 l 1,7,-1
 310 651 l 1,4,-1
EndSplineSet
EndChar

StartChar: uni03BC
Encoding: 956 956 212
Width: 584
GlyphClass: 2
Flags: W
LayerCount: 2
Fore
SplineSet
552 181 m 1,0,-1
 552 101 l 1,1,-1
 124 101 l 1,2,-1
 124 -103 l 1,3,-1
 32 -103 l 1,4,-1
 32 498 l 1,5,-1
 124 498 l 1,6,-1
 124 181 l 1,7,-1
 368 181 l 1,8,-1
 368 498 l 1,9,-1
 460 498 l 1,10,-1
 460 181 l 1,11,-1
 552 181 l 1,0,-1
EndSplineSet
EndChar

StartChar: endash
Encoding: 8211 8211 213
Width: 461
GlyphClass: 2
Flags: W
LayerCount: 2
Fore
SplineSet
429 356 m 1,0,-1
 429 276 l 1,1,-1
 32 276 l 1,2,-1
 32 356 l 1,3,-1
 429 356 l 1,0,-1
EndSplineSet
EndChar

StartChar: emdash
Encoding: 8212 8212 214
Width: 765
GlyphClass: 2
Flags: W
LayerCount: 2
Fore
SplineSet
733 356 m 1,0,-1
 733 276 l 1,1,-1
 32 276 l 1,2,-1
 32 356 l 1,3,-1
 733 356 l 1,0,-1
EndSplineSet
EndChar

StartChar: quoteleft
Encoding: 8216 8216 215
Width: 220
GlyphClass: 2
Flags: W
LayerCount: 2
Fore
SplineSet
188 631 m 1,0,-1
 178 605 l 2,1,2
 174 594 174 594 169.5 581.5 c 128,-1,3
 165 569 165 569 161 558 c 0,4,5
 158 548 158 548 153 524.5 c 128,-1,6
 148 501 148 501 143 477 c 0,7,8
 137 449 137 449 131 417 c 1,9,-1
 32 417 l 1,10,-1
 98 631 l 1,11,-1
 188 631 l 1,0,-1
EndSplineSet
EndChar

StartChar: quoteright
Encoding: 8217 8217 216
Width: 220
GlyphClass: 2
Flags: W
LayerCount: 2
Fore
SplineSet
188 631 m 1,0,-1
 122 417 l 1,1,-1
 32 417 l 1,2,-1
 42 443 l 2,3,4
 46 454 46 454 50.5 467 c 128,-1,5
 55 480 55 480 59 490 c 256,6,7
 63 500 63 500 67.5 523 c 128,-1,8
 72 546 72 546 77 570 c 0,9,10
 83 598 83 598 89 631 c 1,11,-1
 188 631 l 1,0,-1
EndSplineSet
EndChar

StartChar: quotesinglbase
Encoding: 8218 8218 217
Width: 220
GlyphClass: 2
Flags: W
LayerCount: 2
Fore
SplineSet
188 113 m 1,0,-1
 122 -102 l 1,1,-1
 32 -102 l 1,2,3
 37 -88 37 -88 42 -75 c 0,4,5
 46 -64 46 -64 50.5 -51.5 c 128,-1,6
 55 -39 55 -39 59 -29 c 256,7,8
 63 -19 63 -19 67.5 4.5 c 128,-1,9
 72 28 72 28 77 52 c 0,10,11
 83 80 83 80 89 113 c 1,12,-1
 188 113 l 1,0,-1
EndSplineSet
EndChar

StartChar: quotedblleft
Encoding: 8220 8220 218
Width: 347
GlyphClass: 2
Flags: W
LayerCount: 2
Fore
SplineSet
188 631 m 1,0,-1
 178 605 l 2,1,2
 174 594 174 594 169.5 581.5 c 128,-1,3
 165 569 165 569 161 558 c 0,4,5
 158 548 158 548 153 524.5 c 128,-1,6
 148 501 148 501 143 477 c 0,7,8
 137 449 137 449 131 417 c 1,9,-1
 32 417 l 1,10,-1
 98 631 l 1,11,-1
 188 631 l 1,0,-1
315 631 m 1,12,-1
 305 605 l 2,13,14
 301 594 301 594 296.5 581.5 c 128,-1,15
 292 569 292 569 288 558 c 0,16,17
 285 548 285 548 280 524.5 c 128,-1,18
 275 501 275 501 270 477 c 0,19,20
 264 449 264 449 258 417 c 1,21,-1
 159 417 l 1,22,-1
 225 631 l 1,23,-1
 315 631 l 1,12,-1
EndSplineSet
EndChar

StartChar: quotedblright
Encoding: 8221 8221 219
Width: 346
GlyphClass: 2
Flags: W
LayerCount: 2
Fore
SplineSet
188 631 m 1,0,-1
 122 417 l 1,1,-1
 32 417 l 1,2,-1
 42 443 l 2,3,4
 46 454 46 454 50.5 467 c 128,-1,5
 55 480 55 480 59 490 c 256,6,7
 63 500 63 500 67.5 523 c 128,-1,8
 72 546 72 546 77 570 c 0,9,10
 83 598 83 598 89 631 c 1,11,-1
 188 631 l 1,0,-1
314 631 m 1,12,-1
 248 417 l 1,13,-1
 158 417 l 1,14,-1
 168 443 l 2,15,16
 172 454 172 454 176.5 467 c 128,-1,17
 181 480 181 480 185 490 c 256,18,19
 189 500 189 500 193.5 523 c 128,-1,20
 198 546 198 546 203 570 c 0,21,22
 209 598 209 598 215 631 c 1,23,-1
 314 631 l 1,12,-1
EndSplineSet
EndChar

StartChar: quotedblbase
Encoding: 8222 8222 220
Width: 347
GlyphClass: 2
Flags: W
LayerCount: 2
Fore
SplineSet
188 113 m 1,0,-1
 122 -102 l 1,1,-1
 32 -102 l 1,2,3
 37 -88 37 -88 42 -75 c 0,4,5
 46 -64 46 -64 50.5 -51.5 c 128,-1,6
 55 -39 55 -39 59 -29 c 256,7,8
 63 -19 63 -19 67.5 4.5 c 128,-1,9
 72 28 72 28 77 52 c 0,10,11
 83 80 83 80 89 113 c 1,12,-1
 188 113 l 1,0,-1
315 113 m 1,13,-1
 249 -102 l 1,14,-1
 159 -102 l 1,15,16
 164 -88 164 -88 169 -75 c 0,17,18
 173 -64 173 -64 177.5 -51.5 c 128,-1,19
 182 -39 182 -39 186 -29 c 256,20,21
 190 -19 190 -19 194.5 4.5 c 128,-1,22
 199 28 199 28 204 52 c 0,23,24
 210 80 210 80 216 113 c 1,25,-1
 315 113 l 1,13,-1
EndSplineSet
EndChar

StartChar: dagger
Encoding: 8224 8224 221
Width: 433
GlyphClass: 2
Flags: W
LayerCount: 2
Fore
SplineSet
401 502 m 1,0,-1
 401 422 l 1,1,-1
 262 422 l 1,2,-1
 262 0 l 1,3,-1
 171 0 l 1,4,-1
 171 422 l 1,5,-1
 32 422 l 1,6,-1
 32 502 l 1,7,-1
 171 502 l 1,8,-1
 171 629 l 1,9,-1
 262 629 l 1,10,-1
 262 502 l 1,11,-1
 401 502 l 1,0,-1
EndSplineSet
EndChar

StartChar: daggerdbl
Encoding: 8225 8225 222
Width: 433
GlyphClass: 2
Flags: W
LayerCount: 2
Fore
SplineSet
262 422 m 1,0,-1
 262 206 l 1,1,-1
 401 206 l 1,2,-1
 401 126 l 1,3,-1
 262 126 l 1,4,-1
 262 0 l 1,5,-1
 171 0 l 1,6,-1
 171 126 l 1,7,-1
 32 126 l 1,8,-1
 32 206 l 1,9,-1
 171 206 l 1,10,-1
 171 422 l 1,11,-1
 32 422 l 1,12,-1
 32 502 l 1,13,-1
 171 502 l 1,14,-1
 171 629 l 1,15,-1
 262 629 l 1,16,-1
 262 502 l 1,17,-1
 401 502 l 1,18,-1
 401 422 l 1,19,-1
 262 422 l 1,0,-1
EndSplineSet
EndChar

StartChar: bullet
Encoding: 8226 8226 223
Width: 176
GlyphClass: 2
Flags: W
LayerCount: 2
Fore
SplineSet
88 372 m 256,0,1
 111 372 111 372 127.5 355.5 c 128,-1,2
 144 339 144 339 144 316 c 256,3,4
 144 293 144 293 127.5 276.5 c 128,-1,5
 111 260 111 260 88 260 c 256,6,7
 65 260 65 260 48.5 276.5 c 128,-1,8
 32 293 32 293 32 316 c 256,9,10
 32 339 32 339 48.5 355.5 c 128,-1,11
 65 372 65 372 88 372 c 256,0,1
EndSplineSet
EndChar

StartChar: ellipsis
Encoding: 8230 8230 224
Width: 486
GlyphClass: 2
Flags: W
LayerCount: 2
Fore
SplineSet
88 112 m 256,0,1
 111 112 111 112 127.5 95.5 c 128,-1,2
 144 79 144 79 144 56 c 256,3,4
 144 33 144 33 127.5 16.5 c 128,-1,5
 111 0 111 0 88 0 c 256,6,7
 65 0 65 0 48.5 16.5 c 128,-1,8
 32 33 32 33 32 56 c 256,9,10
 32 79 32 79 48.5 95.5 c 128,-1,11
 65 112 65 112 88 112 c 256,0,1
243 112 m 256,12,13
 266 112 266 112 283 95.5 c 128,-1,14
 300 79 300 79 300 56 c 256,15,16
 300 33 300 33 283 16.5 c 128,-1,17
 266 0 266 0 243 0 c 256,18,19
 220 0 220 0 203.5 16.5 c 128,-1,20
 187 33 187 33 187 56 c 256,21,22
 187 79 187 79 203.5 95.5 c 128,-1,23
 220 112 220 112 243 112 c 256,12,13
398 112 m 256,24,25
 421 112 421 112 437.5 95.5 c 128,-1,26
 454 79 454 79 454 56 c 256,27,28
 454 33 454 33 437.5 16.5 c 128,-1,29
 421 0 421 0 398 0 c 256,30,31
 375 0 375 0 358 16.5 c 128,-1,32
 341 33 341 33 341 56 c 256,33,34
 341 79 341 79 358 95.5 c 128,-1,35
 375 112 375 112 398 112 c 256,24,25
EndSplineSet
EndChar

StartChar: fraction
Encoding: 8260 8260 228
Width: 535
GlyphClass: 2
Flags: W
LayerCount: 2
Fore
SplineSet
523 631 m 1,0,-1
 131 0 l 1,1,-1
 32 0 l 1,2,-1
 424 631 l 1,3,-1
 523 631 l 1,0,-1
EndSplineSet
EndChar

StartChar: Euro
Encoding: 8364 8364 229
Width: 697
GlyphClass: 2
Flags: W
LayerCount: 2
Fore
SplineSet
573 440 m 1,0,-1
 573 540 l 1,1,-1
 270 540 l 2,2,3
 251 540 251 540 240.5 538.5 c 128,-1,4
 230 537 230 537 225 531.5 c 128,-1,5
 220 526 220 526 218.5 515.5 c 128,-1,6
 217 505 217 505 217 486 c 2,7,-1
 217 429 l 1,8,-1
 429 429 l 1,9,-1
 429 349 l 1,10,-1
 217 349 l 1,11,-1
 217 283 l 1,12,-1
 429 283 l 1,13,-1
 429 203 l 1,14,-1
 217 203 l 1,15,-1
 217 92 l 1,16,-1
 520 92 l 2,17,18
 539 92 539 92 549.5 93.5 c 128,-1,19
 560 95 560 95 565.5 100 c 128,-1,20
 571 105 571 105 572 115.5 c 128,-1,21
 573 126 573 126 573 145 c 2,22,-1
 573 193 l 1,23,-1
 665 193 l 1,24,-1
 665 116 l 2,25,26
 665 92 665 92 656 71 c 128,-1,27
 647 50 647 50 631 34 c 128,-1,28
 615 18 615 18 594 9 c 128,-1,29
 573 0 573 0 549 0 c 2,30,-1
 34 0 l 1,31,-1
 34 92 l 1,32,-1
 125 92 l 1,33,-1
 125 203 l 1,34,-1
 32 203 l 1,35,-1
 32 283 l 1,36,-1
 125 283 l 1,37,-1
 125 349 l 1,38,-1
 32 349 l 1,39,-1
 32 429 l 1,40,-1
 125 429 l 1,41,-1
 125 515 l 2,42,43
 125 539 125 539 134 560 c 128,-1,44
 143 581 143 581 159 597 c 128,-1,45
 175 613 175 613 196 622 c 128,-1,46
 217 631 217 631 241 631 c 2,47,-1
 665 631 l 1,48,-1
 665 440 l 1,49,-1
 573 440 l 1,0,-1
EndSplineSet
EndChar

StartChar: trademark
Encoding: 8482 8482 230
Width: 733
GlyphClass: 2
Flags: W
LayerCount: 2
Fore
SplineSet
228 556 m 1,0,-1
 228 390 l 1,1,-1
 267 390 l 1,2,-1
 267 316 l 1,3,-1
 108 316 l 1,4,-1
 108 390 l 1,5,-1
 152 390 l 1,6,-1
 152 556 l 1,7,-1
 32 556 l 1,8,-1
 32 631 l 1,9,-1
 348 631 l 1,10,-1
 348 556 l 1,11,-1
 228 556 l 1,0,-1
643 631 m 2,12,13
 667 631 667 631 684 614 c 128,-1,14
 701 597 701 597 701 573 c 2,15,-1
 701 316 l 1,16,-1
 626 316 l 1,17,-1
 626 530 l 2,18,19
 626 549 626 549 622 552.5 c 128,-1,20
 618 556 618 556 599 556 c 2,21,-1
 562 556 l 1,22,-1
 562 386 l 1,23,-1
 487 386 l 1,24,-1
 487 556 l 1,25,-1
 424 556 l 1,26,-1
 424 316 l 1,27,-1
 349 316 l 1,28,-1
 349 556 l 1,29,-1
 303 556 l 1,30,-1
 303 631 l 1,31,-1
 643 631 l 2,12,13
EndSplineSet
EndChar

StartChar: minus
Encoding: 8722 8722 231
Width: 461
GlyphClass: 2
Flags: W
LayerCount: 2
Fore
SplineSet
429 356 m 1,0,-1
 429 276 l 1,1,-1
 32 276 l 1,2,-1
 32 356 l 1,3,-1
 429 356 l 1,0,-1
EndSplineSet
EndChar

StartChar: uniE001
Encoding: 57345 57345 232
Width: 787
GlyphClass: 2
Flags: W
LayerCount: 2
Fore
SplineSet
215 551 m 1,0,-1
 215 397 l 1,1,-1
 572 397 l 1,2,-1
 572 501 l 1,3,-1
 663 501 l 1,4,-1
 663 397 l 1,5,-1
 755 397 l 1,6,-1
 755 317 l 1,7,-1
 663 317 l 1,8,-1
 663 133 l 2,9,10
 663 114 663 114 664.5 103.5 c 128,-1,11
 666 93 666 93 671.5 88 c 128,-1,12
 677 83 677 83 687.5 81.5 c 128,-1,13
 698 80 698 80 717 80 c 2,14,-1
 755 80 l 1,15,-1
 755 0 l 1,16,-1
 688 0 l 2,17,18
 664 0 664 0 642.5 9 c 128,-1,19
 621 18 621 18 605.5 34 c 128,-1,20
 590 50 590 50 581 71 c 128,-1,21
 572 92 572 92 572 116 c 2,22,-1
 572 317 l 1,23,-1
 215 317 l 1,24,-1
 215 116 l 2,25,26
 215 92 215 92 206 71 c 128,-1,27
 197 50 197 50 181 34 c 128,-1,28
 165 18 165 18 144 9 c 128,-1,29
 123 0 123 0 99 0 c 2,30,-1
 32 0 l 1,31,-1
 32 80 l 1,32,-1
 70 80 l 2,33,34
 89 80 89 80 99.5 81.5 c 128,-1,35
 110 83 110 83 115.5 88 c 128,-1,36
 121 93 121 93 122.5 103.5 c 128,-1,37
 124 114 124 114 124 133 c 2,38,-1
 124 317 l 1,39,-1
 32 317 l 1,40,-1
 32 397 l 1,41,-1
 124 397 l 1,42,-1
 124 551 l 1,43,-1
 32 551 l 1,44,-1
 32 631 l 1,45,-1
 755 631 l 1,46,-1
 755 551 l 1,47,-1
 215 551 l 1,0,-1
EndSplineSet
EndChar

StartChar: uniE002
Encoding: 57346 57346 233
Width: 695
GlyphClass: 2
Flags: W
LayerCount: 2
Fore
SplineSet
663 397 m 1,0,-1
 663 116 l 2,1,2
 663 92 663 92 654 71 c 128,-1,3
 645 50 645 50 629 34 c 128,-1,4
 613 18 613 18 592 9 c 128,-1,5
 571 0 571 0 547 0 c 2,6,-1
 259 0 l 1,7,-1
 259 80 l 1,8,-1
 518 80 l 2,9,10
 537 80 537 80 547.5 81.5 c 128,-1,11
 558 83 558 83 563.5 88 c 128,-1,12
 569 93 569 93 570.5 103.5 c 128,-1,13
 572 114 572 114 572 133 c 2,14,-1
 572 317 l 1,15,-1
 215 317 l 1,16,-1
 215 116 l 2,17,18
 215 92 215 92 206 71 c 128,-1,19
 197 50 197 50 181 34 c 128,-1,20
 165 18 165 18 144 9 c 128,-1,21
 123 0 123 0 99 0 c 2,22,-1
 32 0 l 1,23,-1
 32 80 l 1,24,-1
 70 80 l 2,25,26
 89 80 89 80 99.5 81.5 c 128,-1,27
 110 83 110 83 115.5 88 c 128,-1,28
 121 93 121 93 122.5 103.5 c 128,-1,29
 124 114 124 114 124 133 c 2,30,-1
 124 317 l 1,31,-1
 32 317 l 1,32,-1
 32 397 l 1,33,-1
 124 397 l 1,34,-1
 124 551 l 1,35,-1
 32 551 l 1,36,-1
 32 631 l 1,37,-1
 604 631 l 1,38,-1
 604 423 l 2,39,40
 604 416 604 416 601 408 c 128,-1,41
 598 400 598 400 591 397 c 1,42,-1
 663 397 l 1,0,-1
513 551 m 1,43,-1
 215 551 l 1,44,-1
 215 397 l 1,45,-1
 459 397 l 2,46,47
 478 397 478 397 488.5 398.5 c 128,-1,48
 499 400 499 400 504.5 405 c 128,-1,49
 510 410 510 410 511.5 420.5 c 128,-1,50
 513 431 513 431 513 450 c 2,51,-1
 513 551 l 1,43,-1
EndSplineSet
EndChar

StartChar: uniE004
Encoding: 57348 57348 234
Width: 695
GlyphClass: 2
Flags: W
LayerCount: 2
Fore
SplineSet
547 631 m 2,0,1
 571 631 571 631 592 622 c 128,-1,2
 613 613 613 613 629 597 c 128,-1,3
 645 581 645 581 654 560 c 128,-1,4
 663 539 663 539 663 515 c 2,5,-1
 663 116 l 2,6,7
 663 92 663 92 654 71 c 128,-1,8
 645 50 645 50 629 34 c 128,-1,9
 613 18 613 18 592 9 c 128,-1,10
 571 0 571 0 547 0 c 2,11,-1
 261 0 l 1,12,-1
 261 80 l 1,13,-1
 518 80 l 2,14,15
 537 80 537 80 547.5 81.5 c 128,-1,16
 558 83 558 83 563.5 88 c 128,-1,17
 569 93 569 93 570.5 103.5 c 128,-1,18
 572 114 572 114 572 133 c 2,19,-1
 572 498 l 2,20,21
 572 520 572 520 556.5 535.5 c 128,-1,22
 541 551 541 551 518 551 c 2,23,-1
 215 551 l 1,24,-1
 215 116 l 2,25,26
 215 92 215 92 206 71 c 128,-1,27
 197 50 197 50 181 34 c 128,-1,28
 165 18 165 18 144 9 c 128,-1,29
 123 0 123 0 99 0 c 2,30,-1
 32 0 l 1,31,-1
 32 80 l 1,32,-1
 70 80 l 2,33,34
 89 80 89 80 99.5 81.5 c 128,-1,35
 110 83 110 83 115.5 88 c 128,-1,36
 121 93 121 93 122.5 103.5 c 128,-1,37
 124 114 124 114 124 133 c 2,38,-1
 124 551 l 1,39,-1
 32 551 l 1,40,-1
 32 631 l 1,41,-1
 547 631 l 2,0,1
EndSplineSet
EndChar

StartChar: uniE014
Encoding: 57364 57364 235
Width: 695
GlyphClass: 2
Flags: W
LayerCount: 2
Fore
SplineSet
663 0 m 1,0,-1
 240 0 l 2,1,2
 216 0 216 0 195 9 c 128,-1,3
 174 18 174 18 158 34 c 128,-1,4
 142 50 142 50 133 71 c 128,-1,5
 124 92 124 92 124 116 c 2,6,-1
 124 587 l 1,7,-1
 215 587 l 1,8,-1
 215 134 l 2,9,10
 215 115 215 115 216.5 104.5 c 128,-1,11
 218 94 218 94 223.5 88.5 c 128,-1,12
 229 83 229 83 239.5 81.5 c 128,-1,13
 250 80 250 80 269 80 c 2,14,-1
 572 80 l 1,15,-1
 572 551 l 1,16,-1
 32 551 l 1,17,-1
 32 631 l 1,18,-1
 663 631 l 1,19,-1
 663 0 l 1,0,-1
439 397 m 1,20,-1
 439 233 l 1,21,-1
 348 233 l 1,22,-1
 348 397 l 1,23,-1
 439 397 l 1,20,-1
EndSplineSet
EndChar

StartChar: uniE015
Encoding: 57365 57365 236
Width: 695
GlyphClass: 2
Flags: W
LayerCount: 2
Fore
SplineSet
663 344 m 2,0,1
 663 320 663 320 654 299 c 128,-1,2
 645 278 645 278 629 262 c 128,-1,3
 613 246 613 246 592 237 c 128,-1,4
 571 228 571 228 547 228 c 2,5,-1
 215 228 l 1,6,-1
 215 116 l 2,7,8
 215 92 215 92 206 71 c 128,-1,9
 197 50 197 50 181 34 c 128,-1,10
 165 18 165 18 144 9 c 128,-1,11
 123 0 123 0 99 0 c 2,12,-1
 32 0 l 1,13,-1
 32 80 l 1,14,-1
 70 80 l 2,15,16
 89 80 89 80 99.5 81.5 c 128,-1,17
 110 83 110 83 115.5 88 c 128,-1,18
 121 93 121 93 122.5 103.5 c 128,-1,19
 124 114 124 114 124 133 c 2,20,-1
 124 228 l 1,21,-1
 32 228 l 1,22,-1
 32 308 l 1,23,-1
 124 308 l 1,24,-1
 124 631 l 1,25,-1
 215 631 l 1,26,-1
 215 308 l 1,27,-1
 518 308 l 2,28,29
 541 308 541 308 556.5 323.5 c 128,-1,30
 572 339 572 339 572 361 c 2,31,-1
 572 551 l 1,32,-1
 32 551 l 1,33,-1
 32 631 l 1,34,-1
 663 631 l 1,35,-1
 663 344 l 2,0,1
EndSplineSet
EndChar

StartChar: uniE016
Encoding: 57366 57366 237
Width: 695
GlyphClass: 2
Flags: W
LayerCount: 2
Fore
SplineSet
439 397 m 1,0,-1
 439 233 l 1,1,-1
 348 233 l 1,2,-1
 348 397 l 1,3,-1
 439 397 l 1,0,-1
663 0 m 1,4,-1
 240 0 l 2,5,6
 216 0 216 0 195 9 c 128,-1,7
 174 18 174 18 158 34 c 128,-1,8
 142 50 142 50 133 71 c 128,-1,9
 124 92 124 92 124 116 c 2,10,-1
 124 587 l 1,11,-1
 215 587 l 1,12,-1
 215 134 l 2,13,14
 215 115 215 115 216.5 104.5 c 128,-1,15
 218 94 218 94 223.5 88.5 c 128,-1,16
 229 83 229 83 239.5 81.5 c 128,-1,17
 250 80 250 80 269 80 c 2,18,-1
 572 80 l 1,19,-1
 572 551 l 1,20,-1
 32 551 l 1,21,-1
 32 631 l 1,22,-1
 663 631 l 1,23,-1
 663 0 l 1,4,-1
439 397 m 1,24,-1
 439 233 l 1,25,-1
 348 233 l 1,26,-1
 348 397 l 1,27,-1
 439 397 l 1,24,-1
439 40 m 1,28,-1
 439 -71 l 1,29,-1
 348 -71 l 1,30,-1
 348 40 l 1,31,-1
 439 40 l 1,28,-1
EndSplineSet
EndChar

StartChar: uniE017
Encoding: 57367 57367 238
Width: 695
GlyphClass: 2
Flags: W
LayerCount: 2
Fore
SplineSet
518 297 m 2,0,1
 537 297 537 297 547.5 298.5 c 128,-1,2
 558 300 558 300 563.5 305 c 128,-1,3
 569 310 569 310 570.5 320.5 c 128,-1,4
 572 331 572 331 572 350 c 2,5,-1
 572 551 l 1,6,-1
 216 551 l 1,7,-1
 216 297 l 1,8,-1
 518 297 l 2,0,1
124 217 m 1,9,-1
 32 217 l 1,10,-1
 32 297 l 1,11,-1
 124 297 l 1,12,-1
 124 551 l 1,13,-1
 32 551 l 1,14,-1
 32 631 l 1,15,-1
 663 631 l 1,16,-1
 663 333 l 2,17,18
 663 309 663 309 654 288 c 128,-1,19
 645 267 645 267 629 251 c 128,-1,20
 613 235 613 235 592 226 c 128,-1,21
 571 217 571 217 547 217 c 2,22,-1
 502 217 l 1,23,-1
 502 134 l 2,24,25
 502 115 502 115 503.5 104.5 c 128,-1,26
 505 94 505 94 510.5 88.5 c 128,-1,27
 516 83 516 83 526.5 81.5 c 128,-1,28
 537 80 537 80 556 80 c 2,29,-1
 663 80 l 1,30,-1
 663 0 l 1,31,-1
 526 0 l 2,32,33
 502 0 502 0 481 9 c 128,-1,34
 460 18 460 18 444.5 34 c 128,-1,35
 429 50 429 50 420 71 c 128,-1,36
 411 92 411 92 411 116 c 2,37,-1
 411 217 l 1,38,-1
 216 217 l 1,39,-1
 215 116 l 2,40,41
 215 92 215 92 206 71 c 128,-1,42
 197 50 197 50 181 34 c 128,-1,43
 165 18 165 18 144 9 c 128,-1,44
 123 0 123 0 99 0 c 2,45,-1
 32 0 l 1,46,-1
 32 92 l 1,47,-1
 70 92 l 2,48,49
 89 92 89 92 99.5 93.5 c 128,-1,50
 110 95 110 95 115.5 100 c 128,-1,51
 121 105 121 105 122.5 115.5 c 128,-1,52
 124 126 124 126 124 145 c 2,53,-1
 124 217 l 1,9,-1
EndSplineSet
EndChar

StartChar: uniE023
Encoding: 57379 57379 239
Width: 695
GlyphClass: 2
Flags: W
LayerCount: 2
Fore
SplineSet
663 297 m 1,0,-1
 663 217 l 1,1,-1
 572 217 l 1,2,-1
 572 116 l 2,3,4
 572 92 572 92 563 71 c 128,-1,5
 554 50 554 50 538 34 c 128,-1,6
 522 18 522 18 501 9 c 128,-1,7
 480 0 480 0 456 0 c 2,8,-1
 54 0 l 1,9,-1
 54 80 l 1,10,-1
 427 80 l 2,11,12
 446 80 446 80 456.5 81.5 c 128,-1,13
 467 83 467 83 472.5 88 c 128,-1,14
 478 93 478 93 479 103.5 c 128,-1,15
 480 114 480 114 480 133 c 2,16,-1
 480 217 l 1,17,-1
 148 217 l 2,18,19
 124 217 124 217 103 226 c 128,-1,20
 82 235 82 235 66 251 c 128,-1,21
 50 267 50 267 41 288 c 128,-1,22
 32 309 32 309 32 333 c 2,23,-1
 32 631 l 1,24,-1
 124 631 l 1,25,-1
 124 350 l 2,26,27
 124 331 124 331 125.5 320.5 c 128,-1,28
 127 310 127 310 132 305 c 128,-1,29
 137 300 137 300 147.5 298.5 c 128,-1,30
 158 297 158 297 177 297 c 2,31,-1
 480 297 l 1,32,-1
 480 631 l 1,33,-1
 572 631 l 1,34,-1
 572 297 l 1,35,-1
 663 297 l 1,0,-1
EndSplineSet
EndChar

StartChar: uniE024
Encoding: 57380 57380 240
Width: 695
GlyphClass: 2
Flags: W
LayerCount: 2
Fore
SplineSet
124 51 m 1,0,-1
 124 80 l 1,1,-1
 517 80 l 2,2,3
 536 80 536 80 546.5 81.5 c 128,-1,4
 557 83 557 83 562.5 88.5 c 128,-1,5
 568 94 568 94 569.5 104.5 c 128,-1,6
 571 115 571 115 571 134 c 2,7,-1
 571 200 l 1,8,-1
 663 200 l 1,9,-1
 663 116 l 2,10,11
 663 92 663 92 654 71 c 128,-1,12
 645 50 645 50 629 34 c 128,-1,13
 613 18 613 18 592 9 c 128,-1,14
 571 0 571 0 547 0 c 2,15,-1
 32 0 l 1,16,-1
 32 91 l 1,17,-1
 571 579 l 1,18,-1
 571 551 l 1,19,-1
 177 551 l 2,20,21
 158 551 158 551 147.5 550 c 128,-1,22
 137 549 137 549 132 543.5 c 128,-1,23
 127 538 127 538 125.5 527.5 c 128,-1,24
 124 517 124 517 124 498 c 2,25,-1
 124 451 l 1,26,-1
 32 451 l 1,27,-1
 32 515 l 2,28,29
 32 539 32 539 41 560 c 128,-1,30
 50 581 50 581 66 597 c 128,-1,31
 82 613 82 613 103 622 c 128,-1,32
 124 631 124 631 148 631 c 2,33,-1
 663 631 l 1,34,-1
 663 539 l 1,35,-1
 124 51 l 1,0,-1
EndSplineSet
EndChar

StartChar: uniE026
Encoding: 57382 57382 241
Width: 584
GlyphClass: 2
Flags: W
LayerCount: 2
Fore
SplineSet
552 0 m 1,0,-1
 261 0 l 1,1,-1
 261 80 l 1,2,-1
 460 80 l 1,3,-1
 460 265 l 2,4,5
 460 284 460 284 458.5 294.5 c 128,-1,6
 457 305 457 305 451.5 310.5 c 128,-1,7
 446 316 446 316 435.5 317 c 128,-1,8
 425 318 425 318 406 318 c 2,9,-1
 215 318 l 1,10,-1
 215 104 l 2,11,12
 215 56 215 56 181 28 c 128,-1,13
 147 0 147 0 99 0 c 2,14,-1
 32 0 l 1,15,-1
 32 80 l 1,16,-1
 70 80 l 2,17,18
 89 80 89 80 99.5 81.5 c 128,-1,19
 110 83 110 83 115.5 88 c 128,-1,20
 121 93 121 93 122.5 103.5 c 128,-1,21
 124 114 124 114 124 133 c 2,22,-1
 124 318 l 1,23,-1
 32 318 l 1,24,-1
 32 398 l 1,25,-1
 124 398 l 1,26,-1
 124 631 l 1,27,-1
 215 631 l 1,28,-1
 215 398 l 1,29,-1
 435 398 l 2,30,31
 459 398 459 398 480.5 389 c 128,-1,32
 502 380 502 380 518 364 c 128,-1,33
 534 348 534 348 543 327 c 128,-1,34
 552 306 552 306 552 282 c 2,35,-1
 552 92 l 1,36,-1
 552 0 l 1,0,-1
EndSplineSet
EndChar

StartChar: uniE028
Encoding: 57384 57384 242
Width: 584
GlyphClass: 2
Flags: W
LayerCount: 2
Fore
SplineSet
460 318 m 1,0,-1
 460 133 l 2,1,2
 460 114 460 114 461.5 103.5 c 128,-1,3
 463 93 463 93 468 88 c 128,-1,4
 473 83 473 83 483.5 81.5 c 128,-1,5
 494 80 494 80 513 80 c 2,6,-1
 552 80 l 1,7,-1
 552 0 l 1,8,-1
 484 0 l 2,9,10
 460 0 460 0 439 9 c 128,-1,11
 418 18 418 18 402 34 c 128,-1,12
 386 50 386 50 377 71 c 128,-1,13
 368 92 368 92 368 116 c 2,14,-1
 368 318 l 1,15,-1
 124 318 l 1,16,-1
 124 133 l 2,17,18
 124 114 124 114 125.5 103.5 c 128,-1,19
 127 93 127 93 132 88 c 128,-1,20
 137 83 137 83 147.5 81.5 c 128,-1,21
 158 80 158 80 177 80 c 2,22,-1
 322 80 l 1,23,-1
 322 0 l 1,24,-1
 148 0 l 2,25,26
 124 0 124 0 103 9 c 128,-1,27
 82 18 82 18 66 34 c 128,-1,28
 50 50 50 50 41 71 c 128,-1,29
 32 92 32 92 32 116 c 2,30,-1
 32 398 l 1,31,-1
 368 398 l 1,32,-1
 368 631 l 1,33,-1
 460 631 l 1,34,-1
 460 398 l 1,35,-1
 552 398 l 1,36,-1
 552 318 l 1,37,-1
 460 318 l 1,0,-1
EndSplineSet
EndChar

StartChar: uniE037
Encoding: 57399 57399 243
Width: 723
GlyphClass: 2
Flags: W
LayerCount: 2
Fore
SplineSet
124 306 m 1,0,-1
 32 306 l 1,1,-1
 32 397 l 1,2,-1
 575 397 l 2,3,4
 599 397 599 397 620 388 c 128,-1,5
 641 379 641 379 657 363 c 128,-1,6
 673 347 673 347 682 326 c 128,-1,7
 691 305 691 305 691 281 c 2,8,-1
 691 0 l 1,9,-1
 599 0 l 1,10,-1
 599 252 l 2,11,12
 599 271 599 271 598 281.5 c 128,-1,13
 597 292 597 292 591.5 297.5 c 128,-1,14
 586 303 586 303 575.5 304.5 c 128,-1,15
 565 306 565 306 546 306 c 2,16,-1
 460 306 l 1,17,-1
 460 0 l 1,18,-1
 368 0 l 1,19,-1
 368 252 l 2,20,21
 368 271 368 271 366.5 281.5 c 128,-1,22
 365 292 365 292 359.5 297.5 c 128,-1,23
 354 303 354 303 343.5 304.5 c 128,-1,24
 333 306 333 306 314 306 c 2,25,-1
 215 306 l 1,26,-1
 215 116 l 2,27,28
 215 92 215 92 206 71 c 128,-1,29
 197 50 197 50 181 34 c 128,-1,30
 165 18 165 18 144 9 c 128,-1,31
 123 0 123 0 99 0 c 2,32,-1
 32 0 l 1,33,-1
 32 80 l 1,34,-1
 70 80 l 2,35,36
 89 80 89 80 99.5 81.5 c 128,-1,37
 110 83 110 83 115.5 88 c 128,-1,38
 121 93 121 93 122.5 103.5 c 128,-1,39
 124 114 124 114 124 133 c 2,40,-1
 124 306 l 1,0,-1
EndSplineSet
EndChar

StartChar: uniE038
Encoding: 57400 57400 244
Width: 584
GlyphClass: 2
Flags: W
LayerCount: 2
Fore
SplineSet
215 116 m 2,0,1
 215 92 215 92 206 71 c 128,-1,2
 197 50 197 50 181 34 c 128,-1,3
 165 18 165 18 144 9 c 128,-1,4
 123 0 123 0 99 0 c 2,5,-1
 32 0 l 1,6,-1
 32 80 l 1,7,-1
 70 80 l 2,8,9
 89 80 89 80 99.5 81.5 c 128,-1,10
 110 83 110 83 115.5 88 c 128,-1,11
 121 93 121 93 122.5 103.5 c 128,-1,12
 124 114 124 114 124 133 c 2,13,-1
 124 306 l 1,14,-1
 32 306 l 1,15,-1
 32 397 l 1,16,-1
 435 397 l 2,17,18
 459 397 459 397 480.5 388 c 128,-1,19
 502 379 502 379 518 363 c 128,-1,20
 534 347 534 347 543 326 c 128,-1,21
 552 305 552 305 552 281 c 2,22,-1
 552 0 l 1,23,-1
 460 0 l 1,24,-1
 460 252 l 2,25,26
 460 271 460 271 458.5 281.5 c 128,-1,27
 457 292 457 292 451.5 297.5 c 128,-1,28
 446 303 446 303 435.5 304.5 c 128,-1,29
 425 306 425 306 406 306 c 2,30,-1
 215 306 l 1,31,-1
 215 116 l 2,0,1
EndSplineSet
EndChar

StartChar: uniE040
Encoding: 57408 57408 245
Width: 584
GlyphClass: 2
Flags: W
LayerCount: 2
Fore
SplineSet
552 397 m 1,0,-1
 552 117 l 2,1,2
 552 93 552 93 543 71.5 c 128,-1,3
 534 50 534 50 518 34.5 c 128,-1,4
 502 19 502 19 481 10 c 128,-1,5
 460 1 460 1 436 1 c 2,6,-1
 215 1 l 1,7,-1
 215 -118 l 2,8,9
 215 -142 215 -142 206 -163 c 128,-1,10
 197 -184 197 -184 181 -200 c 128,-1,11
 165 -216 165 -216 144 -225 c 128,-1,12
 123 -234 123 -234 99 -234 c 2,13,-1
 32 -234 l 1,14,-1
 32 -154 l 1,15,-1
 70 -154 l 2,16,17
 89 -154 89 -154 99.5 -152.5 c 128,-1,18
 110 -151 110 -151 115.5 -145.5 c 128,-1,19
 121 -140 121 -140 122.5 -129.5 c 128,-1,20
 124 -119 124 -119 124 -100 c 2,21,-1
 124 1 l 1,22,-1
 32 1 l 1,23,-1
 32 81 l 1,24,-1
 124 81 l 1,25,-1
 124 250 l 1,26,-1
 215 250 l 1,27,-1
 215 81 l 1,28,-1
 409 81 l 2,29,30
 428 81 428 81 438 82.5 c 128,-1,31
 448 84 448 84 453 89.5 c 128,-1,32
 458 95 458 95 459 105.5 c 128,-1,33
 460 116 460 116 460 135 c 2,34,-1
 460 317 l 1,35,-1
 32 317 l 1,36,-1
 32 397 l 1,37,-1
 552 397 l 1,0,-1
EndSplineSet
EndChar

StartChar: fi
Encoding: 64257 64257 246
Width: 545
GlyphClass: 3
Flags: W
LayerCount: 2
Fore
SplineSet
421 321 m 1,0,-1
 513 321 l 1,1,-1
 513 0 l 1,2,-1
 421 0 l 1,3,-1
 421 321 l 1,0,-1
269 468 m 2,4,5
 250 468 250 468 239.5 467 c 128,-1,6
 229 466 229 466 224 460.5 c 128,-1,7
 219 455 219 455 217.5 444.5 c 128,-1,8
 216 434 216 434 216 415 c 2,9,-1
 216 361 l 1,10,-1
 513 361 l 1,11,-1
 513 281 l 1,12,-1
 216 281 l 1,13,-1
 216 0 l 1,14,-1
 124 0 l 1,15,-1
 124 281 l 1,16,-1
 32 281 l 1,17,-1
 32 361 l 1,18,-1
 124 361 l 1,19,-1
 124 432 l 2,20,21
 124 456 124 456 133 477 c 128,-1,22
 142 498 142 498 158 514 c 128,-1,23
 174 530 174 530 195 539 c 128,-1,24
 216 548 216 548 240 548 c 2,25,-1
 513 548 l 1,26,-1
 513 468 l 1,27,-1
 269 468 l 2,4,5
EndSplineSet
Ligature2: "'liga' Standard Ligatures lookup 6 subtable" f i
EndChar

StartChar: fl
Encoding: 64258 64258 247
Width: 636
GlyphClass: 3
Flags: W
LayerCount: 2
Fore
SplineSet
269 499 m 2,0,1
 250 499 250 499 239.5 498 c 128,-1,2
 229 497 229 497 224 491.5 c 128,-1,3
 219 486 219 486 217.5 475.5 c 128,-1,4
 216 465 216 465 216 446 c 2,5,-1
 216 397 l 1,6,-1
 430 397 l 1,7,-1
 430 317 l 1,8,-1
 216 317 l 1,9,-1
 216 0 l 1,10,-1
 124 0 l 1,11,-1
 124 317 l 1,12,-1
 32 317 l 1,13,-1
 32 397 l 1,14,-1
 124 397 l 1,15,-1
 124 463 l 2,16,17
 124 487 124 487 133 508 c 128,-1,18
 142 529 142 529 158 545 c 128,-1,19
 174 561 174 561 195 570 c 128,-1,20
 216 579 216 579 240 579 c 2,21,-1
 604 579 l 1,22,-1
 604 0 l 1,23,-1
 512 0 l 1,24,-1
 512 499 l 1,25,-1
 269 499 l 2,0,1
EndSplineSet
Ligature2: "'liga' Standard Ligatures lookup 6 subtable" f l
EndChar
